<?xml version="1.0" standalone="no"?>
<!DOCTYPE svg PUBLIC "-//W3C//DTD SVG 1.1//EN" "http://www.w3.org/Graphics/SVG/1.1/DTD/svg11.dtd" >
<svg xmlns="http://www.w3.org/2000/svg" xmlns:xlink="http://www.w3.org/1999/xlink" version="1.1">
<metadata>
Created by FontForge 20170731 at Mon Mar 27 23:01:20 2017
 By Aleksey,,,
Copyright (c) 2013 by Aviation Partners. All rights reserved.
</metadata>
<defs>
<font id="CorsicaRamblerLX-Medium" horiz-adv-x="568" >
  <font-face 
    font-family="Corsica Rambler LX Medium"
    font-weight="500"
    font-stretch="normal"
    units-per-em="1000"
    panose-1="2 0 0 0 0 0 0 0 0 0"
    ascent="775"
    descent="-225"
    x-height="530"
    cap-height="712"
    bbox="-113 -267 1232 976"
    underline-thickness="50"
    underline-position="-150"
    unicode-range="U+000D-FB04"
  />
<missing-glyph horiz-adv-x="590" 
d="M45 724h500v-724h-500v724zM508 37v650h-426v-650h426zM184 233l-28 29l108 109l-108 110l28 28l109 -109l109 109l28 -28l-108 -110l108 -109l-28 -29l-109 109z" />
    <glyph glyph-name=".notdef" horiz-adv-x="590" 
d="M45 724h500v-724h-500v724zM508 37v650h-426v-650h426zM184 233l-28 29l108 109l-108 110l28 28l109 -109l109 109l28 -28l-108 -110l108 -109l-28 -29l-109 109z" />
    <glyph glyph-name=".null" horiz-adv-x="0" 
 />
    <glyph glyph-name="nonmarkingreturn" unicode="&#xd;" horiz-adv-x="333" 
 />
    <glyph glyph-name="NULL" horiz-adv-x="0" 
 />
    <glyph glyph-name="NULL" horiz-adv-x="0" 
 />
    <glyph glyph-name="space" unicode=" " horiz-adv-x="220" 
 />
    <glyph glyph-name="exclam" unicode="!" horiz-adv-x="272" 
d="M82 182v530h107v-530h-107zM135 130q28 0 48 -20.5t20 -48.5t-20 -47t-48 -19q-27 0 -46.5 19t-19.5 47t19.5 48.5t46.5 20.5z" />
    <glyph glyph-name="quotedbl" unicode="&#x22;" horiz-adv-x="390" 
d="M50 712h114l-20 -290h-74zM222 712h115l-20 -290h-75z" />
    <glyph glyph-name="numbersign" unicode="#" horiz-adv-x="584" 
d="M206 676h100l-27 -175h84l29 175h102l-29 -175h75v-101h-90l-19 -117h81v-100h-98l-29 -183h-100l28 183h-85l-30 -183h-100l28 183h-82v100h100l17 117h-90v101h106zM261 404l-19 -125h89l19 125h-89z" />
    <glyph glyph-name="dollar" unicode="$" horiz-adv-x="554" 
d="M298 429q36 -14 57 -24q11 -5 24 -12t29 -17q32 -20 48 -40q18 -20 31 -53t13 -72q0 -86 -56 -148q-55 -61 -146 -72v-57h-52v56q-103 4 -181 61v153q30 -36 78 -69q51 -33 103 -37v227l-56 21q-20 9 -51 27q-42 25 -62.5 60t-24.5 95q0 83 55 135q56 53 139 60v59h52
v-59q81 -4 149 -45v-135q-27 28 -69 48t-80 24v-186zM246 615q-36 -7 -59.5 -30.5t-23.5 -54.5q0 -28 20.5 -46t62.5 -35v166zM298 100q39 8 64.5 38t25.5 70q0 35 -22.5 57t-67.5 40v-205z" />
    <glyph glyph-name="percent" unicode="%" horiz-adv-x="774" 
d="M181 724q154 0 154 -188q0 -187 -154 -187q-155 0 -155 187q0 188 155 188zM105 536q0 -114 76 -114t76 114t-76 114t-76 -114zM592 368q156 0 156 -187t-156 -187q-155 0 -155 187t155 187zM592 67q77 0 77 114q0 113 -77 113q-75 0 -75 -113q0 -114 75 -114zM167 21
l357 699l70 -35l-358 -699z" />
    <glyph glyph-name="ampersand" unicode="&#x26;" horiz-adv-x="711" 
d="M412 187l-137 146q-110 -54 -110 -136q0 -40 36 -71q36 -30 77 -30q30 0 56 16q14 8 24 16t17 15zM244 565q0 -41 56 -95q17 9 28.5 16.5t25.5 19.5q30 24 30 56q0 28 -20 46t-50 18t-50 -18t-20 -43zM588 0l-100 104q-93 -115 -206 -115q-99 0 -163 64t-64 156
q0 35 9.5 63t28 53t45.5 47t63 45q-65 71 -65 139q0 75 52 121q53 47 127 47q72 0 125 -48q54 -47 54 -121q0 -91 -118 -164l103 -111l62 98h129l-114 -182l182 -196h-150z" />
    <glyph glyph-name="quotesingle" unicode="'" horiz-adv-x="218" 
d="M50 712h114l-20 -290h-74z" />
    <glyph glyph-name="parenleft" unicode="(" horiz-adv-x="318" 
d="M289 724q-20 -31 -36 -59t-29 -53q-24 -48 -49 -141q-11 -46 -17 -93t-6 -97t6 -97t17 -93q25 -93 49 -141q13 -25 29 -53t36 -59h-103q-17 29 -29.5 51.5t-20.5 37.5q-8 14 -18 36.5t-23 53.5q-25 61 -36.5 125t-11.5 139t11.5 139t36.5 124q13 31 23.5 53.5t18.5 38.5
t20 37.5t29 50.5h103z" />
    <glyph glyph-name="parenright" unicode=")" horiz-adv-x="318" 
d="M132 724q17 -29 29 -50.5t20 -37.5t18 -38.5t23 -53.5q26 -60 37.5 -124t11.5 -139t-11.5 -139t-37.5 -125q-13 -31 -23 -53.5t-18 -36.5l-20 -37.5t-29 -51.5h-103q20 31 36 59t29 53q25 49 48 141q24 91 24 190q0 98 -24 190q-23 91 -48 141q-13 25 -29 53t-36 59h103z
" />
    <glyph glyph-name="asterisk" unicode="*" horiz-adv-x="462" 
d="M184 712h95l-11 -124l115 49l29 -91l-120 -30l80 -92l-77 -56l-64 104l-64 -104l-77 56l80 92l-120 30l30 91l113 -49z" />
    <glyph glyph-name="plus" unicode="+" 
d="M232 483h103v-190h190v-103h-190v-190h-103v190h-190v103h190v190z" />
    <glyph glyph-name="comma" unicode="," horiz-adv-x="290" 
d="M17 -188q52 149 71 281l122 12q-54 -183 -126 -305z" />
    <glyph glyph-name="hyphen" unicode="-" horiz-adv-x="323" 
d="M35 350h252v-98h-252v98z" />
    <glyph glyph-name="period" unicode="." horiz-adv-x="290" 
d="M212 61q0 -28 -19.5 -47t-47.5 -19t-47.5 19t-19.5 47q0 29 19.5 49t47.5 20t47.5 -20t19.5 -49z" />
    <glyph glyph-name="slash" unicode="/" horiz-adv-x="445" 
d="M335 735l95 -35l-319 -876l-94 34z" />
    <glyph glyph-name="zero" unicode="0" 
d="M285 724q243 0 243 -333v-68q0 -334 -243 -334q-245 0 -245 334v68q0 333 245 333zM285 95q64 0 97.5 53.5t33.5 181.5v53q0 128 -33.5 181.5t-97.5 53.5q-33 0 -57.5 -12.5t-41.5 -40.5t-25.5 -73t-8.5 -109v-53q0 -64 8.5 -109t25.5 -73t41.5 -40.5t57.5 -12.5z" />
    <glyph glyph-name="one" unicode="1" 
d="M310 712h96v-712h-110v560l-188 -156v139z" />
    <glyph glyph-name="two" unicode="2" 
d="M499 106v-106h-436v94l250 277q73 79 73 125q0 50 -35 85q-35 36 -85 36q-49 0 -91 -21.5t-90 -69.5v135q81 63 179 63q96 0 164 -67q70 -66 70 -160q0 -48 -24 -94.5t-78 -103.5l-176 -193h279z" />
    <glyph glyph-name="three" unicode="3" 
d="M165 329v98h57q60 0 95.5 26t35.5 66q0 45 -30.5 71.5t-76.5 26.5q-79 0 -161 -41v118q76 30 161 30q94 0 156 -59q63 -59 63 -149q0 -88 -74 -135q46 -26 71 -68.5t25 -93.5q0 -98 -69 -164t-173 -66q-87 0 -168 29v117q75 -39 168 -39q57 0 93.5 33t36.5 87t-43 83.5
t-110 29.5h-57z" />
    <glyph glyph-name="four" unicode="4" 
d="M462 0h-110v141h-331v103l338 468h103v-466h78v-105h-78v-141zM352 246v153q0 45 3 132l-7 1q-20 -33 -37 -59.5t-31 -46.5l-131 -180h203z" />
    <glyph glyph-name="five" unicode="5" 
d="M238 -11q-96 0 -180 34v119q86 -47 180 -47q58 0 98 40q42 40 42 98q0 61 -35.5 99.5t-95.5 38.5q-75 0 -136 -43l-55 27l49 357h354v-106h-260l-19 -138q33 9 68 9q106 0 173 -70q69 -71 69 -173q0 -99 -75 -172q-73 -73 -177 -73z" />
    <glyph glyph-name="six" unicode="6" 
d="M320 712h131l-174 -244q15 5 35 5q93 0 156 -72q63 -71 63 -166q0 -100 -70 -173q-69 -73 -176 -73q-104 0 -177 71q-71 73 -71 173q0 84 80 197zM284 94q57 0 95 39q39 39 39 96q0 58 -39 99q-37 40 -93 40t-96 -40q-41 -39 -41 -97q0 -52 38 -95q37 -42 97 -42z" />
    <glyph glyph-name="seven" unicode="7" 
d="M387 606h-324v106h476v-58l-351 -654h-125z" />
    <glyph glyph-name="eight" unicode="8" 
d="M52 212q0 50 28 100q28 51 76 74q-18 10 -32.5 26t-25 35t-16 39t-5.5 38q0 88 61 143q61 57 147 57q87 0 146 -58q60 -57 60 -143q0 -33 -22 -74q-21 -42 -57 -63q48 -22 76 -74q28 -50 28 -100q0 -95 -67 -159t-164 -64q-99 0 -166 63q-67 64 -67 160zM164 214
q0 -52 37 -86t85 -34q45 0 82 34t37 84q0 53 -37 86q-37 34 -84 34q-49 0 -84 -34q-36 -35 -36 -84zM188 525q0 -35 29 -64q28 -28 68 -28q38 0 66 28q29 29 29 64q0 19 -7.5 36.5t-20.5 31t-30.5 21t-36.5 7.5q-40 0 -69 -29q-28 -28 -28 -67z" />
    <glyph glyph-name="nine" unicode="9" 
d="M247 0h-131l175 243q-22 -5 -37 -5q-90 0 -154 72q-63 73 -63 168q0 99 69 173q70 73 177 73q105 0 176 -72q71 -71 71 -172q0 -89 -80 -199zM284 618q-57 0 -96 -39q-38 -40 -38 -96q0 -59 38 -100q39 -40 94 -40q54 0 94 40q41 41 41 98q0 52 -38 95q-38 42 -95 42z
" />
    <glyph glyph-name="colon" unicode=":" horiz-adv-x="290" 
d="M212 61q0 -28 -19.5 -47t-47.5 -19t-47.5 19t-19.5 47q0 29 19.5 49t47.5 20t47.5 -20t19.5 -49zM212 468q0 -28 -19.5 -47t-47.5 -19t-47.5 19t-19.5 47q0 29 19.5 49t47.5 20t47.5 -20t19.5 -49z" />
    <glyph glyph-name="semicolon" unicode=";" horiz-adv-x="290" 
d="M212 468q0 -28 -19.5 -47t-47.5 -19t-47.5 19t-19.5 47q0 29 19.5 49t47.5 20t47.5 -20t19.5 -49zM17 -188q52 149 71 281l122 12q-54 -183 -126 -305z" />
    <glyph glyph-name="less" unicode="&#x3c;" 
d="M526 490v-111l-327 -138l327 -137v-111l-485 207v83z" />
    <glyph glyph-name="equal" unicode="=" 
d="M42 384h483v-103h-483v103zM42 202h483v-105h-483v105z" />
    <glyph glyph-name="greater" unicode="&#x3e;" 
d="M41 379v111l485 -208v-82l-485 -207v110l327 138z" />
    <glyph glyph-name="question" unicode="?" horiz-adv-x="496" 
d="M243 724q84 0 140 -54q56 -53 56 -138q0 -42 -18 -77t-45 -60q-19 -18 -39.5 -34.5t-37 -33.5t-27 -34t-10.5 -35v-67h-106v81q0 29 13 54t32.5 47t42.5 41.5t42.5 39t32.5 39t13 41.5q0 42 -25.5 64.5t-65.5 22.5q-63 0 -113 -44v122q54 25 115 25zM277 61
q0 -28 -19.5 -47t-47.5 -19t-47.5 19t-19.5 47q0 29 19.5 49t47.5 20t47.5 -20t19.5 -49z" />
    <glyph glyph-name="at" unicode="@" horiz-adv-x="1012" 
d="M538 -227q-151 0 -264 68q-114 69 -169 176t-55 236q0 207 136 339t340 132q120 0 216 -46q99 -47 159 -136t60 -205q0 -148 -77 -249q-77 -99 -169 -99q-73 0 -90 80q-72 -80 -168 -80q-95 0 -149 67q-53 68 -53 166q0 112 67 194t177 82q83 0 155 -79l9 67h93l-49 -341
q-3 -27 -3 -32q0 -35 26 -35q49 0 93 72q44 73 44 167q0 158 -94 237q-93 81 -249 81q-163 0 -272 -109q-108 -110 -108 -273q0 -76 25.5 -145.5t73.5 -124.5t124.5 -88t170.5 -33v-89zM639 328q-64 76 -140 76q-69 0 -108 -48.5t-39 -129.5q0 -64 32 -105.5t87 -41.5
q62 0 106 54q44 56 51 118z" />
    <glyph glyph-name="A" unicode="A" horiz-adv-x="724" 
d="M328 712h67l317 -712h-120l-69 158h-323l-68 -158h-121zM476 265l-79 182q-9 22 -17 43.5t-15 43.5h-6q-2 -7 -15 -38l-19 -49l-79 -182h230z" />
    <glyph glyph-name="B" unicode="B" horiz-adv-x="587" 
d="M187 606v-193h103q52 0 82.5 24.5t30.5 72.5q0 45 -32.5 70.5t-83.5 25.5h-100zM187 308v-201h115q57 0 91 25.5t34 76.5q0 48 -35 73.5t-95 25.5h-110zM78 712h204q112 0 171 -59t59 -143q0 -45 -20 -81.5t-55 -58.5q46 -22 73.5 -67t27.5 -96q0 -97 -66 -152
q-65 -55 -165 -55h-229v712z" />
    <glyph glyph-name="C" unicode="C" horiz-adv-x="624" 
d="M574 33q-90 -44 -168 -44q-149 0 -256 107q-105 106 -105 260t105 261q107 107 256 107q82 0 168 -44v-127q-80 64 -168 64q-109 0 -179 -76q-69 -77 -69 -185q0 -109 69 -185q70 -75 179 -75q83 0 168 61v-124z" />
    <glyph glyph-name="D" unicode="D" horiz-adv-x="694" 
d="M262 712q97 0 173 -30.5t121 -81.5q46 -51 69.5 -113t23.5 -131q0 -139 -93 -244q-45 -51 -121 -81.5t-173 -30.5h-184v712h184zM243 107q140 0 217 63t77 186t-77 186.5t-217 63.5h-55v-499h55z" />
    <glyph glyph-name="E" unicode="E" horiz-adv-x="549" 
d="M78 0v712h407v-106h-297v-178h288v-106h-288v-215h297v-107h-407z" />
    <glyph glyph-name="F" unicode="F" horiz-adv-x="500" 
d="M454 606h-266v-179h256v-106h-256v-321h-110v712h376v-106z" />
    <glyph glyph-name="G" unicode="G" horiz-adv-x="706" 
d="M353 382h280v-350q-117 -38 -227 -38q-150 0 -256 104q-105 103 -105 258q0 154 105 261q107 107 256 107q95 0 192 -49v-122q-14 10 -26.5 17t-22.5 12q-10 6 -26 12t-35 11t-40 8.5t-42 3.5q-109 0 -179 -76t-70 -185t70 -182t179 -73q30 0 59 3t57 10v160h-169v108z
" />
    <glyph glyph-name="H" unicode="H" horiz-adv-x="674" 
d="M487 428v284h110v-712h-110v321h-299v-321h-110v712h110v-284h299z" />
    <glyph glyph-name="I" unicode="I" horiz-adv-x="265" 
d="M188 712v-712h-110v712h110z" />
    <glyph glyph-name="J" unicode="J" horiz-adv-x="420" 
d="M232 712h110v-491q0 -110 -63 -171q-61 -61 -157 -61q-43 0 -79 18v121q35 -28 82 -28q46 0 76.5 31.5t30.5 91.5v489z" />
    <glyph glyph-name="K" unicode="K" horiz-adv-x="614" 
d="M236 264q-24 28 -46 62h-5q1 -14 1.5 -30.5t0.5 -34.5v-261h-109v712h109v-225q0 -19 -0.5 -35.5t-1.5 -30.5h5q11 17 22 32.5t24 29.5l204 229h143l-299 -336l312 -376h-141z" />
    <glyph glyph-name="L" unicode="L" horiz-adv-x="453" 
d="M188 712v-605h239v-107h-349v712h110z" />
    <glyph glyph-name="M" unicode="M" horiz-adv-x="825" 
d="M413 452l260 260h75v-712h-109v406q0 42 1 72.5t3 51.5h-7q-18 -23 -35 -43t-33 -36l-155 -154l-154 154q-39 39 -69 79h-6q2 -42 3 -73t1 -51v-406h-110v712h76z" />
    <glyph glyph-name="N" unicode="N" horiz-adv-x="712" 
d="M635 712v-712h-76l-306 418q-27 36 -63 95h-6q2 -36 3 -60.5t1 -38.5v-414h-110v712h91l295 -404q16 -22 31.5 -45t29.5 -47h5q-2 23 -3.5 48.5t-1.5 54.5v393h110z" />
    <glyph glyph-name="O" unicode="O" horiz-adv-x="811" 
d="M405 724q151 0 256 -107t105 -261q0 -155 -105 -261t-256 -106q-150 0 -255 107q-105 106 -105 260q0 153 105 260q105 108 255 108zM405 96q108 0 179 75q70 76 70 185t-70 185t-179 76q-108 0 -178 -76t-70 -185t70 -185q70 -75 178 -75z" />
    <glyph glyph-name="P" unicode="P" horiz-adv-x="571" 
d="M187 606v-252h91q69 0 109.5 35t40.5 93q0 57 -42 90.5t-109 33.5h-90zM78 712h201q123 0 192 -66q69 -65 69 -164q0 -117 -77 -176t-194 -59h-82v-247h-109v712z" />
    <glyph glyph-name="Q" unicode="Q" horiz-adv-x="811" 
d="M798 106v-106h-393q-150 0 -255 105q-105 106 -105 257t105 256q105 106 255 106q151 0 256 -106q105 -105 105 -256q0 -75 -33 -141.5t-94 -114.5l2 -5q4 0 14 1t21.5 1.5t23.5 1.5t21 1h77zM405 106q108 0 179 74q70 74 70 182t-70 181q-71 75 -179 75t-178 -75
q-70 -73 -70 -181t70 -182q71 -74 178 -74z" />
    <glyph glyph-name="R" unicode="R" horiz-adv-x="597" 
d="M78 712h201q119 0 181 -61q64 -61 64 -154q0 -75 -43 -130.5t-118 -76.5l214 -290h-134l-201 280h-55v-280h-109v712zM187 606v-221h91q61 0 97.5 30.5t36.5 81.5t-37 80t-98 29h-90z" />
    <glyph glyph-name="S" unicode="S" horiz-adv-x="533" 
d="M168 532q0 -29 23 -49t57.5 -38t75 -37t75 -45t57.5 -62.5t23 -89.5q0 -96 -66 -159q-65 -63 -166 -63q-108 0 -184 66v131q29 -34 81 -62q53 -29 107 -29q24 0 45 7.5t37 21t25 32t9 41.5q0 36 -32 64t-78 49q-33 15 -68.5 33t-65.5 43t-49 59t-18 79q0 90 61 145
t153 55q99 0 175 -56v-128q-86 77 -180 77q-19 0 -36.5 -6t-31 -17.5t-21.5 -27t-8 -34.5z" />
    <glyph glyph-name="T" unicode="T" horiz-adv-x="487" 
d="M299 605v-605h-110v605h-173v107h455v-107h-172z" />
    <glyph glyph-name="U" unicode="U" horiz-adv-x="661" 
d="M585 257q0 -122 -75 -195q-73 -73 -179 -73q-108 0 -181 73q-74 74 -74 195v455h109v-448q0 -39 11 -70t30.5 -52.5t46.5 -32.5t58 -11q30 0 56.5 11t46 32.5t30.5 52.5t11 70v448h110v-455z" />
    <glyph glyph-name="V" unicode="V" horiz-adv-x="678" 
d="M12 712h120l163 -408q5 -13 15 -43.5t25 -79.5h6q15 48 25.5 78t15.5 44l164 409h120l-290 -712h-74z" />
    <glyph glyph-name="W" unicode="W" horiz-adv-x="892" 
d="M31 712h113l66 -390q11 -60 15 -133h7q13 45 24 77.5t20 54.5l146 361h49l146 -361q5 -12 11 -30.5t14 -43.5l18 -58h7q6 84 15 133l67 390h112l-122 -712h-109l-137 336q-16 38 -26.5 67t-16.5 51h-7q-5 -17 -15.5 -46t-27.5 -71l-139 -337h-108z" />
    <glyph glyph-name="X" unicode="X" horiz-adv-x="631" 
d="M31 712h134l107 -168q11 -17 21 -35.5t20 -40.5h6q11 23 21 41.5t18 31.5l108 171h134l-219 -341l239 -371h-133l-128 201q-4 5 -14 23.5t-27 50.5h-5q-12 -24 -22.5 -42.5t-18.5 -32.5l-128 -200h-132l238 371z" />
    <glyph glyph-name="Y" unicode="Y" horiz-adv-x="612" 
d="M11 712h125l124 -214q8 -14 19 -35.5t24 -49.5h6q13 36 42 84l125 215h124l-239 -418v-294h-110v294z" />
    <glyph glyph-name="Z" unicode="Z" horiz-adv-x="573" 
d="M51 712h499v-72l-322 -459q-15 -21 -28.5 -38.5t-25.5 -31.5v-8q30 2 51.5 3t34.5 1h292v-107h-531v72l322 458q11 16 25 34t31 38v7q-42 -3 -93 -3h-255v106z" />
    <glyph glyph-name="bracketleft" unicode="[" horiz-adv-x="316" 
d="M289 652h-99v-736h99v-102h-207v940h207v-102z" />
    <glyph glyph-name="backslash" unicode="\" horiz-adv-x="445" 
d="M112 735l318 -877l-94 -34l-319 876z" />
    <glyph glyph-name="bracketright" unicode="]" horiz-adv-x="316" 
d="M126 652h-99v102h207v-940h-207v102h99v736z" />
    <glyph glyph-name="asciicircum" unicode="^" horiz-adv-x="571" 
d="M333 724l202 -422h-111l-139 293l-138 -293h-111l200 422h97z" />
    <glyph glyph-name="underscore" unicode="_" horiz-adv-x="489" 
d="M482 -79v-83h-475v83h475z" />
    <glyph glyph-name="grave" unicode="`" horiz-adv-x="407" 
d="M324 595l-38 -56l-207 134l47 70z" />
    <glyph glyph-name="a" unicode="a" horiz-adv-x="559" 
d="M380 229q-86 16 -121 16q-110 0 -110 -85q0 -40 22.5 -59.5t73.5 -19.5q30 0 55 9.5t42.5 26.5t27.5 39.5t10 48.5v24zM255 542q99 0 166 -53q66 -53 66 -141v-348h-94l-9 66q-59 -77 -159 -77q-183 0 -183 168q0 73 57 121t158 48q41 0 123 -20v43q0 40 -39 69
q-40 29 -86 29q-76 0 -149 -38v102q72 31 149 31z" />
    <glyph glyph-name="b" unicode="b" horiz-adv-x="649" 
d="M607 264q0 -113 -69 -194q-68 -81 -185 -81q-51 0 -97.5 27t-79.5 63l-6 -79h-98v764h107v-301q73 79 174 79q119 0 186 -82q68 -82 68 -196zM497 264q0 39 -11 72t-31 56t-48.5 36t-64.5 13q-73 0 -118 -53t-45 -126v-78q10 -17 29 -35q17 -17 56 -39q38 -20 78 -20
q36 0 64.5 12.5t48.5 35.5t31 55t11 71z" />
    <glyph glyph-name="c" unicode="c" horiz-adv-x="481" 
d="M307 90q70 0 126 51v-120q-59 -32 -126 -32q-114 0 -191 80q-75 81 -75 195q0 120 77 199q76 79 189 79q65 0 125 -33v-123q-58 55 -125 55q-64 0 -111 -50q-45 -50 -45 -127q0 -72 45 -123t111 -51z" />
    <glyph glyph-name="d" unicode="d" horiz-adv-x="648" 
d="M151 265q0 -39 11 -71t31 -55.5t48.5 -36t64.5 -12.5q73 0 118 52t45 126v79q-70 94 -163 94q-72 0 -113.5 -48.5t-41.5 -127.5zM296 542q96 0 173 -83v305h107v-764h-97l-7 81q-71 -92 -177 -92q-117 0 -186 81q-68 82 -68 195q0 114 69 195q69 82 186 82z" />
    <glyph glyph-name="e" unicode="e" horiz-adv-x="564" 
d="M420 326q-4 60 -41 93t-89 33q-54 0 -89 -34t-47 -92h266zM469 17q-75 -28 -161 -28q-117 0 -192 78t-75 207q0 116 68 192q67 76 181 76q53 0 96 -18t73.5 -53t47 -87t16.5 -121v-18h-371q9 -75 50 -117.5t107 -42.5q89 0 160 40v-108z" />
    <glyph glyph-name="f" unicode="f" horiz-adv-x="342" 
d="M13 530h72v59q0 77 55 131q55 55 133 55q28 0 63 -7v-105q-33 11 -63 11q-17 0 -31.5 -6.5t-25.5 -18t-17.5 -27t-6.5 -33.5v-59h137v-88h-137v-442h-107v442h-72v88z" />
    <glyph glyph-name="g" unicode="g" horiz-adv-x="633" 
d="M296 443q-69 0 -107 -46t-38 -121t38.5 -121.5t107.5 -46.5q70 0 114 50q43 49 43 122v71q-65 92 -158 92zM464 530h97v-499q0 -108 -75 -181q-74 -75 -184 -75q-103 0 -195 40v111q94 -51 195 -51q57 0 104 41q48 40 48 105v74q-16 -24 -36.5 -40t-42.5 -26.5t-45 -15
t-44 -4.5q-113 0 -179 79t-66 188q0 108 65 187q66 79 179 79q93 0 172 -88z" />
    <glyph glyph-name="h" unicode="h" horiz-adv-x="602" 
d="M72 764h107v-304q64 82 153 82q102 0 150.5 -60.5t48.5 -174.5v-307h-107v295q0 146 -119 146q-16 0 -32.5 -5.5t-31.5 -14t-27 -19t-20 -20.5l-15 -20v-362h-107v764z" />
    <glyph glyph-name="i" unicode="i" horiz-adv-x="251" 
d="M179 0h-107v530h107v-530zM125 580q-27 0 -47 19.5t-20 47.5q0 27 20 46.5t47 19.5q28 0 47.5 -19t19.5 -47t-19.5 -47.5t-47.5 -19.5z" />
    <glyph glyph-name="j" unicode="j" horiz-adv-x="250" 
d="M-65 -117q20 -7 51 -7q40 0 63 29t23 68v557h107v-553q0 -86 -49 -144q-48 -58 -140 -58q-28 0 -55 7v101zM125 580q-27 0 -47 19.5t-20 47.5q0 27 20 46.5t47 19.5q28 0 47.5 -19t19.5 -47t-19.5 -47.5t-47.5 -19.5z" />
    <glyph glyph-name="k" unicode="k" horiz-adv-x="528" 
d="M216 197q-10 11 -18 22t-17 24h-3q1 -11 1 -23v-25v-195h-107v764h107v-402v-26t-1 -23h3q9 13 17 24t18 22l151 171h132l-221 -251l231 -279h-131z" />
    <glyph glyph-name="l" unicode="l" horiz-adv-x="251" 
d="M72 0v764h107v-764h-107z" />
    <glyph glyph-name="m" unicode="m" horiz-adv-x="888" 
d="M625 542q88 0 139.5 -58t51.5 -170v-314h-107v300q0 141 -101 141q-49 0 -80 -37t-31 -73v-331h-107v300q0 141 -100 141q-45 0 -77 -35q-31 -34 -34 -57v-349h-107v530h98l5 -72q32 41 63 62.5t78 21.5q46 0 80 -19.5t63 -68.5q63 88 166 88z" />
    <glyph glyph-name="n" unicode="n" horiz-adv-x="603" 
d="M72 530h98l6 -70q34 38 69 60t86 22q200 0 200 -235v-307h-107v295q0 77 -32.5 111.5t-85.5 34.5q-17 0 -33.5 -5.5t-31.5 -14t-27 -19t-20 -20.5l-15 -20v-362h-107v530z" />
    <glyph glyph-name="o" unicode="o" horiz-adv-x="617" 
d="M42 262q0 121 77 201q76 79 189 79q114 0 191 -81q77 -82 77 -197q0 -113 -77 -195q-77 -80 -191 -80q-115 0 -191 79q-75 79 -75 194zM152 263q0 -74 44 -124q45 -49 113 -49q69 0 112 49q45 49 45 126q0 76 -47 126t-110 50q-65 0 -112 -50q-45 -50 -45 -128z" />
    <glyph glyph-name="p" unicode="p" horiz-adv-x="649" 
d="M607 265q0 -113 -69 -195q-68 -81 -184 -81q-84 0 -175 71v-276h-107v746h97l8 -80q74 92 177 92q117 0 184 -82q69 -81 69 -195zM497 265q0 39 -11 71.5t-31 55.5t-48.5 36t-64.5 13q-73 0 -118 -53t-45 -126v-78q6 -8 13.5 -17t15.5 -19q18 -19 56 -38q38 -20 78 -20
q72 0 113.5 48t41.5 127z" />
    <glyph glyph-name="q" unicode="q" horiz-adv-x="649" 
d="M295 542q51 0 98 -26.5t79 -62.5l7 77h98v-746h-107v283q-74 -78 -175 -78q-118 0 -185 81q-68 83 -68 196t68 195q67 81 185 81zM152 266q0 -79 41 -127.5t113 -48.5q73 0 118 52q46 52 46 127v77q-11 16 -30 36q-9 9 -23.5 19.5t-32.5 19.5t-38 14.5t-40 5.5
q-36 0 -64.5 -12.5t-48.5 -36t-30.5 -55.5t-10.5 -71z" />
    <glyph glyph-name="r" unicode="r" horiz-adv-x="371" 
d="M177 452q24 43 66.5 63.5t88.5 20.5q16 0 21 -1v-104q-5 0 -13.5 0.5t-11.5 0.5q-86 0 -117 -46q-32 -46 -32 -118v-268h-107v530h96z" />
    <glyph glyph-name="s" unicode="s" horiz-adv-x="437" 
d="M387 150q0 -71 -51 -116q-50 -45 -125 -45q-79 0 -149 30v107q70 -43 141 -43q31 0 52.5 15t21.5 40q0 23 -23 44t-56 40q-23 14 -48.5 30t-46.5 35.5t-35 44t-14 54.5q0 67 50 111q49 45 124 45q63 0 135 -29v-109q-74 44 -129 44q-25 0 -47.5 -14t-22.5 -38
q0 -21 23 -42t56 -40q24 -13 49.5 -29t46.5 -36t34.5 -44.5t13.5 -54.5z" />
    <glyph glyph-name="t" unicode="t" horiz-adv-x="352" 
d="M333 1q-30 -8 -55 -8q-47 0 -82.5 15t-59.5 41t-36 62.5t-12 80.5v250h-70v88h70v106l107 44v-150h138v-88h-138v-250q0 -39 22.5 -68.5t64.5 -29.5q30 0 51 7v-100z" />
    <glyph glyph-name="u" unicode="u" horiz-adv-x="602" 
d="M300 -11q-53 0 -95.5 16t-72 46.5t-45.5 74t-16 97.5v307h107v-294q0 -76 34 -111t88 -35q55 0 89 34.5t34 111.5v294h107v-307q0 -54 -16 -97.5t-45.5 -74t-72 -46.5t-96.5 -16z" />
    <glyph glyph-name="v" unicode="v" horiz-adv-x="571" 
d="M436 530h118l-236 -530h-66l-236 530h119l109 -262q7 -17 16.5 -44t21.5 -63h6q5 18 14.5 44.5t23.5 61.5z" />
    <glyph glyph-name="w" unicode="w" horiz-adv-x="807" 
d="M671 530h110l-144 -530h-76l-116 236q-17 36 -40 98h-4q-2 -4 -6 -15.5t-10 -26t-12.5 -30t-12.5 -26.5l-116 -236h-75l-145 530h111l66 -252q13 -47 22 -119h6q17 61 45 118l106 227h45l106 -227q26 -56 46 -118h5q1 2 2.5 14t5.5 35q7 45 15 70z" />
    <glyph glyph-name="x" unicode="x" horiz-adv-x="570" 
d="M425 0l-97 134q-10 14 -20 31t-20 39h-4q-1 -2 -5 -9.5t-11 -20.5t-13 -23t-11 -17l-97 -134h-129l206 276l-186 254h128l78 -111q22 -32 39 -68h5q8 17 17.5 34t22.5 34l78 111h128l-185 -254l205 -276h-129z" />
    <glyph glyph-name="y" unicode="y" horiz-adv-x="576" 
d="M444 530h117l-351 -746h-114l136 279l-216 467h118l111 -244q11 -24 41 -106h6q5 17 15.5 44t26.5 62z" />
    <glyph glyph-name="z" unicode="z" horiz-adv-x="508" 
d="M244 159q-18 -23 -31.5 -40t-22.5 -27v-6q14 1 36 1.5t53 0.5h200v-88h-451v44l244 333q15 20 27.5 36t22.5 27v5q-51 -3 -91 -3h-180v88h428v-46z" />
    <glyph glyph-name="braceleft" unicode="{" horiz-adv-x="316" 
d="M284 754v-98h-65q-19 0 -33 -15.5t-14 -42.5q0 -30 27 -97q28 -66 28 -95q0 -70 -53 -121q53 -50 53 -121q0 -29 -28 -95q-27 -68 -27 -97q0 -26 14 -41.5t33 -15.5h65v-99h-65q-65 0 -110 46q-44 47 -44 110q0 32 27 100q27 69 27 92q0 35 -24.5 53.5t-62.5 18.5v98
q38 0 62.5 19t24.5 53q0 22 -27 91t-27 101q0 64 44 110q43 46 110 46h65z" />
    <glyph glyph-name="bar" unicode="|" horiz-adv-x="261" 
d="M177 764v-980h-93v980h93z" />
    <glyph glyph-name="braceright" unicode="}" horiz-adv-x="316" 
d="M32 754h65q67 0 110 -46q44 -46 44 -110q0 -32 -27 -101t-27 -91q0 -34 24.5 -53t62.5 -19v-98q-38 0 -62.5 -18.5t-24.5 -53.5q0 -23 27 -92q27 -68 27 -100q0 -64 -45 -110q-43 -46 -109 -46h-65v99h65q19 0 33 15.5t14 41.5q0 31 -28 97q-27 67 -27 95q0 71 53 121
q-53 51 -53 121q0 27 27 95q28 66 28 97q0 27 -14 42.5t-33 15.5h-65v98z" />
    <glyph glyph-name="asciitilde" unicode="~" horiz-adv-x="582" 
d="M33 165q0 85 35 132t101 47q31 1 67 -13t70 -31t61.5 -31.5t41.5 -12.5q47 0 47 83h93q0 -85 -35 -132t-101 -47q-31 -2 -67.5 12.5t-70 31.5t-61.5 31t-41 13q-47 0 -47 -83h-93z" />
    <glyph glyph-name="uni00A0" unicode="&#xa0;" horiz-adv-x="220" 
 />
    <glyph glyph-name="exclamdown" unicode="&#xa1;" horiz-adv-x="272" 
d="M189 288v-504h-107v504h107zM136 364q-28 0 -47.5 20t-19.5 48t19.5 47t47.5 19q27 0 47 -19t20 -47t-20 -48t-47 -20z" />
    <glyph glyph-name="cent" unicode="&#xa2;" horiz-adv-x="488" 
d="M436 20q-46 -24 -101 -30v-75h-46v75q-108 9 -176 88q-68 80 -68 186q0 113 69 190q72 78 175 88v66h46v-66q56 -6 101 -33v-121q-43 40 -101 54v-354q59 14 101 50v-118zM154 264q0 -63 38 -113t97 -62v352q-58 -12 -97 -61q-38 -49 -38 -116z" />
    <glyph glyph-name="sterling" unicode="&#xa3;" horiz-adv-x="560" 
d="M212 249v-146h312v-103h-490v103h72v146h-72v69h72v174q0 92 65 162q66 70 161 70q62 0 116 -30v-128q-51 54 -116 54q-51 0 -85 -37q-35 -37 -35 -88v-177h236v-69h-236z" />
    <glyph glyph-name="currency" unicode="&#xa4;" 
d="M539 105l-70 -70l-66 64q-56 -36 -119 -36q-62 0 -119 36q-2 -2 -10.5 -11t-24.5 -23l-31 -30l-69 70l63 65q-33 52 -33 116q0 63 33 116l-63 65q3 2 35 35q16 17 24.5 26t9.5 10q21 -17 66 -65q56 35 119 35q66 0 119 -35l66 66l69 -72l-62 -65q16 -26 24.5 -55.5
t8.5 -60.5t-8.5 -60.5t-24.5 -55.5zM411 286q0 53 -37 89q-36 36 -90 36q-53 0 -90 -36t-37 -88q0 -53 37 -90t90 -37t90 37t37 89z" />
    <glyph glyph-name="yen" unicode="&#xa5;" horiz-adv-x="614" 
d="M425 405l-50 -87h183v-68h-196v-250h-110v250h-192v68h179l-51 87h-128v68h91l-139 239h125l170 -290l171 290h125l-140 -239h94v-68h-132z" />
    <glyph glyph-name="brokenbar" unicode="&#xa6;" horiz-adv-x="261" 
d="M177 775v-356h-93v356h93zM177 276v-355h-93v355h93z" />
    <glyph glyph-name="section" unicode="&#xa7;" horiz-adv-x="530" 
d="M158 337q0 -28 35.5 -51t107.5 -54q70 42 70 90q0 28 -35 50.5t-107 53.5q-71 -39 -71 -89zM441 618q-76 52 -166 52q-29 1 -51 -10t-32.5 -27t-6 -35t28.5 -35q31 -21 74.5 -40t88.5 -42t75 -60.5t30 -85.5q0 -88 -95 -156q70 -52 70 -122q0 -71 -59 -121t-152 -50
q-79 0 -158 38v113q70 -47 165 -47q30 0 52 10t31.5 26t5 34t-28.5 35q-30 22 -73 41t-88 42t-75 60.5t-30 85.5q0 90 95 156q-69 52 -69 122q0 73 58 122q58 51 153 51q77 0 157 -39v-118z" />
    <glyph glyph-name="dieresis" unicode="&#xa8;" horiz-adv-x="401" 
d="M155 682q18 -17 18 -41t-18 -41q-17 -17 -41 -17t-41 17t-17 41t17 41q17 18 41 18t41 -18zM244 682q17 18 41 18t41 -18q18 -17 18 -41t-18 -41q-17 -17 -41 -17t-41 17t-17 41t17 41z" />
    <glyph glyph-name="copyright" unicode="&#xa9;" horiz-adv-x="825" 
d="M214 356q0 92 63 155q63 64 153 64q50 0 98 -24v-92q-50 39 -98 39q-60 0 -99 -42q-39 -41 -39 -100q0 -60 39 -100q39 -41 99 -41q49 0 98 37v-89q-54 -26 -98 -26q-89 0 -153 64q-63 64 -63 155zM413 724q152 0 259 -108q108 -108 108 -260t-108 -260
q-107 -107 -259 -107t-261 107q-107 109 -107 260t107 260q108 108 261 108zM413 59q123 0 210 87t87 210t-87 210t-210 87q-124 0 -211 -87q-86 -88 -86 -210t86 -210q87 -87 211 -87z" />
    <glyph glyph-name="ordfeminine" unicode="&#xaa;" horiz-adv-x="370" 
d="M320 397h-71l-5 32q-35 -39 -85 -39q-109 0 -109 104q0 46 34 73.5t95 27.5q31 0 61 -8v21q0 19 -19 33t-42 14q-45 0 -91 -25v76q46 18 91 18q30 0 56 -8.5t45 -24t29.5 -37.5t10.5 -49v-208zM182 541q-26 0 -39.5 -12.5t-13.5 -31.5q0 -39 45 -39q30 0 48 18t18 44v15
q-45 6 -58 6zM62 332h258v-73h-258v73z" />
    <glyph glyph-name="guillemotleft" unicode="&#xab;" horiz-adv-x="519" 
d="M283 458l-131 -193l131 -193h-116l-131 193l131 193h116zM483 458l-130 -193l130 -193h-116l-130 193l130 193h116z" />
    <glyph glyph-name="logicalnot" unicode="&#xac;" 
d="M421 99v173h-379v103h483v-276h-104z" />
    <glyph glyph-name="registered" unicode="&#xae;" horiz-adv-x="438" 
d="M88 646q54 54 131 54t131 -54t54 -131t-54 -131t-131 -54t-131 54t-54 131t54 131zM117 412q42 -42 102 -42t102 42q43 43 43 103t-43 102q-42 42 -102 42t-102 -42t-42 -102t42 -103zM308 407h-57l-47 80h-7v-80h-45v217h63q37 0 57 -19t20 -48q0 -46 -42 -64zM197 581
v-50h18q32 0 32 26q0 24 -32 24h-18z" />
    <glyph glyph-name="macron" unicode="&#xaf;" horiz-adv-x="402" 
d="M61 678h276v-72h-276v72z" />
    <glyph glyph-name="degree" unicode="&#xb0;" horiz-adv-x="393" 
d="M197 724q65 0 112 -48q48 -47 48 -113q0 -67 -48 -113q-47 -47 -112 -47q-67 0 -114 47q-46 46 -46 113t46 113q46 48 114 48zM110 564q0 -36 24.5 -61.5t62.5 -25.5q28 -2 49 14t30.5 39.5t5.5 49t-24 43.5q-19 21 -45 25t-50 -6t-39.5 -30.5t-13.5 -47.5z" />
    <glyph glyph-name="plusminus" unicode="&#xb1;" 
d="M42 -11v104h483v-104h-483zM232 546h103v-155h190v-103h-190v-151h-103v151h-190v103h190v155z" />
    <glyph glyph-name="twosuperior" unicode="&#xb2;" horiz-adv-x="299" 
d="M133 597h131v-67h-232v57l127 141q35 41 35 57q0 22 -15.5 38t-37.5 16q-24 0 -51 -18.5t-47 -47.5v98q46 35 97 35q50 0 87 -35q36 -35 36 -85q0 -47 -52 -105z" />
    <glyph glyph-name="threesuperior" unicode="&#xb3;" horiz-adv-x="280" 
d="M77 694v63h33q27 0 43 12t16 29q0 18 -14 30t-33 12q-47 0 -88 -26v75q43 17 88 17q51 0 84 -31.5t33 -79.5q0 -42 -30 -67q41 -29 41 -81q0 -54 -37 -88q-38 -35 -92 -35q-44 0 -91 16v72q40 -22 91 -22q26 0 42 14.5t16 38.5q0 23 -19 37t-50 14h-33z" />
    <glyph glyph-name="acute" unicode="&#xb4;" horiz-adv-x="406" 
d="M117 539l-38 56l198 148l47 -70z" />
    <glyph glyph-name="mu" unicode="&#xb5;" horiz-adv-x="610" 
d="M75 -216v746h108v-301q0 -75 33.5 -108.5t87.5 -33.5q32 0 63 19q16 10 27.5 19.5t19.5 19.5l15 19v366h106v-530h-97l-8 65q-70 -76 -146 -76q-55 0 -101 32v-237h-108z" />
    <glyph glyph-name="paragraph" unicode="&#xb6;" horiz-adv-x="593" 
d="M566 712v-89h-59v-747h-89v747h-73v-747h-88v426q-84 0 -144 54t-60 147q0 91 59 150q61 59 159 59h295z" />
    <glyph glyph-name="periodcentered" unicode="&#xb7;" horiz-adv-x="409" 
d="M201 309q29 0 48.5 -19.5t19.5 -48.5q0 -28 -19.5 -47t-48.5 -19q-28 0 -47.5 19t-19.5 47t19.5 48t47.5 20z" />
    <glyph glyph-name="cedilla" unicode="&#xb8;" horiz-adv-x="400" 
d="M154 -95l20 95h36v-53q34 -1 57.5 -25.5t23.5 -57.5q0 -39 -26.5 -64t-74.5 -25q-39 0 -65 19v57q29 -17 54 -17q43 0 43 36q0 35 -46 35h-22z" />
    <glyph glyph-name="onesuperior" unicode="&#xb9;" horiz-adv-x="260" 
d="M140 900h58v-370h-70v271q-3 -2 -15 -12.5t-34 -27.5l-44 -37v87z" />
    <glyph glyph-name="ordmasculine" unicode="&#xba;" horiz-adv-x="423" 
d="M211 724q70 0 116 -49t46 -119q0 -68 -47 -118q-47 -48 -115 -48q-69 0 -115 48q-46 47 -46 117q0 74 46 121q46 48 115 48zM212 649q-33 0 -56.5 -26t-23.5 -68q-2 -30 12.5 -51.5t36.5 -31.5t46 -6.5t41 24.5q23 26 23 66q0 20 -6.5 37t-17 29.5t-25 19.5t-30.5 7z
M62 332h299v-73h-299v73z" />
    <glyph glyph-name="guillemotright" unicode="&#xbb;" horiz-adv-x="518" 
d="M367 265l-131 193h115l131 -193l-131 -193h-115zM166 265l-130 193h114l131 -193l-131 -193h-114z" />
    <glyph glyph-name="onequarter" unicode="&#xbc;" horiz-adv-x="756" 
d="M681 159h46v-76h-46v-83h-79v83h-198v72l205 284h72v-280zM606 156v90q0 19 0.5 37t1.5 36h-6q-15 -26 -24.5 -41.5t-13.5 -20.5l-73 -101h115zM156 719h66v-439h-78v328l-112 -94v101zM215 -14l-63 34l357 699l64 -33z" />
    <glyph glyph-name="onehalf" unicode="&#xbd;" horiz-adv-x="819" 
d="M628 76h161v-76h-274v64l154 171q40 44 40 69q0 28 -19.5 47t-46.5 19q-30 0 -61.5 -21t-53.5 -55v111q53 41 114 41q59 0 103 -42q43 -40 43 -99q0 -56 -58 -118zM156 719h66v-439h-78v328l-112 -94v101zM215 -14l-63 34l357 699l64 -33z" />
    <glyph glyph-name="threequarters" unicode="&#xbe;" horiz-adv-x="801" 
d="M92 477v71h35q35 0 56 14t21 35q0 24 -17 38.5t-42 14.5q-56 0 -103 -31v87q52 20 103 20q58 0 98 -38q40 -37 40 -93q0 -51 -38 -80q51 -35 51 -97t-43 -104q-44 -41 -108 -41q-54 0 -108 19v83q50 -26 108 -26q31 0 51.5 18t20.5 48q0 27 -24.5 44.5t-61.5 17.5h-39z
M718 159h46v-76h-46v-83h-79v83h-198v72l205 284h72v-280zM643 156v90q0 19 0.5 37t1.5 36h-6q-15 -26 -24.5 -41.5t-13.5 -20.5l-73 -101h115zM258 -14l-63 34l357 699l64 -33z" />
    <glyph glyph-name="questiondown" unicode="&#xbf;" horiz-adv-x="479" 
d="M310 383q-19 -20 -47 -20t-48 20q-19 21 -19 49t19 47q20 19 48 19t47 -19q20 -19 20 -47t-20 -49zM231 -225q-86 0 -141 54q-56 53 -56 138q0 42 18.5 77t44.5 59q19 18 39 35t37 34t28 34t11 35v67h106v-81q0 -29 -13 -54t-32.5 -47t-42.5 -41.5t-42.5 -39t-32.5 -39
t-13 -41.5q0 -42 25.5 -64.5t64.5 -22.5q64 0 113 44v-122q-53 -25 -114 -25z" />
    <glyph glyph-name="Agrave" unicode="&#xc0;" horiz-adv-x="724" 
d="M328 712h67l317 -712h-120l-69 158h-323l-68 -158h-121zM476 265l-79 182q-9 22 -17 43.5t-15 43.5h-6q-2 -7 -15 -38l-19 -49l-79 -182h230zM487 828l-38 -56l-207 134l47 70z" />
    <glyph glyph-name="Aacute" unicode="&#xc1;" horiz-adv-x="724" 
d="M328 712h67l317 -712h-120l-69 158h-323l-68 -158h-121zM476 265l-79 182q-9 22 -17 43.5t-15 43.5h-6q-2 -7 -15 -38l-19 -49l-79 -182h230zM277 772l-38 56l198 148l47 -70z" />
    <glyph glyph-name="Acircumflex" unicode="&#xc2;" horiz-adv-x="724" 
d="M328 712h67l317 -712h-120l-69 158h-323l-68 -158h-121zM476 265l-79 182q-9 22 -17 43.5t-15 43.5h-6q-2 -7 -15 -38l-19 -49l-79 -182h230zM540 834l-38 -52l-139 86l-140 -86l-38 52l178 136z" />
    <glyph glyph-name="Atilde" unicode="&#xc3;" horiz-adv-x="724" 
d="M328 712h67l317 -712h-120l-69 158h-323l-68 -158h-121zM476 265l-79 182q-9 22 -17 43.5t-15 43.5h-6q-2 -7 -15 -38l-19 -49l-79 -182h230zM414 820q-22 0 -61 17t-57 17q-29 0 -46 -32l-57 38q40 67 110 67q20 0 62 -17q43 -17 56 -17q26 0 47 33l56 -38
q-42 -68 -110 -68z" />
    <glyph glyph-name="Adieresis" unicode="&#xc4;" horiz-adv-x="724" 
d="M328 712h67l317 -712h-120l-69 158h-323l-68 -158h-121zM476 265l-79 182q-9 22 -17 43.5t-15 43.5h-6q-2 -7 -15 -38l-19 -49l-79 -182h230zM318 915q18 -17 18 -41t-18 -41q-17 -17 -41 -17t-41 17t-17 41t17 41q17 18 41 18t41 -18zM407 915q17 18 41 18t41 -18
q18 -17 18 -41t-18 -41q-17 -17 -41 -17t-41 17t-17 41t17 41z" />
    <glyph glyph-name="Aring" unicode="&#xc5;" horiz-adv-x="724" 
d="M328 712h67l317 -712h-120l-69 158h-323l-68 -158h-121zM476 265l-79 182q-9 22 -17 43.5t-15 43.5h-6q-2 -7 -15 -38l-19 -49l-79 -182h230zM291 804q-15 15 -22 33t-7 37t7 37t22 33t33.5 22.5t37.5 7.5t37 -7.5t33 -22.5t22 -33t7 -37t-7 -37t-22 -33t-33 -22t-37 -7
t-37.5 7t-33.5 22zM330 906q-13 -13 -13 -32t13 -32t32 -13t32 13t13 32t-13 32t-32 13t-32 -13z" />
    <glyph glyph-name="AE" unicode="&#xc6;" horiz-adv-x="1019" 
d="M955 606h-297v-178h288v-106h-288v-215h297v-107h-408v158h-283l-121 -158h-137l550 712h399v-106zM345 265h202v279h-6q-17 -34 -34 -61.5t-34 -49.5z" />
    <glyph glyph-name="Ccedilla" unicode="&#xc7;" horiz-adv-x="624" 
d="M351 -95l18 86q-137 13 -231 118q-93 103 -93 247q0 154 105 261q107 107 256 107q82 0 168 -44v-127q-80 64 -168 64q-109 0 -179 -76q-69 -77 -69 -185q0 -109 69 -185q70 -75 179 -75q83 0 168 61v-124q-90 -44 -167 -44v-42q34 -1 57.5 -25.5t23.5 -57.5
q0 -39 -26.5 -64t-74.5 -25q-39 0 -65 19v57q29 -17 54 -17q43 0 43 36q0 35 -46 35h-22z" />
    <glyph glyph-name="Egrave" unicode="&#xc8;" horiz-adv-x="549" 
d="M78 0v712h407v-106h-297v-178h288v-106h-288v-215h297v-107h-407zM407 828l-38 -56l-207 134l47 70z" />
    <glyph glyph-name="Eacute" unicode="&#xc9;" horiz-adv-x="549" 
d="M78 0v712h407v-106h-297v-178h288v-106h-288v-215h297v-107h-407zM197 772l-38 56l198 148l47 -70z" />
    <glyph glyph-name="Ecircumflex" unicode="&#xca;" horiz-adv-x="549" 
d="M78 0v712h407v-106h-297v-178h288v-106h-288v-215h297v-107h-407zM458 834l-38 -52l-139 86l-140 -86l-38 52l178 136z" />
    <glyph glyph-name="Edieresis" unicode="&#xcb;" horiz-adv-x="549" 
d="M78 0v712h407v-106h-297v-178h288v-106h-288v-215h297v-107h-407zM236 915q18 -17 18 -41t-18 -41q-17 -17 -41 -17t-41 17t-17 41t17 41q17 18 41 18t41 -18zM325 915q17 18 41 18t41 -18q18 -17 18 -41t-18 -41q-17 -17 -41 -17t-41 17t-17 41t17 41z" />
    <glyph glyph-name="Igrave" unicode="&#xcc;" horiz-adv-x="265" 
d="M188 712v-712h-110v712h110zM257 828l-38 -56l-207 134l47 70z" />
    <glyph glyph-name="Iacute" unicode="&#xcd;" horiz-adv-x="265" 
d="M188 712v-712h-110v712h110zM48 772l-38 56l198 148l47 -70z" />
    <glyph glyph-name="Icircumflex" unicode="&#xce;" horiz-adv-x="265" 
d="M309 834l-38 -52l-139 86l-140 -86l-38 52l178 136zM188 712v-712h-110v712h110z" />
    <glyph glyph-name="Idieresis" unicode="&#xcf;" horiz-adv-x="265" 
d="M87 915q18 -17 18 -41t-18 -41q-17 -17 -41 -17t-41 17t-17 41t17 41q17 18 41 18t41 -18zM176 915q17 18 41 18t41 -18q18 -17 18 -41t-18 -41q-17 -17 -41 -17t-41 17t-17 41t17 41zM188 712v-712h-110v712h110z" />
    <glyph glyph-name="Eth" unicode="&#xd0;" horiz-adv-x="694" 
d="M262 712q97 0 173 -30.5t121 -81.5q46 -51 69.5 -113t23.5 -131q0 -139 -93 -244q-45 -51 -121 -81.5t-173 -30.5h-184v329h-69v52h69v331h184zM243 107q140 0 217 63t77 186t-77 186.5t-217 63.5h-55v-225h171v-52h-171v-222h55z" />
    <glyph glyph-name="Ntilde" unicode="&#xd1;" horiz-adv-x="712" 
d="M635 712v-712h-76l-306 418q-27 36 -63 95h-6q2 -36 3 -60.5t1 -38.5v-414h-110v712h91l295 -404q16 -22 31.5 -45t29.5 -47h5q-2 23 -3.5 48.5t-1.5 54.5v393h110zM408 820q-22 0 -61 17t-57 17q-29 0 -46 -32l-57 38q40 67 110 67q20 0 62 -17q43 -17 56 -17
q26 0 47 33l56 -38q-42 -68 -110 -68z" />
    <glyph glyph-name="Ograve" unicode="&#xd2;" horiz-adv-x="811" 
d="M405 724q151 0 256 -107t105 -261q0 -155 -105 -261t-256 -106q-150 0 -255 107q-105 106 -105 260q0 153 105 260q105 108 255 108zM405 96q108 0 179 75q70 76 70 185t-70 185t-179 76q-108 0 -178 -76t-70 -185t70 -185q70 -75 178 -75zM533 828l-38 -56l-207 134
l47 70z" />
    <glyph glyph-name="Oacute" unicode="&#xd3;" horiz-adv-x="811" 
d="M405 724q151 0 256 -107t105 -261q0 -155 -105 -261t-256 -106q-150 0 -255 107q-105 106 -105 260q0 153 105 260q105 108 255 108zM405 96q108 0 179 75q70 76 70 185t-70 185t-179 76q-108 0 -178 -76t-70 -185t70 -185q70 -75 178 -75zM325 772l-38 56l198 148
l47 -70z" />
    <glyph glyph-name="Ocircumflex" unicode="&#xd4;" horiz-adv-x="811" 
d="M405 724q151 0 256 -107t105 -261q0 -155 -105 -261t-256 -106q-150 0 -255 107q-105 106 -105 260q0 153 105 260q105 108 255 108zM405 96q108 0 179 75q70 76 70 185t-70 185t-179 76q-108 0 -178 -76t-70 -185t70 -185q70 -75 178 -75zM586 834l-38 -52l-139 86
l-140 -86l-38 52l178 136z" />
    <glyph glyph-name="Otilde" unicode="&#xd5;" horiz-adv-x="811" 
d="M405 724q151 0 256 -107t105 -261q0 -155 -105 -261t-256 -106q-150 0 -255 107q-105 106 -105 260q0 153 105 260q105 108 255 108zM405 96q108 0 179 75q70 76 70 185t-70 185t-179 76q-108 0 -178 -76t-70 -185t70 -185q70 -75 178 -75zM462 820q-22 0 -61 17t-57 17
q-29 0 -46 -32l-57 38q40 67 110 67q20 0 62 -17q43 -17 56 -17q26 0 47 33l56 -38q-42 -68 -110 -68z" />
    <glyph glyph-name="Odieresis" unicode="&#xd6;" horiz-adv-x="811" 
d="M405 724q151 0 256 -107t105 -261q0 -155 -105 -261t-256 -106q-150 0 -255 107q-105 106 -105 260q0 153 105 260q105 108 255 108zM405 96q108 0 179 75q70 76 70 185t-70 185t-179 76q-108 0 -178 -76t-70 -185t70 -185q70 -75 178 -75zM362 915q18 -17 18 -41
t-18 -41q-17 -17 -41 -17t-41 17t-17 41t17 41q17 18 41 18t41 -18zM451 915q17 18 41 18t41 -18q18 -17 18 -41t-18 -41q-17 -17 -41 -17t-41 17t-17 41t17 41z" />
    <glyph glyph-name="multiply" unicode="&#xd7;" 
d="M46 406l73 74l165 -165l165 165l73 -74l-164 -164l165 -166l-73 -73l-166 165l-166 -165l-73 73l166 166z" />
    <glyph glyph-name="Oslash" unicode="&#xd8;" horiz-adv-x="816" 
d="M757 733l-96 -115q107 -107 107 -262t-105 -261t-256 -106q-120 0 -215 71l-95 -114l-40 34l96 114q-106 106 -106 262q0 153 105 260q105 108 255 108q117 0 215 -71l96 114zM159 356q0 -105 64 -178l329 392q-62 47 -145 47q-108 0 -178 -76t-70 -185zM656 356
q0 102 -65 178l-330 -392q62 -46 146 -46q108 0 179 75q70 76 70 185z" />
    <glyph glyph-name="Ugrave" unicode="&#xd9;" horiz-adv-x="661" 
d="M585 257q0 -122 -75 -195q-73 -73 -179 -73q-108 0 -181 73q-74 74 -74 195v455h109v-448q0 -39 11 -70t30.5 -52.5t46.5 -32.5t58 -11q30 0 56.5 11t46 32.5t30.5 52.5t11 70v448h110v-455zM450 828l-38 -56l-207 134l47 70z" />
    <glyph glyph-name="Uacute" unicode="&#xda;" horiz-adv-x="661" 
d="M585 257q0 -122 -75 -195q-73 -73 -179 -73q-108 0 -181 73q-74 74 -74 195v455h109v-448q0 -39 11 -70t30.5 -52.5t46.5 -32.5t58 -11q30 0 56.5 11t46 32.5t30.5 52.5t11 70v448h110v-455zM247 772l-38 56l198 148l47 -70z" />
    <glyph glyph-name="Ucircumflex" unicode="&#xdb;" horiz-adv-x="661" 
d="M585 257q0 -122 -75 -195q-73 -73 -179 -73q-108 0 -181 73q-74 74 -74 195v455h109v-448q0 -39 11 -70t30.5 -52.5t46.5 -32.5t58 -11q30 0 56.5 11t46 32.5t30.5 52.5t11 70v448h110v-455zM508 834l-38 -52l-139 86l-140 -86l-38 52l178 136z" />
    <glyph glyph-name="Udieresis" unicode="&#xdc;" horiz-adv-x="661" 
d="M585 257q0 -122 -75 -195q-73 -73 -179 -73q-108 0 -181 73q-74 74 -74 195v455h109v-448q0 -39 11 -70t30.5 -52.5t46.5 -32.5t58 -11q30 0 56.5 11t46 32.5t30.5 52.5t11 70v448h110v-455zM283 915q18 -17 18 -41t-18 -41q-17 -17 -41 -17t-41 17t-17 41t17 41
q17 18 41 18t41 -18zM372 915q17 18 41 18t41 -18q18 -17 18 -41t-18 -41q-17 -17 -41 -17t-41 17t-17 41t17 41z" />
    <glyph glyph-name="Yacute" unicode="&#xdd;" horiz-adv-x="612" 
d="M11 712h125l124 -214q8 -14 19 -35.5t24 -49.5h6q13 36 42 84l125 215h124l-239 -418v-294h-110v294zM223 772l-38 56l198 148l47 -70z" />
    <glyph glyph-name="Thorn" unicode="&#xde;" horiz-adv-x="570" 
d="M78 712h109v-116h93q122 0 191 -66t69 -166q0 -117 -76 -175q-77 -59 -195 -59h-82v-130h-109v712zM187 489v-252h92q67 0 108 34.5t41 92.5q0 57 -41.5 91t-108.5 34h-91z" />
    <glyph glyph-name="germandbls" unicode="&#xdf;" horiz-adv-x="554" 
d="M401 418q114 -66 114 -187t-70 -182q-69 -60 -179 -60q-4 0 -37 3v108q15 -4 39 -4q60 0 96.5 33t36.5 102q0 64 -42.5 97.5t-112.5 33.5h-17v100h17q67 0 91.5 29t24.5 79q0 40 -25 69.5t-70 29.5q-38 0 -66 -31q-29 -31 -29 -74v-564h-108v565q0 91 60 150
q60 60 146 60t145 -59q58 -58 58 -145q0 -92 -72 -153z" />
    <glyph glyph-name="agrave" unicode="&#xe0;" horiz-adv-x="559" 
d="M380 229q-86 16 -121 16q-110 0 -110 -85q0 -40 22.5 -59.5t73.5 -19.5q30 0 55 9.5t42.5 26.5t27.5 39.5t10 48.5v24zM255 542q99 0 166 -53q66 -53 66 -141v-348h-94l-9 66q-59 -77 -159 -77q-183 0 -183 168q0 73 57 121t158 48q41 0 123 -20v43q0 40 -39 69
q-40 29 -86 29q-76 0 -149 -38v102q72 31 149 31zM397 646l-38 -56l-207 134l47 70z" />
    <glyph glyph-name="aacute" unicode="&#xe1;" horiz-adv-x="559" 
d="M380 229q-86 16 -121 16q-110 0 -110 -85q0 -40 22.5 -59.5t73.5 -19.5q30 0 55 9.5t42.5 26.5t27.5 39.5t10 48.5v24zM255 542q99 0 166 -53q66 -53 66 -141v-348h-94l-9 66q-59 -77 -159 -77q-183 0 -183 168q0 73 57 121t158 48q41 0 123 -20v43q0 40 -39 69
q-40 29 -86 29q-76 0 -149 -38v102q72 31 149 31zM183 590l-38 56l198 148l47 -70z" />
    <glyph glyph-name="acircumflex" unicode="&#xe2;" horiz-adv-x="559" 
d="M380 229q-86 16 -121 16q-110 0 -110 -85q0 -40 22.5 -59.5t73.5 -19.5q30 0 55 9.5t42.5 26.5t27.5 39.5t10 48.5v24zM255 542q99 0 166 -53q66 -53 66 -141v-348h-94l-9 66q-59 -77 -159 -77q-183 0 -183 168q0 73 57 121t158 48q41 0 123 -20v43q0 40 -39 69
q-40 29 -86 29q-76 0 -149 -38v102q72 31 149 31zM449 652l-38 -52l-139 86l-140 -86l-38 52l178 136z" />
    <glyph glyph-name="atilde" unicode="&#xe3;" horiz-adv-x="559" 
d="M380 229q-86 16 -121 16q-110 0 -110 -85q0 -40 22.5 -59.5t73.5 -19.5q30 0 55 9.5t42.5 26.5t27.5 39.5t10 48.5v24zM255 542q99 0 166 -53q66 -53 66 -141v-348h-94l-9 66q-59 -77 -159 -77q-183 0 -183 168q0 73 57 121t158 48q41 0 123 -20v43q0 40 -39 69
q-40 29 -86 29q-76 0 -149 -38v102q72 31 149 31zM323 638q-22 0 -61 17t-57 17q-29 0 -46 -32l-57 38q40 67 110 67q20 0 62 -17q43 -17 56 -17q26 0 47 33l56 -38q-42 -68 -110 -68z" />
    <glyph glyph-name="adieresis" unicode="&#xe4;" horiz-adv-x="559" 
d="M380 229q-86 16 -121 16q-110 0 -110 -85q0 -40 22.5 -59.5t73.5 -19.5q30 0 55 9.5t42.5 26.5t27.5 39.5t10 48.5v24zM255 542q99 0 166 -53q66 -53 66 -141v-348h-94l-9 66q-59 -77 -159 -77q-183 0 -183 168q0 73 57 121t158 48q41 0 123 -20v43q0 40 -39 69
q-40 29 -86 29q-76 0 -149 -38v102q72 31 149 31zM225 733q18 -17 18 -41t-18 -41q-17 -17 -41 -17t-41 17t-17 41t17 41q17 18 41 18t41 -18zM314 733q17 18 41 18t41 -18q18 -17 18 -41t-18 -41q-17 -17 -41 -17t-41 17t-17 41t17 41z" />
    <glyph glyph-name="aring" unicode="&#xe5;" horiz-adv-x="559" 
d="M380 229q-86 16 -121 16q-110 0 -110 -85q0 -40 22.5 -59.5t73.5 -19.5q30 0 55 9.5t42.5 26.5t27.5 39.5t10 48.5v24zM255 542q99 0 166 -53q66 -53 66 -141v-348h-94l-9 66q-59 -77 -159 -77q-183 0 -183 168q0 73 57 121t158 48q41 0 123 -20v43q0 40 -39 69
q-40 29 -86 29q-76 0 -149 -38v102q72 31 149 31zM199 622q-15 15 -22 33t-7 37t7 37t22 33t33.5 22.5t37.5 7.5t37 -7.5t33 -22.5t22 -33t7 -37t-7 -37t-22 -33t-33 -22t-37 -7t-37.5 7t-33.5 22zM238 724q-13 -13 -13 -32t13 -32t32 -13t32 13t13 32t-13 32t-32 13
t-32 -13z" />
    <glyph glyph-name="ae" unicode="&#xe6;" horiz-adv-x="907" 
d="M496 247q8 -75 49.5 -119.5t107.5 -44.5q83 0 160 42v-108q-75 -28 -161 -28q-129 0 -205 96q-78 -96 -218 -96q-97 0 -140 43t-43 125q0 165 244 165h93v27q0 42 -39 71q-40 29 -86 29q-79 0 -148 -42v104q71 31 148 31q126 0 191 -83q75 83 185 83q53 0 96 -19.5
t73 -57t46.5 -92.5t16.5 -126h-370zM634 454q-52 0 -88.5 -36t-48.5 -96h266q-2 30 -13 54.5t-28 42t-40 26.5t-48 9zM383 247h-79q-75 0 -113 -18t-38 -69q0 -81 95 -81q60 0 97 37q38 38 38 89v42z" />
    <glyph glyph-name="ccedilla" unicode="&#xe7;" horiz-adv-x="481" 
d="M253 -95l18 87q-102 14 -166 90t-64 182q0 120 77 199q76 79 189 79q65 0 125 -33v-123q-58 55 -125 55q-64 0 -111 -50q-45 -50 -45 -127q0 -72 45 -123t111 -51q70 0 126 51v-120q-58 -31 -124 -32v-42q34 -1 57.5 -25.5t23.5 -57.5q0 -39 -26.5 -64t-74.5 -25
q-39 0 -65 19v57q29 -17 54 -17q43 0 43 36q0 35 -46 35h-22z" />
    <glyph glyph-name="egrave" unicode="&#xe8;" horiz-adv-x="564" 
d="M420 326q-4 60 -41 93t-89 33q-54 0 -89 -34t-47 -92h266zM469 17q-75 -28 -161 -28q-117 0 -192 78t-75 207q0 116 68 192q67 76 181 76q53 0 96 -18t73.5 -53t47 -87t16.5 -121v-18h-371q9 -75 50 -117.5t107 -42.5q89 0 160 40v-108zM419 646l-38 -56l-207 134l47 70z
" />
    <glyph glyph-name="eacute" unicode="&#xe9;" horiz-adv-x="564" 
d="M420 326q-4 60 -41 93t-89 33q-54 0 -89 -34t-47 -92h266zM469 17q-75 -28 -161 -28q-117 0 -192 78t-75 207q0 116 68 192q67 76 181 76q53 0 96 -18t73.5 -53t47 -87t16.5 -121v-18h-371q9 -75 50 -117.5t107 -42.5q89 0 160 40v-108zM209 590l-38 56l198 148l47 -70z
" />
    <glyph glyph-name="ecircumflex" unicode="&#xea;" horiz-adv-x="564" 
d="M420 326q-4 60 -41 93t-89 33q-54 0 -89 -34t-47 -92h266zM469 17q-75 -28 -161 -28q-117 0 -192 78t-75 207q0 116 68 192q67 76 181 76q53 0 96 -18t73.5 -53t47 -87t16.5 -121v-18h-371q9 -75 50 -117.5t107 -42.5q89 0 160 40v-108zM471 652l-38 -52l-139 86
l-140 -86l-38 52l178 136z" />
    <glyph glyph-name="edieresis" unicode="&#xeb;" horiz-adv-x="564" 
d="M420 326q-4 60 -41 93t-89 33q-54 0 -89 -34t-47 -92h266zM469 17q-75 -28 -161 -28q-117 0 -192 78t-75 207q0 116 68 192q67 76 181 76q53 0 96 -18t73.5 -53t47 -87t16.5 -121v-18h-371q9 -75 50 -117.5t107 -42.5q89 0 160 40v-108zM246 733q18 -17 18 -41t-18 -41
q-17 -17 -41 -17t-41 17t-17 41t17 41q17 18 41 18t41 -18zM335 733q17 18 41 18t41 -18q18 -17 18 -41t-18 -41q-17 -17 -41 -17t-41 17t-17 41t17 41z" />
    <glyph glyph-name="igrave" unicode="&#xec;" horiz-adv-x="251" 
d="M179 530v-530h-107v530h107zM244 646l-38 -56l-207 134l47 70z" />
    <glyph glyph-name="iacute" unicode="&#xed;" horiz-adv-x="251" 
d="M179 530v-530h-107v530h107zM35 590l-38 56l198 148l47 -70z" />
    <glyph glyph-name="icircumflex" unicode="&#xee;" horiz-adv-x="251" 
d="M299 652l-38 -52l-139 86l-140 -86l-38 52l178 136zM179 530v-530h-107v530h107z" />
    <glyph glyph-name="idieresis" unicode="&#xef;" horiz-adv-x="251" 
d="M76 733q18 -17 18 -41t-18 -41q-17 -17 -41 -17t-41 17t-17 41t17 41q17 18 41 18t41 -18zM165 733q17 18 41 18t41 -18q18 -17 18 -41t-18 -41q-17 -17 -41 -17t-41 17t-17 41t17 41zM179 530v-530h-107v530h107z" />
    <glyph glyph-name="eth" unicode="&#xf0;" horiz-adv-x="613" 
d="M392 756l-84 -71q126 -67 195 -162.5t69 -210.5q0 -144 -79 -233q-78 -90 -195 -90q-108 0 -182 74q-74 76 -74 181q0 107 74 181q73 75 182 75q56 0 103 -31q-55 88 -176 146l-102 -85l-33 40l81 68q-28 11 -55 19t-55 13v105q54 -12 102.5 -28.5t93.5 -36.5l102 86z
M298 88q69 0 116 63q48 64 48 160q-68 89 -164 89q-62 0 -105 -46q-42 -45 -42 -110q0 -64 42 -110q43 -46 105 -46z" />
    <glyph glyph-name="ntilde" unicode="&#xf1;" horiz-adv-x="603" 
d="M72 530h98l6 -70q34 38 69 60t86 22q200 0 200 -235v-307h-107v295q0 77 -32.5 111.5t-85.5 34.5q-17 0 -33.5 -5.5t-31.5 -14t-27 -19t-20 -20.5l-15 -20v-362h-107v530zM360 638q-22 0 -61 17t-57 17q-29 0 -46 -32l-57 38q40 67 110 67q20 0 62 -17q43 -17 56 -17
q26 0 47 33l56 -38q-42 -68 -110 -68z" />
    <glyph glyph-name="ograve" unicode="&#xf2;" horiz-adv-x="617" 
d="M42 262q0 121 77 201q76 79 189 79q114 0 191 -81q77 -82 77 -197q0 -113 -77 -195q-77 -80 -191 -80q-115 0 -191 79q-75 79 -75 194zM152 263q0 -74 44 -124q45 -49 113 -49q69 0 112 49q45 49 45 126q0 76 -47 126t-110 50q-65 0 -112 -50q-45 -50 -45 -128zM434 646
l-38 -56l-207 134l47 70z" />
    <glyph glyph-name="oacute" unicode="&#xf3;" horiz-adv-x="617" 
d="M42 262q0 121 77 201q76 79 189 79q114 0 191 -81q77 -82 77 -197q0 -113 -77 -195q-77 -80 -191 -80q-115 0 -191 79q-75 79 -75 194zM152 263q0 -74 44 -124q45 -49 113 -49q69 0 112 49q45 49 45 126q0 76 -47 126t-110 50q-65 0 -112 -50q-45 -50 -45 -128zM225 590
l-38 56l198 148l47 -70z" />
    <glyph glyph-name="ocircumflex" unicode="&#xf4;" horiz-adv-x="617" 
d="M42 262q0 121 77 201q76 79 189 79q114 0 191 -81q77 -82 77 -197q0 -113 -77 -195q-77 -80 -191 -80q-115 0 -191 79q-75 79 -75 194zM152 263q0 -74 44 -124q45 -49 113 -49q69 0 112 49q45 49 45 126q0 76 -47 126t-110 50q-65 0 -112 -50q-45 -50 -45 -128zM489 652
l-38 -52l-139 86l-140 -86l-38 52l178 136z" />
    <glyph glyph-name="otilde" unicode="&#xf5;" horiz-adv-x="617" 
d="M42 262q0 121 77 201q76 79 189 79q114 0 191 -81q77 -82 77 -197q0 -113 -77 -195q-77 -80 -191 -80q-115 0 -191 79q-75 79 -75 194zM152 263q0 -74 44 -124q45 -49 113 -49q69 0 112 49q45 49 45 126q0 76 -47 126t-110 50q-65 0 -112 -50q-45 -50 -45 -128zM367 638
q-22 0 -61 17t-57 17q-29 0 -46 -32l-57 38q40 67 110 67q20 0 62 -17q43 -17 56 -17q26 0 47 33l56 -38q-42 -68 -110 -68z" />
    <glyph glyph-name="odieresis" unicode="&#xf6;" horiz-adv-x="617" 
d="M42 262q0 121 77 201q76 79 189 79q114 0 191 -81q77 -82 77 -197q0 -113 -77 -195q-77 -80 -191 -80q-115 0 -191 79q-75 79 -75 194zM152 263q0 -74 44 -124q45 -49 113 -49q69 0 112 49q45 49 45 126q0 76 -47 126t-110 50q-65 0 -112 -50q-45 -50 -45 -128zM266 733
q18 -17 18 -41t-18 -41q-17 -17 -41 -17t-41 17t-17 41t17 41q17 18 41 18t41 -18zM355 733q17 18 41 18t41 -18q18 -17 18 -41t-18 -41q-17 -17 -41 -17t-41 17t-17 41t17 41z" />
    <glyph glyph-name="divide" unicode="&#xf7;" 
d="M42 196v103h483v-103h-483zM350 61q0 -28 -19.5 -47t-47.5 -19t-47.5 19t-19.5 47q0 29 19.5 49t47.5 20t47.5 -20t19.5 -49zM235 477q20 20 48 20t47 -20q20 -19 20 -47t-20 -48q-19 -19 -47 -19t-48 19q-19 20 -19 48t19 47z" />
    <glyph glyph-name="oslash" unicode="&#xf8;" horiz-adv-x="617" 
d="M576 547l-74 -87q74 -83 74 -196t-77 -195q-77 -80 -191 -80q-87 0 -158 50l-73 -85l-35 30l73 86q-73 80 -73 192q0 121 77 201q76 79 189 79q86 0 160 -51l72 86zM466 265q0 58 -34 111l-217 -257q43 -31 94 -31q67 0 112 50q45 49 45 127zM151 263q0 -56 34 -109
l215 257q-47 32 -91 32q-66 0 -112 -51q-46 -49 -46 -129z" />
    <glyph glyph-name="ugrave" unicode="&#xf9;" horiz-adv-x="602" 
d="M300 -11q-53 0 -95.5 16t-72 46.5t-45.5 74t-16 97.5v307h107v-294q0 -76 34 -111t88 -35q55 0 89 34.5t34 111.5v294h107v-307q0 -54 -16 -97.5t-45.5 -74t-72 -46.5t-96.5 -16zM425 646l-38 -56l-207 134l47 70z" />
    <glyph glyph-name="uacute" unicode="&#xfa;" horiz-adv-x="602" 
d="M300 -11q-53 0 -95.5 16t-72 46.5t-45.5 74t-16 97.5v307h107v-294q0 -76 34 -111t88 -35q55 0 89 34.5t34 111.5v294h107v-307q0 -54 -16 -97.5t-45.5 -74t-72 -46.5t-96.5 -16zM217 590l-38 56l198 148l47 -70z" />
    <glyph glyph-name="ucircumflex" unicode="&#xfb;" horiz-adv-x="602" 
d="M300 -11q-53 0 -95.5 16t-72 46.5t-45.5 74t-16 97.5v307h107v-294q0 -76 34 -111t88 -35q55 0 89 34.5t34 111.5v294h107v-307q0 -54 -16 -97.5t-45.5 -74t-72 -46.5t-96.5 -16zM481 652l-38 -52l-139 86l-140 -86l-38 52l178 136z" />
    <glyph glyph-name="udieresis" unicode="&#xfc;" horiz-adv-x="602" 
d="M300 -11q-53 0 -95.5 16t-72 46.5t-45.5 74t-16 97.5v307h107v-294q0 -76 34 -111t88 -35q55 0 89 34.5t34 111.5v294h107v-307q0 -54 -16 -97.5t-45.5 -74t-72 -46.5t-96.5 -16zM255 733q18 -17 18 -41t-18 -41q-17 -17 -41 -17t-41 17t-17 41t17 41q17 18 41 18t41 -18
zM344 733q17 18 41 18t41 -18q18 -17 18 -41t-18 -41q-17 -17 -41 -17t-41 17t-17 41t17 41z" />
    <glyph glyph-name="yacute" unicode="&#xfd;" horiz-adv-x="576" 
d="M444 530h117l-351 -746h-114l136 279l-216 467h118l111 -244q11 -24 41 -106h6q5 17 15.5 44t26.5 62zM205 590l-38 56l198 148l47 -70z" />
    <glyph glyph-name="thorn" unicode="&#xfe;" horiz-adv-x="649" 
d="M607 264q0 -114 -70 -194q-69 -81 -186 -81q-80 0 -174 69v-274h-105v980h105v-311q75 89 174 89q118 0 187 -82q69 -83 69 -196zM341 443q-72 0 -119 -53q-45 -53 -45 -128v-79q7 -8 14.5 -17t15.5 -18q17 -17 56 -39q40 -20 78 -20q36 0 65 12.5t50 35.5t32 55.5
t11 71.5t-11 72t-32 57t-50 37t-65 13z" />
    <glyph glyph-name="ydieresis" unicode="&#xff;" horiz-adv-x="576" 
d="M444 530h117l-351 -746h-114l136 279l-216 467h118l111 -244q11 -24 41 -106h6q5 17 15.5 44t26.5 62zM244 733q18 -17 18 -41t-18 -41q-17 -17 -41 -17t-41 17t-17 41t17 41q17 18 41 18t41 -18zM333 733q17 18 41 18t41 -18q18 -17 18 -41t-18 -41q-17 -17 -41 -17
t-41 17t-17 41t17 41z" />
    <glyph glyph-name="Amacron" unicode="&#x100;" horiz-adv-x="724" 
d="M328 712h67l317 -712h-120l-69 158h-323l-68 -158h-121zM476 265l-79 182q-9 22 -17 43.5t-15 43.5h-6q-2 -7 -15 -38l-19 -49l-79 -182h230zM223 911h276v-72h-276v72z" />
    <glyph glyph-name="amacron" unicode="&#x101;" horiz-adv-x="559" 
d="M380 229q-86 16 -121 16q-110 0 -110 -85q0 -40 22.5 -59.5t73.5 -19.5q30 0 55 9.5t42.5 26.5t27.5 39.5t10 48.5v24zM255 542q99 0 166 -53q66 -53 66 -141v-348h-94l-9 66q-59 -77 -159 -77q-183 0 -183 168q0 73 57 121t158 48q41 0 123 -20v43q0 40 -39 69
q-40 29 -86 29q-76 0 -149 -38v102q72 31 149 31zM132 729h276v-72h-276v72z" />
    <glyph glyph-name="Abreve" unicode="&#x102;" horiz-adv-x="724" 
d="M328 712h67l317 -712h-120l-69 158h-323l-68 -158h-121zM476 265l-79 182q-9 22 -17 43.5t-15 43.5h-6q-2 -7 -15 -38l-19 -49l-79 -182h230zM534 917q-25 -63 -72 -91t-101 -28q-53 0 -101 28.5t-72 90.5l65 28q12 -32 32 -50q20 -17 36.5 -21t39.5 -4q35 0 62.5 14.5
t46.5 60.5z" />
    <glyph glyph-name="abreve" unicode="&#x103;" horiz-adv-x="559" 
d="M380 229q-86 16 -121 16q-110 0 -110 -85q0 -40 22.5 -59.5t73.5 -19.5q30 0 55 9.5t42.5 26.5t27.5 39.5t10 48.5v24zM255 542q99 0 166 -53q66 -53 66 -141v-348h-94l-9 66q-59 -77 -159 -77q-183 0 -183 168q0 73 57 121t158 48q41 0 123 -20v43q0 40 -39 69
q-40 29 -86 29q-76 0 -149 -38v102q72 31 149 31zM441 735q-25 -63 -72 -91t-101 -28q-53 0 -101 28.5t-72 90.5l65 28q12 -32 32 -50q20 -17 36.5 -21t39.5 -4q35 0 62.5 14.5t46.5 60.5z" />
    <glyph glyph-name="Aogonek" unicode="&#x104;" horiz-adv-x="724" 
d="M673 -202q-29 -15 -62 -15q-21 0 -39.5 7t-32 19t-21.5 28.5t-8 35.5q0 34 22.5 67.5t59.5 59.5l-69 158h-323l-68 -158h-121l317 712h67l317 -712h-14q-42 -17 -78 -51q-35 -37 -35 -67q0 -14 9.5 -22.5t23.5 -8.5q27 0 55 20v-73zM476 265l-79 182q-9 22 -17 43.5
t-15 43.5h-6q-2 -7 -15 -38l-19 -49l-79 -182h230z" />
    <glyph glyph-name="aogonek" unicode="&#x105;" horiz-adv-x="559" 
d="M474 -202q-29 -15 -62 -15q-21 0 -39.5 7t-32 19t-21.5 28.5t-8 35.5q0 34 22.5 68t59.5 59l-9 66q-59 -77 -159 -77q-183 0 -183 168q0 73 57 121t158 48q41 0 123 -20v43q0 40 -39 69q-40 29 -86 29q-76 0 -149 -38v102q72 31 149 31q99 0 166 -53q66 -53 66 -141v-347
q-34 -16 -68 -52q-33 -38 -33 -67q0 -14 9.5 -22.5t23.5 -8.5q27 0 55 20v-73zM380 229q-86 16 -121 16q-110 0 -110 -85q0 -40 22.5 -59.5t73.5 -19.5q30 0 55 9.5t42.5 26.5t27.5 39.5t10 48.5v24z" />
    <glyph glyph-name="Cacute" unicode="&#x106;" horiz-adv-x="624" 
d="M574 33q-90 -44 -168 -44q-149 0 -256 107q-105 106 -105 260t105 261q107 107 256 107q82 0 168 -44v-127q-80 64 -168 64q-109 0 -179 -76q-69 -77 -69 -185q0 -109 69 -185q70 -75 179 -75q83 0 168 61v-124zM312 772l-38 56l198 148l47 -70z" />
    <glyph glyph-name="cacute" unicode="&#x107;" horiz-adv-x="481" 
d="M307 90q70 0 126 51v-120q-59 -32 -126 -32q-114 0 -191 80q-75 81 -75 195q0 120 77 199q76 79 189 79q65 0 125 -33v-123q-58 55 -125 55q-64 0 -111 -50q-45 -50 -45 -127q0 -72 45 -123t111 -51zM220 590l-38 56l198 148l47 -70z" />
    <glyph glyph-name="Ccircumflex" unicode="&#x108;" horiz-adv-x="624" 
d="M574 33q-90 -44 -168 -44q-149 0 -256 107q-105 106 -105 260t105 261q107 107 256 107q82 0 168 -44v-127q-80 64 -168 64q-109 0 -179 -76q-69 -77 -69 -185q0 -109 69 -185q70 -75 179 -75q83 0 168 61v-124zM574 834l-38 -52l-139 86l-140 -86l-38 52l178 136z" />
    <glyph glyph-name="ccircumflex" unicode="&#x109;" horiz-adv-x="481" 
d="M307 90q70 0 126 51v-120q-59 -32 -126 -32q-114 0 -191 80q-75 81 -75 195q0 120 77 199q76 79 189 79q65 0 125 -33v-123q-58 55 -125 55q-64 0 -111 -50q-45 -50 -45 -127q0 -72 45 -123t111 -51zM473 652l-38 -52l-139 86l-140 -86l-38 52l178 136z" />
    <glyph glyph-name="Cdotaccent" unicode="&#x10a;" horiz-adv-x="624" 
d="M574 33q-90 -44 -168 -44q-149 0 -256 107q-105 106 -105 260t105 261q107 107 256 107q82 0 168 -44v-127q-80 64 -168 64q-109 0 -179 -76q-69 -77 -69 -185q0 -109 69 -185q70 -75 179 -75q83 0 168 61v-124zM404 816q-25 0 -41.5 17t-16.5 41t17 41.5t41 17.5
t41 -17.5t17 -41.5t-17 -41t-41 -17z" />
    <glyph glyph-name="cdotaccent" unicode="&#x10b;" horiz-adv-x="481" 
d="M307 90q70 0 126 51v-120q-59 -32 -126 -32q-114 0 -191 80q-75 81 -75 195q0 120 77 199q76 79 189 79q65 0 125 -33v-123q-58 55 -125 55q-64 0 -111 -50q-45 -50 -45 -127q0 -72 45 -123t111 -51zM303 634q-25 0 -41.5 17t-16.5 41t17 41.5t41 17.5t41 -17.5t17 -41.5
t-17 -41t-41 -17z" />
    <glyph glyph-name="Ccaron" unicode="&#x10c;" horiz-adv-x="624" 
d="M574 33q-90 -44 -168 -44q-149 0 -256 107q-105 106 -105 260t105 261q107 107 256 107q82 0 168 -44v-127q-80 64 -168 64q-109 0 -179 -76q-69 -77 -69 -185q0 -109 69 -185q70 -75 179 -75q83 0 168 61v-124zM543 970l38 -52l-177 -136l-178 136l38 52l140 -86z" />
    <glyph glyph-name="ccaron" unicode="&#x10d;" horiz-adv-x="481" 
d="M307 90q70 0 126 51v-120q-59 -32 -126 -32q-114 0 -191 80q-75 81 -75 195q0 120 77 199q76 79 189 79q65 0 125 -33v-123q-58 55 -125 55q-64 0 -111 -50q-45 -50 -45 -127q0 -72 45 -123t111 -51zM435 788l38 -52l-177 -136l-178 136l38 52l140 -86z" />
    <glyph glyph-name="Dcaron" unicode="&#x10e;" horiz-adv-x="694" 
d="M262 712q97 0 173 -30.5t121 -81.5q46 -51 69.5 -113t23.5 -131q0 -139 -93 -244q-45 -51 -121 -81.5t-173 -30.5h-184v712h184zM243 107q140 0 217 63t77 186t-77 186.5t-217 63.5h-55v-499h55zM421 970l38 -52l-177 -136l-178 136l38 52l140 -86z" />
    <glyph glyph-name="dcaron" unicode="&#x10f;" horiz-adv-x="648" 
d="M151 265q0 -39 11 -71t31 -55.5t48.5 -36t64.5 -12.5q73 0 118 52t45 126v79q-70 94 -163 94q-72 0 -113.5 -48.5t-41.5 -127.5zM296 542q96 0 173 -83v305h107v-764h-97l-7 81q-71 -92 -177 -92q-117 0 -186 81q-68 82 -68 195q0 114 69 195q69 82 186 82zM646 578
q19 55 32 106t21 100l96 8q-38 -128 -93 -224z" />
    <glyph glyph-name="Dcroat" unicode="&#x110;" horiz-adv-x="694" 
d="M262 712q97 0 173 -30.5t121 -81.5q46 -51 69.5 -113t23.5 -131q0 -139 -93 -244q-45 -51 -121 -81.5t-173 -30.5h-184v329h-69v52h69v331h184zM243 107q140 0 217 63t77 186t-77 186.5t-217 63.5h-55v-225h171v-52h-171v-222h55z" />
    <glyph glyph-name="dcroat" unicode="&#x111;" horiz-adv-x="648" 
d="M296 542q96 0 174 -86v152h-169v52h169v104h106v-104h45v-52h-45v-608h-96l-7 81q-71 -92 -178 -92q-117 0 -186 81q-68 82 -68 195q0 114 69 195q69 82 186 82zM151 265q0 -39 11 -71.5t31.5 -56t49 -36.5t63.5 -13q73 0 118 53q46 52 46 127v79q-71 95 -164 95
q-36 0 -64.5 -13t-48.5 -36t-31 -56t-11 -72z" />
    <glyph glyph-name="Emacron" unicode="&#x112;" horiz-adv-x="549" 
d="M78 0v712h407v-106h-297v-178h288v-106h-288v-215h297v-107h-407zM137 911h276v-72h-276v72z" />
    <glyph glyph-name="emacron" unicode="&#x113;" horiz-adv-x="564" 
d="M420 326q-4 60 -41 93t-89 33q-54 0 -89 -34t-47 -92h266zM469 17q-75 -28 -161 -28q-117 0 -192 78t-75 207q0 116 68 192q67 76 181 76q53 0 96 -18t73.5 -53t47 -87t16.5 -121v-18h-371q9 -75 50 -117.5t107 -42.5q89 0 160 40v-108zM155 729h276v-72h-276v72z" />
    <glyph glyph-name="Ebreve" unicode="&#x114;" horiz-adv-x="549" 
d="M78 0v712h407v-106h-297v-178h288v-106h-288v-215h297v-107h-407zM451 917q-25 -63 -72 -91t-101 -28q-53 0 -101 28.5t-72 90.5l65 28q12 -32 32 -50q20 -17 36.5 -21t39.5 -4q35 0 62.5 14.5t46.5 60.5z" />
    <glyph glyph-name="ebreve" unicode="&#x115;" horiz-adv-x="564" 
d="M420 326q-4 60 -41 93t-89 33q-54 0 -89 -34t-47 -92h266zM469 17q-75 -28 -161 -28q-117 0 -192 78t-75 207q0 116 68 192q67 76 181 76q53 0 96 -18t73.5 -53t47 -87t16.5 -121v-18h-371q9 -75 50 -117.5t107 -42.5q89 0 160 40v-108zM464 735q-25 -63 -72 -91
t-101 -28q-53 0 -101 28.5t-72 90.5l65 28q12 -32 32 -50q20 -17 36.5 -21t39.5 -4q35 0 62.5 14.5t46.5 60.5z" />
    <glyph glyph-name="Edotaccent" unicode="&#x116;" horiz-adv-x="549" 
d="M78 0v712h407v-106h-297v-178h288v-106h-288v-215h297v-107h-407zM279 816q-25 0 -41.5 17t-16.5 41t17 41.5t41 17.5t41 -17.5t17 -41.5t-17 -41t-41 -17z" />
    <glyph glyph-name="edotaccent" unicode="&#x117;" horiz-adv-x="564" 
d="M420 326q-4 60 -41 93t-89 33q-54 0 -89 -34t-47 -92h266zM469 17q-75 -28 -161 -28q-117 0 -192 78t-75 207q0 116 68 192q67 76 181 76q53 0 96 -18t73.5 -53t47 -87t16.5 -121v-18h-371q9 -75 50 -117.5t107 -42.5q89 0 160 40v-108zM293 634q-25 0 -41.5 17t-16.5 41
t17 41.5t41 17.5t41 -17.5t17 -41.5t-17 -41t-41 -17z" />
    <glyph glyph-name="Eogonek" unicode="&#x118;" horiz-adv-x="549" 
d="M78 0v712h407v-106h-297v-178h288v-106h-288v-215h297q0 -107 -2 -107q-42 -17 -78 -51q-35 -37 -35 -67q0 -14 9.5 -22.5t23.5 -8.5q27 0 55 20v-73q-29 -15 -62 -15q-21 0 -39.5 7t-32 19t-21.5 28.5t-8 35.5q0 70 81 127h-298z" />
    <glyph glyph-name="eogonek" unicode="&#x119;" horiz-adv-x="564" 
d="M361 -202q-29 -15 -62 -15q-21 0 -39.5 7t-32 19t-21.5 28.5t-8 35.5q0 64 70 119q-102 14 -164 89q-63 76 -63 193q0 116 68 192q67 76 181 76q53 0 96 -18t73.5 -53t47 -87t16.5 -121v-18h-371q9 -75 50 -117.5t107 -42.5q89 0 160 40v-108q-44 -17 -99 -24
q-38 -20 -68 -51q-29 -32 -29 -60q0 -14 9.5 -22.5t23.5 -8.5q27 0 55 20v-73zM420 326q-4 60 -41 93t-89 33q-54 0 -89 -34t-47 -92h266z" />
    <glyph glyph-name="Ecaron" unicode="&#x11a;" horiz-adv-x="549" 
d="M78 0v712h407v-106h-297v-178h288v-106h-288v-215h297v-107h-407zM414 970l38 -52l-177 -136l-178 136l38 52l140 -86z" />
    <glyph glyph-name="ecaron" unicode="&#x11b;" horiz-adv-x="564" 
d="M420 326q-4 60 -41 93t-89 33q-54 0 -89 -34t-47 -92h266zM469 17q-75 -28 -161 -28q-117 0 -192 78t-75 207q0 116 68 192q67 76 181 76q53 0 96 -18t73.5 -53t47 -87t16.5 -121v-18h-371q9 -75 50 -117.5t107 -42.5q89 0 160 40v-108zM432 788l38 -52l-177 -136
l-178 136l38 52l140 -86z" />
    <glyph glyph-name="Gcircumflex" unicode="&#x11c;" horiz-adv-x="706" 
d="M353 382h280v-350q-117 -38 -227 -38q-150 0 -256 104q-105 103 -105 258q0 154 105 261q107 107 256 107q95 0 192 -49v-122q-14 10 -26.5 17t-22.5 12q-10 6 -26 12t-35 11t-40 8.5t-42 3.5q-109 0 -179 -76t-70 -185t70 -182t179 -73q30 0 59 3t57 10v160h-169v108z
M579 834l-38 -52l-139 86l-140 -86l-38 52l178 136z" />
    <glyph glyph-name="gcircumflex" unicode="&#x11d;" horiz-adv-x="633" 
d="M296 443q-69 0 -107 -46t-38 -121t38.5 -121.5t107.5 -46.5q70 0 114 50q43 49 43 122v71q-65 92 -158 92zM464 530h97v-499q0 -108 -75 -181q-74 -75 -184 -75q-103 0 -195 40v111q94 -51 195 -51q57 0 104 41q48 40 48 105v74q-16 -24 -36.5 -40t-42.5 -26.5t-45 -15
t-44 -4.5q-113 0 -179 79t-66 188q0 108 65 187q66 79 179 79q93 0 172 -88zM478 652l-38 -52l-139 86l-140 -86l-38 52l178 136z" />
    <glyph glyph-name="Gbreve" unicode="&#x11e;" horiz-adv-x="706" 
d="M353 382h280v-350q-117 -38 -227 -38q-150 0 -256 104q-105 103 -105 258q0 154 105 261q107 107 256 107q95 0 192 -49v-122q-14 10 -26.5 17t-22.5 12q-10 6 -26 12t-35 11t-40 8.5t-42 3.5q-109 0 -179 -76t-70 -185t70 -182t179 -73q30 0 59 3t57 10v160h-169v108z
M580 917q-25 -63 -72 -91t-101 -28q-53 0 -101 28.5t-72 90.5l65 28q12 -32 32 -50q20 -17 36.5 -21t39.5 -4q35 0 62.5 14.5t46.5 60.5z" />
    <glyph glyph-name="gbreve" unicode="&#x11f;" horiz-adv-x="633" 
d="M296 443q-69 0 -107 -46t-38 -121t38.5 -121.5t107.5 -46.5q70 0 114 50q43 49 43 122v71q-65 92 -158 92zM464 530h97v-499q0 -108 -75 -181q-74 -75 -184 -75q-103 0 -195 40v111q94 -51 195 -51q57 0 104 41q48 40 48 105v74q-16 -24 -36.5 -40t-42.5 -26.5t-45 -15
t-44 -4.5q-113 0 -179 79t-66 188q0 108 65 187q66 79 179 79q93 0 172 -88zM473 735q-25 -63 -72 -91t-101 -28q-53 0 -101 28.5t-72 90.5l65 28q12 -32 32 -50q20 -17 36.5 -21t39.5 -4q35 0 62.5 14.5t46.5 60.5z" />
    <glyph glyph-name="Gdotaccent" unicode="&#x120;" horiz-adv-x="706" 
d="M353 382h280v-350q-117 -38 -227 -38q-150 0 -256 104q-105 103 -105 258q0 154 105 261q107 107 256 107q95 0 192 -49v-122q-14 10 -26.5 17t-22.5 12q-10 6 -26 12t-35 11t-40 8.5t-42 3.5q-109 0 -179 -76t-70 -185t70 -182t179 -73q30 0 59 3t57 10v160h-169v108z
M411 816q-25 0 -41.5 17t-16.5 41t17 41.5t41 17.5t41 -17.5t17 -41.5t-17 -41t-41 -17z" />
    <glyph glyph-name="gdotaccent" unicode="&#x121;" horiz-adv-x="633" 
d="M296 443q-69 0 -107 -46t-38 -121t38.5 -121.5t107.5 -46.5q70 0 114 50q43 49 43 122v71q-65 92 -158 92zM464 530h97v-499q0 -108 -75 -181q-74 -75 -184 -75q-103 0 -195 40v111q94 -51 195 -51q57 0 104 41q48 40 48 105v74q-16 -24 -36.5 -40t-42.5 -26.5t-45 -15
t-44 -4.5q-113 0 -179 79t-66 188q0 108 65 187q66 79 179 79q93 0 172 -88zM301 634q-25 0 -41.5 17t-16.5 41t17 41.5t41 17.5t41 -17.5t17 -41.5t-17 -41t-41 -17z" />
    <glyph glyph-name="Gcommaaccent" unicode="&#x122;" horiz-adv-x="706" 
d="M353 382h280v-350q-117 -38 -227 -38q-150 0 -256 104q-105 103 -105 258q0 154 105 261q107 107 256 107q95 0 192 -49v-122q-14 10 -26.5 17t-22.5 12q-10 6 -26 12t-35 11t-40 8.5t-42 3.5q-109 0 -179 -76t-70 -185t70 -182t179 -73q30 0 59 3t57 10v160h-169v108z
M310 -256q19 55 32 106t21 100l96 8q-38 -128 -93 -224z" />
    <glyph glyph-name="gcommaaccent" unicode="&#x123;" horiz-adv-x="633" 
d="M296 443q-69 0 -107 -46t-38 -121t38.5 -121.5t107.5 -46.5q70 0 114 50q43 49 43 122v71q-65 92 -158 92zM464 530h97v-499q0 -108 -75 -181q-74 -75 -184 -75q-103 0 -195 40v111q94 -51 195 -51q57 0 104 41q48 40 48 105v74q-16 -24 -36.5 -40t-42.5 -26.5t-45 -15
t-44 -4.5q-113 0 -179 79t-66 188q0 108 65 187q66 79 179 79q93 0 172 -88zM373 799q-19 -55 -32 -106t-21 -100l-96 -8q38 128 93 224z" />
    <glyph glyph-name="Hcircumflex" unicode="&#x124;" horiz-adv-x="674" 
d="M487 428v284h110v-712h-110v321h-299v-321h-110v712h110v-284h299zM514 834l-38 -52l-139 86l-140 -86l-38 52l178 136z" />
    <glyph glyph-name="hcircumflex" unicode="&#x125;" horiz-adv-x="602" 
d="M72 764h107v-304q64 82 153 82q102 0 150.5 -60.5t48.5 -174.5v-307h-107v295q0 146 -119 146q-16 0 -32.5 -5.5t-31.5 -14t-27 -19t-20 -20.5l-15 -20v-362h-107v764zM297 834l-38 -52l-139 86l-140 -86l-38 52l178 136z" />
    <glyph glyph-name="Hbar" unicode="&#x126;" horiz-adv-x="674" 
d="M665 596v-52h-68v-544h-111v321h-298v-321h-110v544h-69v52h69v116h110v-116h298v116h111v-116h68zM486 428v116h-298v-116h298z" />
    <glyph glyph-name="hbar" unicode="&#x127;" horiz-adv-x="602" 
d="M72 764h107v-104h146v-52h-146v-149q27 34 68 58.5t84 24.5q200 0 200 -235v-307h-107v297q0 146 -119 146q-16 0 -32.5 -5.5t-31.5 -14.5t-27 -20t-20 -21l-15 -20v-362h-107v608h-44v52h44v104z" />
    <glyph glyph-name="Itilde" unicode="&#x128;" horiz-adv-x="265" 
d="M185 820q-22 0 -61 17t-57 17q-29 0 -46 -32l-57 38q40 67 110 67q20 0 62 -17q43 -17 56 -17q26 0 47 33l56 -38q-42 -68 -110 -68zM188 712v-712h-110v712h110z" />
    <glyph glyph-name="itilde" unicode="&#x129;" horiz-adv-x="251" 
d="M176 638q-22 0 -61 17t-57 17q-29 0 -46 -32l-57 38q40 67 110 67q20 0 62 -17q43 -17 56 -17q26 0 47 33l56 -38q-42 -68 -110 -68zM179 530v-530h-107v530h107z" />
    <glyph glyph-name="Imacron" unicode="&#x12a;" horiz-adv-x="265" 
d="M188 712v-712h-110v712h110zM-6 911h276v-72h-276v72z" />
    <glyph glyph-name="imacron" unicode="&#x12b;" horiz-adv-x="251" 
d="M179 530v-530h-107v530h107zM-16 729h276v-72h-276v72z" />
    <glyph glyph-name="Ibreve" unicode="&#x12c;" horiz-adv-x="265" 
d="M306 917q-25 -63 -72 -91t-101 -28q-53 0 -101 28.5t-72 90.5l65 28q12 -32 32 -50q20 -17 36.5 -21t39.5 -4q35 0 62.5 14.5t46.5 60.5zM188 712v-712h-110v712h110z" />
    <glyph glyph-name="ibreve" unicode="&#x12d;" horiz-adv-x="251" 
d="M293 735q-25 -63 -72 -91t-101 -28q-53 0 -101 28.5t-72 90.5l65 28q12 -32 32 -50q20 -17 36.5 -21t39.5 -4q35 0 62.5 14.5t46.5 60.5zM179 530v-530h-107v530h107z" />
    <glyph glyph-name="Iogonek" unicode="&#x12e;" horiz-adv-x="265" 
d="M159 -202q-29 -15 -62 -15q-21 0 -39.5 7t-32 19t-21.5 28.5t-8 35.5q0 34 22.5 68t59.5 59v712h110v-712h-4q-42 -17 -78 -51q-35 -37 -35 -67q0 -14 9.5 -22.5t23.5 -8.5q27 0 55 20v-73z" />
    <glyph glyph-name="iogonek" unicode="&#x12f;" horiz-adv-x="251" 
d="M153 -202q-29 -15 -62 -15q-21 0 -39.5 7t-32 19t-21.5 28.5t-8 35.5q0 34 22.5 68t59.5 59v530h107v-530q-43 -17 -78 -52q-36 -36 -36 -66q0 -14 9.5 -22.5t23.5 -8.5q27 0 55 20v-73zM125 580q-27 0 -47 19.5t-20 47.5q0 27 20 46.5t47 19.5q28 0 47.5 -19t19.5 -47
t-19.5 -47.5t-47.5 -19.5z" />
    <glyph glyph-name="Idotaccent" unicode="&#x130;" horiz-adv-x="265" 
d="M135 816q-25 0 -41.5 17t-16.5 41t17 41.5t41 17.5t41 -17.5t17 -41.5t-17 -41t-41 -17zM188 712v-712h-110v712h110z" />
    <glyph glyph-name="dotlessi" unicode="&#x131;" horiz-adv-x="251" 
d="M179 530v-530h-107v530h107z" />
    <glyph glyph-name="IJ" unicode="&#x132;" horiz-adv-x="691" 
d="M503 712h110v-491q0 -110 -63 -171q-61 -61 -157 -61q-43 0 -79 18v121q35 -28 82 -28q46 0 76.5 31.5t30.5 91.5v489zM188 712v-712h-110v712h110z" />
    <glyph glyph-name="ij" unicode="&#x133;" horiz-adv-x="507" 
d="M192 -117q20 -7 51 -7q40 0 63 29t23 68v557h107v-553q0 -86 -49 -144q-48 -58 -140 -58q-28 0 -55 7v101zM382 580q-27 0 -47 19.5t-20 47.5q0 27 20 46.5t47 19.5q28 0 47.5 -19t19.5 -47t-19.5 -47.5t-47.5 -19.5zM179 0h-107v530h107v-530zM125 580q-27 0 -47 19.5
t-20 47.5q0 27 20 46.5t47 19.5q28 0 47.5 -19t19.5 -47t-19.5 -47.5t-47.5 -19.5z" />
    <glyph glyph-name="Jcircumflex" unicode="&#x134;" horiz-adv-x="420" 
d="M232 712h110v-491q0 -110 -63 -171q-61 -61 -157 -61q-43 0 -79 18v121q35 -28 82 -28q46 0 76.5 31.5t30.5 91.5v489zM463 834l-38 -52l-139 86l-140 -86l-38 52l178 136z" />
    <glyph glyph-name="jcircumflex" unicode="&#x135;" horiz-adv-x="250" 
d="M-68 -122q21 -7 54 -7q42 0 64 30t22 70v559h107v-548q0 -89 -47 -148t-143 -59q-30 0 -57 7v96zM303 652l-38 -52l-139 86l-140 -86l-38 52l178 136z" />
    <glyph glyph-name="Kcommaaccent" unicode="&#x136;" horiz-adv-x="621" 
d="M607 712l-303 -336l302 -376h-143l-233 294l-43 -48v-246h-109v712h109v-249q0 -19 -0.5 -35.5t-1.5 -30.5h5q21 33 46 62l225 253h146zM221 -256q19 55 32 106t21 100l96 8q-38 -128 -93 -224z" />
    <glyph glyph-name="kcommaaccent" unicode="&#x137;" horiz-adv-x="541" 
d="M380 530h132l-219 -247l229 -283h-135l-163 210l-45 -48v-162h-107v764h107v-364q0 -51 -3 -102h6q16 25 30 43t27 31zM154 -256q19 55 32 106t21 100l96 8q-38 -128 -93 -224z" />
    <glyph glyph-name="kgreenlandic" unicode="&#x138;" horiz-adv-x="541" 
d="M380 530h132l-219 -247l229 -283h-135l-163 210l-45 -48v-162h-107v530h107v-130q0 -51 -3 -102h6q16 25 30 43t27 31z" />
    <glyph glyph-name="Lacute" unicode="&#x139;" horiz-adv-x="453" 
d="M188 712v-605h239v-107h-349v712h110zM50 772l-38 56l198 148l47 -70z" />
    <glyph glyph-name="lacute" unicode="&#x13a;" horiz-adv-x="251" 
d="M41 772l-38 56l198 148l47 -70zM72 0v764h107v-764h-107z" />
    <glyph glyph-name="Lcommaaccent" unicode="&#x13b;" horiz-adv-x="453" 
d="M188 712v-605h239v-107h-349v712h110zM152 -256q19 55 32 106t21 100l96 8q-38 -128 -93 -224z" />
    <glyph glyph-name="lcommaaccent" unicode="&#x13c;" horiz-adv-x="251" 
d="M35 -256q19 55 32 106t21 100l96 8q-38 -128 -93 -224zM72 0v764h107v-764h-107z" />
    <glyph glyph-name="Lcaron" unicode="&#x13d;" horiz-adv-x="453" 
d="M188 712v-605h239v-107h-349v712h110zM269 561q19 55 32 106t21 100l96 8q-38 -128 -93 -224z" />
    <glyph glyph-name="lcaron" unicode="&#x13e;" horiz-adv-x="251" 
d="M249 578q19 55 32 106t21 100l96 8q-38 -128 -93 -224zM72 0v764h107v-764h-107z" />
    <glyph glyph-name="Ldot" unicode="&#x13f;" horiz-adv-x="453" 
d="M188 712v-605h239v-107h-349v712h110zM394 263q0 -28 -19.5 -47t-48.5 -19q-22 -2 -38 10t-23.5 30t-5 38.5t18.5 35.5q15 16 35 19t38.5 -4.5t31 -24t11.5 -38.5z" />
    <glyph glyph-name="ldot" unicode="&#x140;" horiz-adv-x="385" 
d="M72 0v764h107v-764h-107zM378 263q0 -28 -19.5 -47t-48.5 -19q-22 -2 -38 10t-23.5 30t-5 38.5t18.5 35.5q15 16 35 19t38.5 -4.5t31 -24t11.5 -38.5z" />
    <glyph glyph-name="Lslash" unicode="&#x141;" horiz-adv-x="453" 
d="M188 368v-261h239v-107h-349v276l-69 -57l-33 39l102 86v368h110v-276l71 59l34 -39z" />
    <glyph glyph-name="lslash" unicode="&#x142;" horiz-adv-x="251" 
d="M279 442l-100 -84v-358h-107v268l-60 -51q-5 8 -15.5 20t-17.5 19l93 80v428h107v-338l67 55z" />
    <glyph glyph-name="Nacute" unicode="&#x143;" horiz-adv-x="712" 
d="M635 712v-712h-76l-306 418q-27 36 -63 95h-6q2 -36 3 -60.5t1 -38.5v-414h-110v712h91l295 -404q16 -22 31.5 -45t29.5 -47h5q-2 23 -3.5 48.5t-1.5 54.5v393h110zM268 772l-38 56l198 148l47 -70z" />
    <glyph glyph-name="nacute" unicode="&#x144;" horiz-adv-x="603" 
d="M72 530h98l6 -70q34 38 69 60t86 22q200 0 200 -235v-307h-107v295q0 77 -32.5 111.5t-85.5 34.5q-17 0 -33.5 -5.5t-31.5 -14t-27 -19t-20 -20.5l-15 -20v-362h-107v530zM216 590l-38 56l198 148l47 -70z" />
    <glyph glyph-name="Ncommaaccent" unicode="&#x145;" horiz-adv-x="712" 
d="M635 712v-712h-76l-306 418q-27 36 -63 95h-6q2 -36 3 -60.5t1 -38.5v-414h-110v712h91l295 -404q16 -22 31.5 -45t29.5 -47h5q-2 23 -3.5 48.5t-1.5 54.5v393h110zM278 -256q19 55 32 106t21 100l96 8q-38 -128 -93 -224z" />
    <glyph glyph-name="ncommaaccent" unicode="&#x146;" horiz-adv-x="603" 
d="M72 530h98l6 -70q34 38 69 60t86 22q200 0 200 -235v-307h-107v295q0 77 -32.5 111.5t-85.5 34.5q-17 0 -33.5 -5.5t-31.5 -14t-27 -19t-20 -20.5l-15 -20v-362h-107v530zM188 -256q19 55 32 106t21 100l96 8q-38 -128 -93 -224z" />
    <glyph glyph-name="Ncaron" unicode="&#x147;" horiz-adv-x="712" 
d="M635 712v-712h-76l-306 418q-27 36 -63 95h-6q2 -36 3 -60.5t1 -38.5v-414h-110v712h91l295 -404q16 -22 31.5 -45t29.5 -47h5q-2 23 -3.5 48.5t-1.5 54.5v393h110zM492 970l38 -52l-177 -136l-178 136l38 52l140 -86z" />
    <glyph glyph-name="ncaron" unicode="&#x148;" horiz-adv-x="603" 
d="M72 530h98l6 -70q34 38 69 60t86 22q200 0 200 -235v-307h-107v295q0 77 -32.5 111.5t-85.5 34.5q-17 0 -33.5 -5.5t-31.5 -14t-27 -19t-20 -20.5l-15 -20v-362h-107v530zM438 788l38 -52l-177 -136l-178 136l38 52l140 -86z" />
    <glyph glyph-name="napostrophe" unicode="&#x149;" horiz-adv-x="807" 
d="M276 530h98l6 -70q34 38 69 60t86 22q200 0 200 -235v-307h-107v295q0 77 -32.5 111.5t-85.5 34.5q-17 0 -33.5 -5.5t-31.5 -14t-27 -19t-20 -20.5l-15 -20v-362h-107v530zM30 482q52 149 71 281l122 12q-54 -183 -126 -305z" />
    <glyph glyph-name="Eng" unicode="&#x14a;" horiz-adv-x="712" 
d="M403 -118q24 -9 53 -9q33 0 52 25t19 58v85l-275 377q-27 36 -63 95h-6q2 -36 3 -60.5t1 -38.5v-414h-109v712h91l294 -404l61 -91h5q-2 45 -3.5 70.5t-1.5 31.5v393h111v-748q0 -81 -45 -135t-131 -54q-19 0 -56 8v99z" />
    <glyph glyph-name="eng" unicode="&#x14b;" horiz-adv-x="603" 
d="M343 -225q-20 0 -58 8v101q29 -8 54 -8q45 0 65.5 28t20.5 68v326q0 78 -33.5 112.5t-87.5 34.5q-16 0 -32.5 -5.5t-31 -14.5t-27 -20t-19.5 -21l-15 -20v-364h-107v530h98l5 -65q75 77 148 77q106 0 157 -61t51 -173v-324q0 -47 -11 -85t-34.5 -66t-59 -43t-83.5 -15z
" />
    <glyph glyph-name="Omacron" unicode="&#x14c;" horiz-adv-x="811" 
d="M405 724q151 0 256 -107t105 -261q0 -155 -105 -261t-256 -106q-150 0 -255 107q-105 106 -105 260q0 153 105 260q105 108 255 108zM405 96q108 0 179 75q70 76 70 185t-70 185t-179 76q-108 0 -178 -76t-70 -185t70 -185q70 -75 178 -75zM268 911h276v-72h-276v72z" />
    <glyph glyph-name="omacron" unicode="&#x14d;" horiz-adv-x="617" 
d="M42 262q0 121 77 201q76 79 189 79q114 0 191 -81q77 -82 77 -197q0 -113 -77 -195q-77 -80 -191 -80q-115 0 -191 79q-75 79 -75 194zM152 263q0 -74 44 -124q45 -49 113 -49q69 0 112 49q45 49 45 126q0 76 -47 126t-110 50q-65 0 -112 -50q-45 -50 -45 -128zM171 729
h276v-72h-276v72z" />
    <glyph glyph-name="Obreve" unicode="&#x14e;" horiz-adv-x="811" 
d="M405 724q151 0 256 -107t105 -261q0 -155 -105 -261t-256 -106q-150 0 -255 107q-105 106 -105 260q0 153 105 260q105 108 255 108zM405 96q108 0 179 75q70 76 70 185t-70 185t-179 76q-108 0 -178 -76t-70 -185t70 -185q70 -75 178 -75zM582 917q-25 -63 -72 -91
t-101 -28q-53 0 -101 28.5t-72 90.5l65 28q12 -32 32 -50q20 -17 36.5 -21t39.5 -4q35 0 62.5 14.5t46.5 60.5z" />
    <glyph glyph-name="obreve" unicode="&#x14f;" horiz-adv-x="617" 
d="M42 262q0 121 77 201q76 79 189 79q114 0 191 -81q77 -82 77 -197q0 -113 -77 -195q-77 -80 -191 -80q-115 0 -191 79q-75 79 -75 194zM152 263q0 -74 44 -124q45 -49 113 -49q69 0 112 49q45 49 45 126q0 76 -47 126t-110 50q-65 0 -112 -50q-45 -50 -45 -128zM483 735
q-25 -63 -72 -91t-101 -28q-53 0 -101 28.5t-72 90.5l65 28q12 -32 32 -50q20 -17 36.5 -21t39.5 -4q35 0 62.5 14.5t46.5 60.5z" />
    <glyph glyph-name="Ohungarumlaut" unicode="&#x150;" horiz-adv-x="811" 
d="M405 724q151 0 256 -107t105 -261q0 -155 -105 -261t-256 -106q-150 0 -255 107q-105 106 -105 260q0 153 105 260q105 108 255 108zM405 96q108 0 179 75q70 76 70 185t-70 185t-179 76q-108 0 -178 -76t-70 -185t70 -185q70 -75 178 -75zM392 966l56 -58l-139 -126
l-45 45zM547 966l57 -58l-139 -126l-45 45z" />
    <glyph glyph-name="ohungarumlaut" unicode="&#x151;" horiz-adv-x="617" 
d="M42 262q0 121 77 201q76 79 189 79q114 0 191 -81q77 -82 77 -197q0 -113 -77 -195q-77 -80 -191 -80q-115 0 -191 79q-75 79 -75 194zM152 263q0 -74 44 -124q45 -49 113 -49q69 0 112 49q45 49 45 126q0 76 -47 126t-110 50q-65 0 -112 -50q-45 -50 -45 -128zM296 784
l56 -58l-139 -126l-45 45zM451 784l57 -58l-139 -126l-45 45z" />
    <glyph glyph-name="OE" unicode="&#x152;" horiz-adv-x="964" 
d="M900 606h-297v-178h288v-107h-288v-215h297v-106h-406q-46 -11 -89 -11q-150 0 -255 107q-105 106 -105 260q0 153 105 260q105 108 255 108q48 0 93 -12h402v-106zM405 96q47 0 88 15v491q-41 15 -88 15q-108 0 -178 -76t-70 -185t70 -185q70 -75 178 -75z" />
    <glyph glyph-name="oe" unicode="&#x153;" horiz-adv-x="983" 
d="M942 247h-370q8 -73 49.5 -118t107.5 -45q86 0 160 41v-108q-75 -28 -161 -28q-66 0 -121.5 30t-91.5 84q-74 -114 -207 -114q-115 0 -191 79q-75 79 -75 194q0 121 77 201q76 79 189 79q130 0 203 -109q69 109 199 109q52 0 95 -17.5t73.5 -51.5t47 -84t16.5 -116v-26z
M309 89q67 0 112 49t45 127q0 77 -47 127q-47 51 -110 51q-66 0 -112 -51q-45 -50 -45 -129q0 -74 44 -124q45 -50 113 -50zM841 322q-5 63 -42.5 98t-88.5 35q-52 0 -88 -36.5t-48 -96.5h267z" />
    <glyph glyph-name="Racute" unicode="&#x154;" horiz-adv-x="597" 
d="M78 712h201q119 0 181 -61q64 -61 64 -154q0 -75 -43 -130.5t-118 -76.5l214 -290h-134l-201 280h-55v-280h-109v712zM187 606v-221h91q61 0 97.5 30.5t36.5 81.5t-37 80t-98 29h-90zM191 772l-38 56l198 148l47 -70z" />
    <glyph glyph-name="racute" unicode="&#x155;" horiz-adv-x="371" 
d="M177 452q24 43 66.5 63.5t88.5 20.5q16 0 21 -1v-104q-5 0 -13.5 0.5t-11.5 0.5q-86 0 -117 -46q-32 -46 -32 -118v-268h-107v530h96zM114 590l-38 56l198 148l47 -70z" />
    <glyph glyph-name="Rcommaaccent" unicode="&#x156;" horiz-adv-x="597" 
d="M78 712h201q119 0 181 -61q64 -61 64 -154q0 -75 -43 -130.5t-118 -76.5l214 -290h-134l-201 280h-55v-280h-109v712zM187 606v-221h91q61 0 97.5 30.5t36.5 81.5t-37 80t-98 29h-90zM220 -256q19 55 32 106t21 100l96 8q-38 -128 -93 -224z" />
    <glyph glyph-name="rcommaaccent" unicode="&#x157;" horiz-adv-x="371" 
d="M177 452q24 43 66.5 63.5t88.5 20.5q16 0 21 -1v-104q-5 0 -13.5 0.5t-11.5 0.5q-86 0 -117 -46q-32 -46 -32 -118v-268h-107v530h96zM101 -257q19 55 32 106t21 100l96 8q-38 -128 -93 -224z" />
    <glyph glyph-name="Rcaron" unicode="&#x158;" horiz-adv-x="597" 
d="M78 712h201q119 0 181 -61q64 -61 64 -154q0 -75 -43 -130.5t-118 -76.5l214 -290h-134l-201 280h-55v-280h-109v712zM187 606v-221h91q61 0 97.5 30.5t36.5 81.5t-37 80t-98 29h-90zM386 970l38 -52l-177 -136l-178 136l38 52l140 -86z" />
    <glyph glyph-name="rcaron" unicode="&#x159;" horiz-adv-x="371" 
d="M177 452q24 43 66.5 63.5t88.5 20.5q16 0 21 -1v-104q-5 0 -13.5 0.5t-11.5 0.5q-86 0 -117 -46q-32 -46 -32 -118v-268h-107v530h96zM344 788l38 -52l-177 -136l-178 136l38 52l140 -86z" />
    <glyph glyph-name="Sacute" unicode="&#x15a;" horiz-adv-x="533" 
d="M168 532q0 -29 23 -49t57.5 -38t75 -37t75 -45t57.5 -62.5t23 -89.5q0 -96 -66 -159q-65 -63 -166 -63q-108 0 -184 66v131q29 -34 81 -62q53 -29 107 -29q24 0 45 7.5t37 21t25 32t9 41.5q0 36 -32 64t-78 49q-33 15 -68.5 33t-65.5 43t-49 59t-18 79q0 90 61 145
t153 55q99 0 175 -56v-128q-86 77 -180 77q-19 0 -36.5 -6t-31 -17.5t-21.5 -27t-8 -34.5zM195 772l-38 56l198 148l47 -70z" />
    <glyph glyph-name="sacute" unicode="&#x15b;" horiz-adv-x="437" 
d="M387 150q0 -71 -51 -116q-50 -45 -125 -45q-79 0 -149 30v107q70 -43 141 -43q31 0 52.5 15t21.5 40q0 23 -23 44t-56 40q-23 14 -48.5 30t-46.5 35.5t-35 44t-14 54.5q0 67 50 111q49 45 124 45q63 0 135 -29v-109q-74 44 -129 44q-25 0 -47.5 -14t-22.5 -38
q0 -21 23 -42t56 -40q24 -13 49.5 -29t46.5 -36t34.5 -44.5t13.5 -54.5zM142 590l-38 56l198 148l47 -70z" />
    <glyph glyph-name="Scircumflex" unicode="&#x15c;" horiz-adv-x="533" 
d="M168 532q0 -29 23 -49t57.5 -38t75 -37t75 -45t57.5 -62.5t23 -89.5q0 -96 -66 -159q-65 -63 -166 -63q-108 0 -184 66v131q29 -34 81 -62q53 -29 107 -29q24 0 45 7.5t37 21t25 32t9 41.5q0 36 -32 64t-78 49q-33 15 -68.5 33t-65.5 43t-49 59t-18 79q0 90 61 145
t153 55q99 0 175 -56v-128q-86 77 -180 77q-19 0 -36.5 -6t-31 -17.5t-21.5 -27t-8 -34.5zM453 834l-38 -52l-139 86l-140 -86l-38 52l178 136z" />
    <glyph glyph-name="scircumflex" unicode="&#x15d;" horiz-adv-x="437" 
d="M387 150q0 -71 -51 -116q-50 -45 -125 -45q-79 0 -149 30v107q70 -43 141 -43q31 0 52.5 15t21.5 40q0 23 -23 44t-56 40q-23 14 -48.5 30t-46.5 35.5t-35 44t-14 54.5q0 67 50 111q49 45 124 45q63 0 135 -29v-109q-74 44 -129 44q-25 0 -47.5 -14t-22.5 -38
q0 -21 23 -42t56 -40q24 -13 49.5 -29t46.5 -36t34.5 -44.5t13.5 -54.5zM407 652l-38 -52l-139 86l-140 -86l-38 52l178 136z" />
    <glyph glyph-name="Scedilla" unicode="&#x15e;" horiz-adv-x="533" 
d="M195 -95l18 86q-86 9 -150 64v131q29 -34 81 -62q53 -29 107 -29q24 0 45 7.5t37 21t25 32t9 41.5q0 36 -32 64t-78 49q-33 15 -68.5 33t-65.5 43t-49 59t-18 79q0 90 61 145t153 55q99 0 175 -56v-128q-86 77 -180 77q-19 0 -36.5 -6t-31 -17.5t-21.5 -27t-8 -34.5
q0 -29 23 -49t57.5 -38t75 -37t75 -45t57.5 -62.5t23 -89.5q0 -95 -64 -158t-164 -64v-42q34 -1 57.5 -25.5t23.5 -57.5q0 -39 -26.5 -64t-74.5 -25q-39 0 -65 19v57q29 -17 54 -17q43 0 43 36q0 35 -46 35h-22z" />
    <glyph glyph-name="scedilla" unicode="&#x15f;" horiz-adv-x="437" 
d="M162 -95l18 85q-64 6 -118 29v107q70 -43 141 -43q31 0 52.5 15t21.5 40q0 23 -23 44t-56 40q-23 14 -48.5 30t-46.5 35.5t-35 44t-14 54.5q0 67 50 111q49 45 124 45q63 0 135 -29v-109q-74 44 -129 44q-25 0 -47.5 -14t-22.5 -38q0 -21 23 -42t56 -40q24 -13 49.5 -29
t46.5 -36t34.5 -44.5t13.5 -54.5q0 -69 -48 -114q-49 -46 -121 -47v-42q34 -1 57.5 -25.5t23.5 -57.5q0 -39 -26.5 -64t-74.5 -25q-39 0 -65 19v57q29 -17 54 -17q43 0 43 36q0 35 -46 35h-22z" />
    <glyph glyph-name="Scaron" unicode="&#x160;" horiz-adv-x="533" 
d="M168 532q0 -29 23 -49t57.5 -38t75 -37t75 -45t57.5 -62.5t23 -89.5q0 -96 -66 -159q-65 -63 -166 -63q-108 0 -184 66v131q29 -34 81 -62q53 -29 107 -29q24 0 45 7.5t37 21t25 32t9 41.5q0 36 -32 64t-78 49q-33 15 -68.5 33t-65.5 43t-49 59t-18 79q0 90 61 145
t153 55q99 0 175 -56v-128q-86 77 -180 77q-19 0 -36.5 -6t-31 -17.5t-21.5 -27t-8 -34.5zM413 963l38 -52l-177 -136l-178 136l38 52l140 -86z" />
    <glyph glyph-name="scaron" unicode="&#x161;" horiz-adv-x="437" 
d="M387 150q0 -71 -51 -116q-50 -45 -125 -45q-79 0 -149 30v107q70 -43 141 -43q31 0 52.5 15t21.5 40q0 23 -23 44t-56 40q-23 14 -48.5 30t-46.5 35.5t-35 44t-14 54.5q0 67 50 111q49 45 124 45q63 0 135 -29v-109q-74 44 -129 44q-25 0 -47.5 -14t-22.5 -38
q0 -21 23 -42t56 -40q24 -13 49.5 -29t46.5 -36t34.5 -44.5t13.5 -54.5zM369 788l38 -52l-177 -136l-178 136l38 52l140 -86z" />
    <glyph glyph-name="Tcommaaccent" unicode="&#x162;" horiz-adv-x="487" 
d="M299 605v-605h-110v605h-173v107h455v-107h-172zM162 -256q19 55 32 106t21 100l96 8q-38 -128 -93 -224z" />
    <glyph glyph-name="tcommaaccent" unicode="&#x163;" horiz-adv-x="352" 
d="M333 1q-30 -8 -55 -8q-47 0 -82.5 15t-59.5 41t-36 62.5t-12 80.5v250h-70v88h70v106l107 44v-150h138v-88h-138v-250q0 -39 22.5 -68.5t64.5 -29.5q30 0 51 7v-100zM96 -256q19 55 32 106t21 100l96 8q-38 -128 -93 -224z" />
    <glyph glyph-name="Tcaron" unicode="&#x164;" horiz-adv-x="487" 
d="M299 605v-605h-110v605h-173v107h455v-107h-172zM382 970l38 -52l-177 -136l-178 136l38 52l140 -86z" />
    <glyph glyph-name="tcaron" unicode="&#x165;" horiz-adv-x="352" 
d="M333 1q-30 -8 -55 -8q-47 0 -82.5 15t-59.5 41t-36 62.5t-12 80.5v250h-70v88h70v106l107 44v-150h138v-88h-138v-250q0 -39 22.5 -68.5t64.5 -29.5q30 0 51 7v-100zM265 578q19 55 32 106t21 100l96 8q-38 -128 -93 -224z" />
    <glyph glyph-name="Tbar" unicode="&#x166;" horiz-adv-x="487" 
d="M471 382v-52h-172v-330h-110v330h-173v52h173v223h-173v107h455v-107h-172v-223h172z" />
    <glyph glyph-name="tbar" unicode="&#x167;" horiz-adv-x="351" 
d="M332 241h-136v-49q0 -40 22 -70t64 -30q31 0 54 6v-97q-25 -7 -57 -7q-48 0 -83.5 14.5t-59.5 41t-35.5 63.5t-11.5 82v46h-71v46h71v156h-71v87h71v108l107 42v-150h136v-87h-136v-156h136v-46z" />
    <glyph glyph-name="Utilde" unicode="&#x168;" horiz-adv-x="661" 
d="M585 257q0 -122 -75 -195q-73 -73 -179 -73q-108 0 -181 73q-74 74 -74 195v455h109v-448q0 -39 11 -70t30.5 -52.5t46.5 -32.5t58 -11q30 0 56.5 11t46 32.5t30.5 52.5t11 70v448h110v-455zM382 820q-22 0 -61 17t-57 17q-29 0 -46 -32l-57 38q40 67 110 67q20 0 62 -17
q43 -17 56 -17q26 0 47 33l56 -38q-42 -68 -110 -68z" />
    <glyph glyph-name="utilde" unicode="&#x169;" horiz-adv-x="602" 
d="M300 -11q-53 0 -95.5 16t-72 46.5t-45.5 74t-16 97.5v307h107v-294q0 -76 34 -111t88 -35q55 0 89 34.5t34 111.5v294h107v-307q0 -54 -16 -97.5t-45.5 -74t-72 -46.5t-96.5 -16zM358 638q-22 0 -61 17t-57 17q-29 0 -46 -32l-57 38q40 67 110 67q20 0 62 -17
q43 -17 56 -17q26 0 47 33l56 -38q-42 -68 -110 -68z" />
    <glyph glyph-name="Umacron" unicode="&#x16a;" horiz-adv-x="661" 
d="M585 257q0 -122 -75 -195q-73 -73 -179 -73q-108 0 -181 73q-74 74 -74 195v455h109v-448q0 -39 11 -70t30.5 -52.5t46.5 -32.5t58 -11q30 0 56.5 11t46 32.5t30.5 52.5t11 70v448h110v-455zM194 911h276v-72h-276v72z" />
    <glyph glyph-name="umacron" unicode="&#x16b;" horiz-adv-x="602" 
d="M300 -11q-53 0 -95.5 16t-72 46.5t-45.5 74t-16 97.5v307h107v-294q0 -76 34 -111t88 -35q55 0 89 34.5t34 111.5v294h107v-307q0 -54 -16 -97.5t-45.5 -74t-72 -46.5t-96.5 -16zM164 729h276v-72h-276v72z" />
    <glyph glyph-name="Ubreve" unicode="&#x16c;" horiz-adv-x="661" 
d="M585 257q0 -122 -75 -195q-73 -73 -179 -73q-108 0 -181 73q-74 74 -74 195v455h109v-448q0 -39 11 -70t30.5 -52.5t46.5 -32.5t58 -11q30 0 56.5 11t46 32.5t30.5 52.5t11 70v448h110v-455zM503 917q-25 -63 -72 -91t-101 -28q-53 0 -101 28.5t-72 90.5l65 28
q12 -32 32 -50q20 -17 36.5 -21t39.5 -4q35 0 62.5 14.5t46.5 60.5z" />
    <glyph glyph-name="ubreve" unicode="&#x16d;" horiz-adv-x="602" 
d="M300 -11q-53 0 -95.5 16t-72 46.5t-45.5 74t-16 97.5v307h107v-294q0 -76 34 -111t88 -35q55 0 89 34.5t34 111.5v294h107v-307q0 -54 -16 -97.5t-45.5 -74t-72 -46.5t-96.5 -16zM474 735q-25 -63 -72 -91t-101 -28q-53 0 -101 28.5t-72 90.5l65 28q12 -32 32 -50
q20 -17 36.5 -21t39.5 -4q35 0 62.5 14.5t46.5 60.5z" />
    <glyph glyph-name="Uring" unicode="&#x16e;" horiz-adv-x="661" 
d="M260 804q-15 15 -22 33t-7 37t7 37t22 33t33.5 22.5t37.5 7.5t37 -7.5t33 -22.5t22 -33t7 -37t-7 -37t-22 -33t-33 -22t-37 -7t-37.5 7t-33.5 22zM299 906q-13 -13 -13 -32t13 -32t32 -13t32 13t13 32t-13 32t-32 13t-32 -13zM585 257q0 -122 -75 -195q-73 -73 -179 -73
q-108 0 -181 73q-74 74 -74 195v455h109v-448q0 -39 11 -70t30.5 -52.5t46.5 -32.5t58 -11q30 0 56.5 11t46 32.5t30.5 52.5t11 70v448h110v-455z" />
    <glyph glyph-name="uring" unicode="&#x16f;" horiz-adv-x="602" 
d="M230 622q-15 15 -22 33t-7 37t7 37t22 33t33.5 22.5t37.5 7.5t37 -7.5t33 -22.5t22 -33t7 -37t-7 -37t-22 -33t-33 -22t-37 -7t-37.5 7t-33.5 22zM269 724q-13 -13 -13 -32t13 -32t32 -13t32 13t13 32t-13 32t-32 13t-32 -13zM300 -11q-53 0 -95.5 16t-72 46.5t-45.5 74
t-16 97.5v307h107v-294q0 -76 34 -111t88 -35q55 0 89 34.5t34 111.5v294h107v-307q0 -54 -16 -97.5t-45.5 -74t-72 -46.5t-96.5 -16z" />
    <glyph glyph-name="Uhungarumlaut" unicode="&#x170;" horiz-adv-x="661" 
d="M585 257q0 -122 -75 -195q-73 -73 -179 -73q-108 0 -181 73q-74 74 -74 195v455h109v-448q0 -39 11 -70t30.5 -52.5t46.5 -32.5t58 -11q30 0 56.5 11t46 32.5t30.5 52.5t11 70v448h110v-455zM307 966l56 -58l-139 -126l-45 45zM462 966l57 -58l-139 -126l-45 45z" />
    <glyph glyph-name="uhungarumlaut" unicode="&#x171;" horiz-adv-x="602" 
d="M300 -11q-53 0 -95.5 16t-72 46.5t-45.5 74t-16 97.5v307h107v-294q0 -76 34 -111t88 -35q55 0 89 34.5t34 111.5v294h107v-307q0 -54 -16 -97.5t-45.5 -74t-72 -46.5t-96.5 -16zM265 784l56 -58l-139 -126l-45 45zM420 784l57 -58l-139 -126l-45 45z" />
    <glyph glyph-name="Uogonek" unicode="&#x172;" horiz-adv-x="661" 
d="M381 -202q-29 -15 -62 -15q-21 0 -39.5 7t-32 19t-21.5 28.5t-8 35.5q0 64 71 120q-93 13 -153 84q-60 70 -60 180v455h109v-448q0 -39 11 -70t30.5 -52.5t46.5 -32.5t58 -11q30 0 56.5 11t46 32.5t30.5 52.5t11 70v448h110v-455q0 -50 -13.5 -91.5t-37.5 -74.5t-57 -56
t-72 -35q-44 -17 -77 -52q-35 -37 -35 -66q0 -14 9.5 -22.5t23.5 -8.5q27 0 55 20v-73z" />
    <glyph glyph-name="uogonek" unicode="&#x173;" horiz-adv-x="602" 
d="M358 -202q-29 -15 -62 -15q-21 0 -39.5 7t-32 19t-21.5 28.5t-8 35.5q0 64 69 118q-91 11 -142 71.5t-51 160.5v307h107v-294q0 -76 34 -111t88 -35q55 0 89 34.5t34 111.5v294h107v-307q0 -85 -37.5 -143t-106.5 -79q-42 -14 -80 -51q-36 -38 -36 -68q0 -14 9.5 -22.5
t23.5 -8.5q27 0 55 20v-73z" />
    <glyph glyph-name="Wcircumflex" unicode="&#x174;" horiz-adv-x="892" 
d="M31 712h113l66 -390q11 -60 15 -133h7q13 45 24 77.5t20 54.5l146 361h49l146 -361q5 -12 11 -30.5t14 -43.5l18 -58h7q6 84 15 133l67 390h112l-122 -712h-109l-137 336q-16 38 -26.5 67t-16.5 51h-7q-5 -17 -15.5 -46t-27.5 -71l-139 -337h-108zM624 834l-38 -52
l-139 86l-140 -86l-38 52l178 136z" />
    <glyph glyph-name="wcircumflex" unicode="&#x175;" horiz-adv-x="807" 
d="M671 530h110l-144 -530h-76l-116 236q-17 36 -40 98h-4q-2 -4 -6 -15.5t-10 -26t-12.5 -30t-12.5 -26.5l-116 -236h-75l-145 530h111l66 -252q13 -47 22 -119h6q17 61 45 118l106 227h45l106 -227q26 -56 46 -118h5q1 2 2.5 14t5.5 35q7 45 15 70zM580 652l-38 -52
l-139 86l-140 -86l-38 52l178 136z" />
    <glyph glyph-name="Ycircumflex" unicode="&#x176;" horiz-adv-x="612" 
d="M11 712h125l124 -214q8 -14 19 -35.5t24 -49.5h6q13 36 42 84l125 215h124l-239 -418v-294h-110v294zM484 834l-38 -52l-139 86l-140 -86l-38 52l178 136z" />
    <glyph glyph-name="ycircumflex" unicode="&#x177;" horiz-adv-x="576" 
d="M444 530h117l-351 -746h-114l136 279l-216 467h118l111 -244q11 -24 41 -106h6q5 17 15.5 44t26.5 62zM467 652l-38 -52l-139 86l-140 -86l-38 52l178 136z" />
    <glyph glyph-name="Ydieresis" unicode="&#x178;" horiz-adv-x="612" 
d="M11 712h125l124 -214q8 -14 19 -35.5t24 -49.5h6q13 36 42 84l125 215h124l-239 -418v-294h-110v294zM264 915q18 -17 18 -41t-18 -41q-17 -17 -41 -17t-41 17t-17 41t17 41q17 18 41 18t41 -18zM353 915q17 18 41 18t41 -18q18 -17 18 -41t-18 -41q-17 -17 -41 -17
t-41 17t-17 41t17 41z" />
    <glyph glyph-name="Zacute" unicode="&#x179;" horiz-adv-x="573" 
d="M51 712h499v-72l-322 -459q-15 -21 -28.5 -38.5t-25.5 -31.5v-8q30 2 51.5 3t34.5 1h292v-107h-531v72l322 458q11 16 25 34t31 38v7q-42 -3 -93 -3h-255v106zM207 772l-38 56l198 148l47 -70z" />
    <glyph glyph-name="zacute" unicode="&#x17a;" horiz-adv-x="508" 
d="M244 159q-18 -23 -31.5 -40t-22.5 -27v-6q14 1 36 1.5t53 0.5h200v-88h-451v44l244 333q15 20 27.5 36t22.5 27v5q-51 -3 -91 -3h-180v88h428v-46zM168 590l-38 56l198 148l47 -70z" />
    <glyph glyph-name="Zdotaccent" unicode="&#x17b;" horiz-adv-x="573" 
d="M51 712h499v-72l-322 -459q-15 -21 -28.5 -38.5t-25.5 -31.5v-8q30 2 51.5 3t34.5 1h292v-107h-531v72l322 458q11 16 25 34t31 38v7q-42 -3 -93 -3h-255v106zM289 816q-25 0 -41.5 17t-16.5 41t17 41.5t41 17.5t41 -17.5t17 -41.5t-17 -41t-41 -17z" />
    <glyph glyph-name="zdotaccent" unicode="&#x17c;" horiz-adv-x="508" 
d="M244 159q-18 -23 -31.5 -40t-22.5 -27v-6q14 1 36 1.5t53 0.5h200v-88h-451v44l244 333q15 20 27.5 36t22.5 27v5q-51 -3 -91 -3h-180v88h428v-46zM256 634q-25 0 -41.5 17t-16.5 41t17 41.5t41 17.5t41 -17.5t17 -41.5t-17 -41t-41 -17z" />
    <glyph glyph-name="Zcaron" unicode="&#x17d;" horiz-adv-x="573" 
d="M51 712h499v-72l-322 -459q-15 -21 -28.5 -38.5t-25.5 -31.5v-8q30 2 51.5 3t34.5 1h292v-107h-531v72l322 458q11 16 25 34t31 38v7q-42 -3 -93 -3h-255v106zM430 970l38 -52l-177 -136l-178 136l38 52l140 -86z" />
    <glyph glyph-name="zcaron" unicode="&#x17e;" horiz-adv-x="508" 
d="M244 159q-18 -23 -31.5 -40t-22.5 -27v-6q14 1 36 1.5t53 0.5h200v-88h-451v44l244 333q15 20 27.5 36t22.5 27v5q-51 -3 -91 -3h-180v88h428v-46zM393 788l38 -52l-177 -136l-178 136l38 52l140 -86z" />
    <glyph glyph-name="longs" unicode="&#x17f;" horiz-adv-x="260" 
d="M323 671q-25 7 -53 7q-42 0 -64 -30t-22 -70v-578h-105v484h-63v46h63v39q0 89 46 147q47 59 142 59q26 0 56 -8v-96z" />
    <glyph glyph-name="florin" unicode="&#x192;" horiz-adv-x="524" 
d="M469 505q0 -1 -1.5 -12.5t-5.5 -34.5t-5.5 -34.5t-2.5 -13.5h-106l-57 -297l-12 -59q-2 -11 -5.5 -25t-8 -28.5t-9.5 -28t-10 -22.5q-10 -19 -27.5 -41t-38.5 -34t-51.5 -20t-67.5 -8q-25 0 -55 3l18 103q21 -3 44 -3q25 0 43 8t29 20q12 12 19 33q9 22 13 39.5t9 48.5
l58 311h-78q3 28 15 95h81l12 72q23 129 83 166q29 19 53 25.5t54 6.5q11 1 57 -5l-18 -105q-21 9 -39 9q-44 0 -63 -39q-8 -18 -12.5 -33t-7.5 -36q-1 -2 -4.5 -17t-8.5 -44h106z" />
    <glyph glyph-name="AEacute" unicode="&#x1fc;" horiz-adv-x="1019" 
d="M955 606h-297v-178h288v-106h-288v-215h297v-107h-408v158h-283l-121 -158h-137l550 712h399v-106zM345 265h202v279h-6q-17 -34 -34 -61.5t-34 -49.5zM665 766l-38 56l198 148l47 -70z" />
    <glyph glyph-name="aeacute" unicode="&#x1fd;" horiz-adv-x="907" 
d="M496 247q8 -75 49.5 -119.5t107.5 -44.5q83 0 160 42v-108q-75 -28 -161 -28q-129 0 -205 96q-78 -96 -218 -96q-97 0 -140 43t-43 125q0 165 244 165h93v27q0 42 -39 71q-40 29 -86 29q-79 0 -148 -42v104q71 31 148 31q126 0 191 -83q75 83 185 83q53 0 96 -19.5
t73 -57t46.5 -92.5t16.5 -126h-370zM634 454q-52 0 -88.5 -36t-48.5 -96h266q-2 30 -13 54.5t-28 42t-40 26.5t-48 9zM383 247h-79q-75 0 -113 -18t-38 -69q0 -81 95 -81q60 0 97 37q38 38 38 89v42zM553 590l-38 56l198 148l47 -70z" />
    <glyph glyph-name="Oslashacute" unicode="&#x1fe;" horiz-adv-x="816" 
d="M757 733l-96 -115q107 -107 107 -262t-105 -261t-256 -106q-120 0 -215 71l-95 -114l-40 34l96 114q-106 106 -106 262q0 153 105 260q105 108 255 108q117 0 215 -71l96 114zM159 356q0 -105 64 -178l329 392q-62 47 -145 47q-108 0 -178 -76t-70 -185zM656 356
q0 102 -65 178l-330 -392q62 -46 146 -46q108 0 179 75q70 76 70 185zM327 766l-38 56l198 148l47 -70z" />
    <glyph glyph-name="oslashacute" unicode="&#x1ff;" horiz-adv-x="617" 
d="M576 547l-74 -87q74 -83 74 -196t-77 -195q-77 -80 -191 -80q-87 0 -158 50l-73 -85l-35 30l73 86q-73 80 -73 192q0 121 77 201q76 79 189 79q86 0 160 -51l72 86zM466 265q0 58 -34 111l-217 -257q43 -31 94 -31q67 0 112 50q45 49 45 127zM151 263q0 -56 34 -109
l215 257q-47 32 -91 32q-66 0 -112 -51q-46 -49 -46 -129zM227 590l-38 56l198 148l47 -70z" />
    <glyph glyph-name="uni0200" unicode="&#x200;" horiz-adv-x="724" 
d="M328 712h67l317 -712h-120l-69 158h-323l-68 -158h-121zM476 265l-79 182q-9 22 -17 43.5t-15 43.5h-6q-2 -7 -15 -38l-19 -49l-79 -182h230zM306 908l57 58l127 -139l-45 -45zM150 908l57 58l127 -139l-45 -45z" />
    <glyph glyph-name="uni0201" unicode="&#x201;" horiz-adv-x="559" 
d="M380 229q-86 16 -121 16q-110 0 -110 -85q0 -40 22.5 -59.5t73.5 -19.5q30 0 55 9.5t42.5 26.5t27.5 39.5t10 48.5v24zM255 542q99 0 166 -53q66 -53 66 -141v-348h-94l-9 66q-59 -77 -159 -77q-183 0 -183 168q0 73 57 121t158 48q41 0 123 -20v43q0 40 -39 69
q-40 29 -86 29q-76 0 -149 -38v102q72 31 149 31zM230 726l57 58l127 -139l-45 -45zM74 726l57 58l127 -139l-45 -45z" />
    <glyph glyph-name="uni0202" unicode="&#x202;" horiz-adv-x="724" 
d="M328 712h67l317 -712h-120l-69 158h-323l-68 -158h-121zM476 265l-79 182q-9 22 -17 43.5t-15 43.5h-6q-2 -7 -15 -38l-19 -49l-79 -182h230zM540 834l-38 -52l-139 86l-140 -86l-38 52l178 136z" />
    <glyph glyph-name="uni0203" unicode="&#x203;" horiz-adv-x="559" 
d="M380 229q-86 16 -121 16q-110 0 -110 -85q0 -40 22.5 -59.5t73.5 -19.5q30 0 55 9.5t42.5 26.5t27.5 39.5t10 48.5v24zM255 542q99 0 166 -53q66 -53 66 -141v-348h-94l-9 66q-59 -77 -159 -77q-183 0 -183 168q0 73 57 121t158 48q41 0 123 -20v43q0 40 -39 69
q-40 29 -86 29q-76 0 -149 -38v102q72 31 149 31zM449 652l-38 -52l-139 86l-140 -86l-38 52l178 136z" />
    <glyph glyph-name="uni0204" unicode="&#x204;" horiz-adv-x="569" 
d="M96 0v712h407v-106h-297v-178h288v-106h-288v-215h297v-107h-407zM245 908l57 58l127 -139l-45 -45zM89 908l57 58l127 -139l-45 -45z" />
    <glyph glyph-name="uni0205" unicode="&#x205;" horiz-adv-x="564" 
d="M420 326q-4 60 -41 93t-89 33q-54 0 -89 -34t-47 -92h266zM469 17q-75 -28 -161 -28q-117 0 -192 78t-75 207q0 116 68 192q67 76 181 76q53 0 96 -18t73.5 -53t47 -87t16.5 -121v-18h-371q9 -75 50 -117.5t107 -42.5q89 0 160 40v-108zM255 726l57 58l127 -139l-45 -45z
M99 726l57 58l127 -139l-45 -45z" />
    <glyph glyph-name="uni0206" unicode="&#x206;" horiz-adv-x="549" 
d="M78 0v712h407v-106h-297v-178h288v-106h-288v-215h297v-107h-407zM451 834l-38 -52l-139 86l-140 -86l-38 52l178 136z" />
    <glyph glyph-name="uni0207" unicode="&#x207;" horiz-adv-x="564" 
d="M420 326q-4 60 -41 93t-89 33q-54 0 -89 -34t-47 -92h266zM469 17q-75 -28 -161 -28q-117 0 -192 78t-75 207q0 116 68 192q67 76 181 76q53 0 96 -18t73.5 -53t47 -87t16.5 -121v-18h-371q9 -75 50 -117.5t107 -42.5q89 0 160 40v-108zM471 652l-38 -52l-139 86
l-140 -86l-38 52l178 136z" />
    <glyph glyph-name="uni0208" unicode="&#x208;" horiz-adv-x="265" 
d="M74 908l57 58l127 -139l-45 -45zM-82 908l57 58l127 -139l-45 -45zM188 712v-712h-110v712h110z" />
    <glyph glyph-name="uni0209" unicode="&#x209;" horiz-adv-x="251" 
d="M98 726l57 58l127 -139l-45 -45zM-58 726l57 58l127 -139l-45 -45zM179 530v-530h-107v530h107z" />
    <glyph glyph-name="uni020A" unicode="&#x20a;" horiz-adv-x="265" 
d="M311 834l-38 -52l-139 86l-140 -86l-38 52l178 136zM188 712v-712h-110v712h110z" />
    <glyph glyph-name="uni020B" unicode="&#x20b;" horiz-adv-x="251" 
d="M298 652l-38 -52l-139 86l-140 -86l-38 52l178 136zM179 530v-530h-107v530h107z" />
    <glyph glyph-name="uni020C" unicode="&#x20c;" horiz-adv-x="811" 
d="M405 724q151 0 256 -107t105 -261q0 -155 -105 -261t-256 -106q-150 0 -255 107q-105 106 -105 260q0 153 105 260q105 108 255 108zM405 96q108 0 179 75q70 76 70 185t-70 185t-179 76q-108 0 -178 -76t-70 -185t70 -185q70 -75 178 -75zM346 908l57 58l127 -139
l-45 -45zM190 908l57 58l127 -139l-45 -45z" />
    <glyph glyph-name="uni020D" unicode="&#x20d;" horiz-adv-x="617" 
d="M42 262q0 121 77 201q76 79 189 79q114 0 191 -81q77 -82 77 -197q0 -113 -77 -195q-77 -80 -191 -80q-115 0 -191 79q-75 79 -75 194zM152 263q0 -74 44 -124q45 -49 113 -49q69 0 112 49q45 49 45 126q0 76 -47 126t-110 50q-65 0 -112 -50q-45 -50 -45 -128zM263 726
l57 58l127 -139l-45 -45zM107 726l57 58l127 -139l-45 -45z" />
    <glyph glyph-name="uni020E" unicode="&#x20e;" horiz-adv-x="811" 
d="M405 724q151 0 256 -107t105 -261q0 -155 -105 -261t-256 -106q-150 0 -255 107q-105 106 -105 260q0 153 105 260q105 108 255 108zM405 96q108 0 179 75q70 76 70 185t-70 185t-179 76q-108 0 -178 -76t-70 -185t70 -185q70 -75 178 -75zM580 834l-38 -52l-139 86
l-140 -86l-38 52l178 136z" />
    <glyph glyph-name="uni020F" unicode="&#x20f;" horiz-adv-x="617" 
d="M42 262q0 121 77 201q76 79 189 79q114 0 191 -81q77 -82 77 -197q0 -113 -77 -195q-77 -80 -191 -80q-115 0 -191 79q-75 79 -75 194zM152 263q0 -74 44 -124q45 -49 113 -49q69 0 112 49q45 49 45 126q0 76 -47 126t-110 50q-65 0 -112 -50q-45 -50 -45 -128zM489 652
l-38 -52l-139 86l-140 -86l-38 52l178 136z" />
    <glyph glyph-name="uni0210" unicode="&#x210;" horiz-adv-x="597" 
d="M78 712h201q119 0 181 -61q64 -61 64 -154q0 -75 -43 -130.5t-118 -76.5l214 -290h-134l-201 280h-55v-280h-109v712zM187 606v-221h91q61 0 97.5 30.5t36.5 81.5t-37 80t-98 29h-90zM213 908l57 58l127 -139l-45 -45zM57 908l57 58l127 -139l-45 -45z" />
    <glyph glyph-name="uni0211" unicode="&#x211;" horiz-adv-x="371" 
d="M177 452q24 43 66.5 63.5t88.5 20.5q16 0 21 -1v-104q-5 0 -13.5 0.5t-11.5 0.5q-86 0 -117 -46q-32 -46 -32 -118v-268h-107v530h96zM172 726l57 58l127 -139l-45 -45zM16 726l57 58l127 -139l-45 -45z" />
    <glyph glyph-name="uni0212" unicode="&#x212;" horiz-adv-x="597" 
d="M78 712h201q119 0 181 -61q64 -61 64 -154q0 -75 -43 -130.5t-118 -76.5l214 -290h-134l-201 280h-55v-280h-109v712zM187 606v-221h91q61 0 97.5 30.5t36.5 81.5t-37 80t-98 29h-90zM433 834l-38 -52l-139 86l-140 -86l-38 52l178 136z" />
    <glyph glyph-name="uni0213" unicode="&#x213;" horiz-adv-x="371" 
d="M177 452q24 43 66.5 63.5t88.5 20.5q16 0 21 -1v-104q-5 0 -13.5 0.5t-11.5 0.5q-86 0 -117 -46q-32 -46 -32 -118v-268h-107v530h96zM381 652l-38 -52l-139 86l-140 -86l-38 52l178 136z" />
    <glyph glyph-name="uni0214" unicode="&#x214;" horiz-adv-x="661" 
d="M585 257q0 -122 -75 -195q-73 -73 -179 -73q-108 0 -181 73q-74 74 -74 195v455h109v-448q0 -39 11 -70t30.5 -52.5t46.5 -32.5t58 -11q30 0 56.5 11t46 32.5t30.5 52.5t11 70v448h110v-455zM274 908l57 58l127 -139l-45 -45zM118 908l57 58l127 -139l-45 -45z" />
    <glyph glyph-name="uni0215" unicode="&#x215;" horiz-adv-x="602" 
d="M300 -11q-53 0 -95.5 16t-72 46.5t-45.5 74t-16 97.5v307h107v-294q0 -76 34 -111t88 -35q55 0 89 34.5t34 111.5v294h107v-307q0 -54 -16 -97.5t-45.5 -74t-72 -46.5t-96.5 -16zM259 726l57 58l127 -139l-45 -45zM103 726l57 58l127 -139l-45 -45z" />
    <glyph glyph-name="uni0216" unicode="&#x216;" horiz-adv-x="661" 
d="M585 257q0 -122 -75 -195q-73 -73 -179 -73q-108 0 -181 73q-74 74 -74 195v455h109v-448q0 -39 11 -70t30.5 -52.5t46.5 -32.5t58 -11q30 0 56.5 11t46 32.5t30.5 52.5t11 70v448h110v-455zM507 834l-38 -52l-139 86l-140 -86l-38 52l178 136z" />
    <glyph glyph-name="uni0217" unicode="&#x217;" horiz-adv-x="602" 
d="M300 -11q-53 0 -95.5 16t-72 46.5t-45.5 74t-16 97.5v307h107v-294q0 -76 34 -111t88 -35q55 0 89 34.5t34 111.5v294h107v-307q0 -54 -16 -97.5t-45.5 -74t-72 -46.5t-96.5 -16zM479 652l-38 -52l-139 86l-140 -86l-38 52l178 136z" />
    <glyph glyph-name="Scommaaccent" unicode="&#x218;" horiz-adv-x="533" 
d="M168 532q0 -29 23 -49t57.5 -38t75 -37t75 -45t57.5 -62.5t23 -89.5q0 -96 -66 -159q-65 -63 -166 -63q-108 0 -184 66v131q29 -34 81 -62q53 -29 107 -29q24 0 45 7.5t37 21t25 32t9 41.5q0 36 -32 64t-78 49q-33 15 -68.5 33t-65.5 43t-49 59t-18 79q0 90 61 145
t153 55q99 0 175 -56v-128q-86 77 -180 77q-19 0 -36.5 -6t-31 -17.5t-21.5 -27t-8 -34.5zM178 -256q19 55 32 106t21 100l96 8q-38 -128 -93 -224z" />
    <glyph glyph-name="scommaaccent" unicode="&#x219;" horiz-adv-x="437" 
d="M387 150q0 -71 -51 -116q-50 -45 -125 -45q-79 0 -149 30v107q70 -43 141 -43q31 0 52.5 15t21.5 40q0 23 -23 44t-56 40q-23 14 -48.5 30t-46.5 35.5t-35 44t-14 54.5q0 67 50 111q49 45 124 45q63 0 135 -29v-109q-74 44 -129 44q-25 0 -47.5 -14t-22.5 -38
q0 -21 23 -42t56 -40q24 -13 49.5 -29t46.5 -36t34.5 -44.5t13.5 -54.5zM106 -256q19 55 32 106t21 100l96 8q-38 -128 -93 -224z" />
    <glyph glyph-name="uni021A" unicode="&#x21a;" horiz-adv-x="487" 
d="M299 605v-605h-110v605h-173v107h455v-107h-172zM161 -256q19 55 32 106t21 100l96 8q-38 -128 -93 -224z" />
    <glyph glyph-name="uni021B" unicode="&#x21b;" horiz-adv-x="352" 
d="M333 1q-30 -8 -55 -8q-47 0 -82.5 15t-59.5 41t-36 62.5t-12 80.5v250h-70v88h70v106l107 44v-150h138v-88h-138v-250q0 -39 22.5 -68.5t64.5 -29.5q30 0 51 7v-100zM104 -256q19 55 32 106t21 100l96 8q-38 -128 -93 -224z" />
    <glyph glyph-name="circumflex" unicode="&#x2c6;" horiz-adv-x="406" 
d="M379 601l-38 -52l-139 86l-140 -86l-38 52l178 136z" />
    <glyph glyph-name="caron" unicode="&#x2c7;" horiz-adv-x="406" 
d="M341 737l38 -52l-177 -136l-178 136l38 52l140 -86z" />
    <glyph glyph-name="breve" unicode="&#x2d8;" horiz-adv-x="403" 
d="M372 684q-25 -63 -72 -91t-101 -28q-53 0 -101 28.5t-72 90.5l65 28q12 -32 32 -50q20 -17 36.5 -21t39.5 -4q35 0 62.5 14.5t46.5 60.5z" />
    <glyph glyph-name="dotaccent" unicode="&#x2d9;" horiz-adv-x="404" 
d="M200 583q-25 0 -41.5 17t-16.5 41t17 41.5t41 17.5t41 -17.5t17 -41.5t-17 -41t-41 -17z" />
    <glyph glyph-name="ring" unicode="&#x2da;" horiz-adv-x="401" 
d="M127 571q-15 15 -22 33t-7 37t7 37t22 33t33.5 22.5t37.5 7.5t37 -7.5t33 -22.5t22 -33t7 -37t-7 -37t-22 -33t-33 -22t-37 -7t-37.5 7t-33.5 22zM166 673q-13 -13 -13 -32t13 -32t32 -13t32 13t13 32t-13 32t-32 13t-32 -13z" />
    <glyph glyph-name="ogonek" unicode="&#x2db;" horiz-adv-x="404" 
d="M283 -202q-29 -15 -62 -15q-21 0 -39.5 7t-32 19t-21.5 28.5t-8 35.5q0 34 23 68t60 60h108q-42 -14 -80 -51q-36 -38 -36 -68q0 -14 9.5 -22.5t23.5 -8.5q27 0 55 20v-73z" />
    <glyph glyph-name="tilde" unicode="&#x2dc;" horiz-adv-x="403" 
d="M253 587q-22 0 -61 17t-57 17q-29 0 -46 -32l-57 38q40 67 110 67q20 0 62 -17q43 -17 56 -17q26 0 47 33l56 -38q-42 -68 -110 -68z" />
    <glyph glyph-name="hungarumlaut" unicode="&#x2dd;" horiz-adv-x="405" 
d="M159 733l56 -58l-139 -126l-45 45zM314 733l57 -58l-139 -126l-45 45z" />
    <glyph glyph-name="doublegrave" unicode="&#x30f;" horiz-adv-x="405" 
d="M187 675l57 58l127 -139l-45 -45zM31 675l57 58l127 -139l-45 -45z" />
    <glyph glyph-name="uni037E" unicode="&#x37e;" horiz-adv-x="297" 
d="M204 470q0 -28 -19.5 -47t-47.5 -19t-47.5 19t-19.5 47q0 29 19.5 49t47.5 20t47.5 -20t19.5 -49zM11 -208q52 149 71 281l122 12q-54 -183 -126 -305z" />
    <glyph glyph-name="tonos" unicode="&#x384;" horiz-adv-x="301" 
d="M160 754l76 -35l-94 -179l-60 30z" />
    <glyph glyph-name="dieresistonos" unicode="&#x385;" horiz-adv-x="346" 
d="M40 583q-25 0 -41.5 17t-16.5 41t17 41.5t41 17.5q23 0 40.5 -17.5t17.5 -41.5t-17.5 -41t-40.5 -17zM265 682q17 18 41 18t41 -18q17 -17 17 -41t-17 -41t-41 -17t-41 17t-17 41t17 41zM176 740l67 -31l-81 -155l-54 26z" />
    <glyph glyph-name="Alphatonos" unicode="&#x386;" horiz-adv-x="724" 
d="M328 712h67l317 -712h-120l-69 158h-323l-68 -158h-121zM476 265l-79 182q-9 22 -17 43.5t-15 43.5h-6q-2 -7 -15 -38l-19 -49l-79 -182h230zM103 754l76 -35l-94 -179l-60 30z" />
    <glyph glyph-name="anoteleia" unicode="&#x387;" horiz-adv-x="425" 
d="M201 309q29 0 48.5 -19.5t19.5 -48.5q0 -28 -19.5 -47t-48.5 -19q-28 0 -47.5 19t-19.5 47t19.5 48t47.5 20z" />
    <glyph glyph-name="Epsilontonos" unicode="&#x388;" horiz-adv-x="618" 
d="M147 0v712h407v-106h-297v-178h288v-106h-288v-215h297v-107h-407zM1 754l76 -35l-94 -179l-60 30z" />
    <glyph glyph-name="Etatonos" unicode="&#x389;" horiz-adv-x="743" 
d="M556 428v284h110v-712h-110v321h-299v-321h-110v712h110v-284h299zM1 754l76 -35l-94 -179l-60 30z" />
    <glyph glyph-name="Iotatonos" unicode="&#x38a;" horiz-adv-x="334" 
d="M257 712v-712h-110v712h110zM1 754l76 -35l-94 -179l-60 30z" />
    <glyph glyph-name="Omicrontonos" unicode="&#x38c;" horiz-adv-x="880" 
d="M474 724q151 0 256 -107t105 -261q0 -155 -105 -261t-256 -106q-150 0 -255 107q-105 106 -105 260q0 153 105 260q105 108 255 108zM474 96q108 0 179 75q70 76 70 185t-70 185t-179 76q-108 0 -178 -76t-70 -185t70 -185q70 -75 178 -75zM17 754l76 -35l-94 -179
l-60 30z" />
    <glyph glyph-name="Upsilontonos" unicode="&#x38e;" horiz-adv-x="704" 
d="M103 712h125l124 -214q8 -14 19 -35.5t24 -49.5h6q13 36 42 84l125 215h124l-239 -418v-294h-110v294zM1 754l76 -35l-94 -179l-60 30z" />
    <glyph glyph-name="Omegatonos" unicode="&#x38f;" horiz-adv-x="855" 
d="M666 103q16 2 32.5 3t33.5 1h71v-107h-278v122q75 30 125 98q50 70 50 150q0 106 -65 177q-64 70 -172 70q-109 0 -173 -70t-64 -177q0 -80 50 -150q50 -68 125 -98v-122h-279v107h71q17 0 33.5 -1t33.5 -3v6q-20 13 -35.5 27t-27.5 28q-83 98 -83 206q0 153 98 254
q99 100 251 100t249 -100q99 -101 99 -254q0 -112 -82 -206q-12 -14 -27.5 -28t-35.5 -27v-6zM18 754l76 -35l-94 -179l-60 30z" />
    <glyph glyph-name="iotadieresistonos" unicode="&#x390;" horiz-adv-x="286" 
d="M5 634q-25 0 -41.5 17t-16.5 41t17 41.5t41 17.5q23 0 40.5 -17.5t17.5 -41.5t-17.5 -41t-40.5 -17zM230 733q17 18 41 18t41 -18q17 -17 17 -41t-17 -41t-41 -17t-41 17t-17 41t17 41zM141 791l67 -31l-81 -155l-54 26zM264 -4q-82 2 -138 59q-56 59 -56 139v336h106
v-336q0 -39 25.5 -68t62.5 -32v-98z" />
    <glyph glyph-name="Alpha" unicode="&#x391;" horiz-adv-x="724" 
d="M328 712h67l317 -712h-120l-69 158h-323l-68 -158h-121zM476 265l-79 182q-9 22 -17 43.5t-15 43.5h-6q-2 -7 -15 -38l-19 -49l-79 -182h230z" />
    <glyph glyph-name="Beta" unicode="&#x392;" horiz-adv-x="587" 
d="M187 606v-193h103q52 0 82.5 24.5t30.5 72.5q0 45 -32.5 70.5t-83.5 25.5h-100zM187 308v-201h115q57 0 91 25.5t34 76.5q0 48 -35 73.5t-95 25.5h-110zM78 712h204q112 0 171 -59t59 -143q0 -45 -20 -81.5t-55 -58.5q46 -22 73.5 -67t27.5 -96q0 -97 -66 -152
q-65 -55 -165 -55h-229v712z" />
    <glyph glyph-name="Gamma" unicode="&#x393;" horiz-adv-x="443" 
d="M188 605v-605h-110v712h349v-107h-239z" />
    <glyph glyph-name="Delta" unicode="&#x394;" horiz-adv-x="685" 
d="M339 531q-14 -44 -24 -74.5t-17 -48.5l-119 -300h327l-120 301q-5 14 -15.5 44t-25.5 78h-6zM46 0v75l260 637h74l259 -637v-75h-593z" />
    <glyph glyph-name="Epsilon" unicode="&#x395;" horiz-adv-x="549" 
d="M78 0v712h407v-106h-297v-178h288v-106h-288v-215h297v-107h-407z" />
    <glyph glyph-name="Zeta" unicode="&#x396;" horiz-adv-x="573" 
d="M51 712h499v-72l-322 -459q-15 -21 -28.5 -38.5t-25.5 -31.5v-8q30 2 51.5 3t34.5 1h292v-107h-531v72l322 458q11 16 25 34t31 38v7q-42 -3 -93 -3h-255v106z" />
    <glyph glyph-name="Eta" unicode="&#x397;" horiz-adv-x="674" 
d="M487 428v284h110v-712h-110v321h-299v-321h-110v712h110v-284h299z" />
    <glyph glyph-name="Theta" unicode="&#x398;" horiz-adv-x="807" 
d="M282 405h248v-98h-248v98zM405 724q151 0 256 -107t105 -261q0 -155 -105 -261t-256 -106q-150 0 -255 107q-105 106 -105 260q0 153 105 260q105 108 255 108zM405 96q108 0 179 75q70 76 70 185t-70 185t-179 76q-108 0 -178 -76t-70 -185t70 -185q70 -75 178 -75z" />
    <glyph glyph-name="Iota" unicode="&#x399;" horiz-adv-x="265" 
d="M188 712v-712h-110v712h110z" />
    <glyph glyph-name="Kappa" unicode="&#x39a;" horiz-adv-x="621" 
d="M607 712l-303 -336l302 -376h-143l-233 294l-43 -48v-246h-109v712h109v-249q0 -19 -0.5 -35.5t-1.5 -30.5h5q21 33 46 62l225 253h146z" />
    <glyph glyph-name="Lambda" unicode="&#x39b;" horiz-adv-x="693" 
d="M673 0h-120l-163 408q-5 13 -15 43.5t-25 79.5h-6q-15 -48 -25.5 -78t-15.5 -44l-164 -409h-120l290 712h74z" />
    <glyph glyph-name="Mu" unicode="&#x39c;" horiz-adv-x="825" 
d="M413 452l260 260h75v-712h-109v406q0 42 1 72.5t3 51.5h-7q-18 -23 -35 -43t-33 -36l-155 -154l-154 154q-39 39 -69 79h-6q2 -42 3 -73t1 -51v-406h-110v712h76z" />
    <glyph glyph-name="Nu" unicode="&#x39d;" horiz-adv-x="712" 
d="M635 712v-712h-76l-306 418q-27 36 -63 95h-6q2 -36 3 -60.5t1 -38.5v-414h-110v712h91l295 -404q16 -22 31.5 -45t29.5 -47h5q-2 23 -3.5 48.5t-1.5 54.5v393h110z" />
    <glyph glyph-name="Xi" unicode="&#x39e;" horiz-adv-x="535" 
d="M64 606v106h407v-106h-407zM64 0v107h407v-107h-407zM73 322v106h390v-106h-390z" />
    <glyph glyph-name="Omicron" unicode="&#x39f;" horiz-adv-x="811" 
d="M405 724q151 0 256 -107t105 -261q0 -155 -105 -261t-256 -106q-150 0 -255 107q-105 106 -105 260q0 153 105 260q105 108 255 108zM405 96q108 0 179 75q70 76 70 185t-70 185t-179 76q-108 0 -178 -76t-70 -185t70 -185q70 -75 178 -75z" />
    <glyph glyph-name="Pi" unicode="&#x3a0;" horiz-adv-x="675" 
d="M78 712h520v-712h-111v605h-298v-605h-111v712z" />
    <glyph glyph-name="Rho" unicode="&#x3a1;" horiz-adv-x="571" 
d="M187 606v-252h91q69 0 109.5 35t40.5 93q0 57 -42 90.5t-109 33.5h-90zM78 712h201q123 0 192 -66q69 -65 69 -164q0 -117 -77 -176t-194 -59h-82v-247h-109v712z" />
    <glyph glyph-name="Sigma" unicode="&#x3a3;" horiz-adv-x="590" 
d="M526 712v-106h-297l181 -250l-181 -250h297v-106h-448v84l196 272l-196 272v84h448z" />
    <glyph glyph-name="Tau" unicode="&#x3a4;" horiz-adv-x="487" 
d="M299 605v-605h-110v605h-173v107h455v-107h-172z" />
    <glyph glyph-name="Upsilon" unicode="&#x3a5;" horiz-adv-x="612" 
d="M11 712h125l124 -214q8 -14 19 -35.5t24 -49.5h6q13 36 42 84l125 215h124l-239 -418v-294h-110v294z" />
    <glyph glyph-name="Phi" unicode="&#x3a6;" horiz-adv-x="812" 
d="M461 157q28 1 59.5 12.5t62.5 33.5t51.5 62t20.5 91q0 55 -21 92.5t-51 61.5t-63.5 34.5t-58.5 11.5v-399zM351 556q-25 -1 -58.5 -11.5t-63.5 -34.5t-50.5 -61.5t-20.5 -92.5q0 -51 20 -91t51 -62t62.5 -33.5t59.5 -12.5v399zM351 -29v79q-26 1 -60.5 10t-79.5 31
q-42 22 -80 55q-36 33 -61 88t-25 122q0 69 24.5 124t60.5 87q28 26 59.5 44t61.5 29.5t56 17t44 5.5v78h110v-78q26 -1 60.5 -9.5t79.5 -31.5q22 -11 42 -24.5t38 -30.5q36 -33 61 -88.5t25 -122.5t-24.5 -122t-60.5 -88q-28 -26 -59.5 -44t-61.5 -29.5t-56 -17t-44 -5.5
v-79h-110z" />
    <glyph glyph-name="Chi" unicode="&#x3a7;" horiz-adv-x="631" 
d="M31 712h134l107 -168q11 -17 21 -35.5t20 -40.5h6q11 23 21 41.5t18 31.5l108 171h134l-219 -341l239 -371h-133l-128 201q-4 5 -14 23.5t-27 50.5h-5q-12 -24 -22.5 -42.5t-18.5 -32.5l-128 -200h-132l238 371z" />
    <glyph glyph-name="Psi" unicode="&#x3a8;" horiz-adv-x="773" 
d="M601 712h110v-239q0 -123 -76 -195q-75 -70 -194 -72v-206h-109v206q-119 0 -195 71q-75 72 -75 196v239h110v-193q0 -103 41 -154.5t119 -53.5v401h109v-401q160 1 160 208v193z" />
    <glyph glyph-name="Omega" unicode="&#x3a9;" horiz-adv-x="785" 
d="M596 103q16 2 32.5 3t33.5 1h71v-107h-278v122q75 30 125 98q50 70 50 150q0 106 -65 177q-64 70 -172 70q-109 0 -173 -70t-64 -177q0 -80 50 -150q50 -68 125 -98v-122h-279v107h71q17 0 33.5 -1t33.5 -3v6q-20 13 -35.5 27t-27.5 28q-83 98 -83 206q0 153 98 254
q99 100 251 100t249 -100q99 -101 99 -254q0 -112 -82 -206q-12 -14 -27.5 -28t-35.5 -27v-6z" />
    <glyph glyph-name="Iotadieresis" unicode="&#x3aa;" horiz-adv-x="265" 
d="M89 915q18 -17 18 -41t-18 -41q-17 -17 -41 -17t-41 17t-17 41t17 41q17 18 41 18t41 -18zM178 915q17 18 41 18t41 -18q18 -17 18 -41t-18 -41q-17 -17 -41 -17t-41 17t-17 41t17 41zM188 712v-712h-110v712h110z" />
    <glyph glyph-name="Upsilondieresis" unicode="&#x3ab;" horiz-adv-x="612" 
d="M11 712h125l124 -214q8 -14 19 -35.5t24 -49.5h6q13 36 42 84l125 215h124l-239 -418v-294h-110v294zM260 915q18 -17 18 -41t-18 -41q-17 -17 -41 -17t-41 17t-17 41t17 41q17 18 41 18t41 -18zM349 915q17 18 41 18t41 -18q18 -17 18 -41t-18 -41q-17 -17 -41 -17
t-41 17t-17 41t17 41z" />
    <glyph glyph-name="alphatonos" unicode="&#x3ac;" horiz-adv-x="646" 
d="M478 530h97v-530h-97l-7 82q-71 -93 -178 -93q-118 0 -185 81q-68 82 -68 195t68 195q67 82 185 82q106 0 178 -94zM304 88q73 0 118 52q46 52 46 125t-46 125q-45 53 -118 53q-36 0 -64.5 -13t-48.5 -36.5t-30.5 -56.5t-10.5 -72q0 -79 41 -128t113 -49zM300 805l76 -35
l-94 -179l-60 30z" />
    <glyph glyph-name="epsilontonos" unicode="&#x3ad;" horiz-adv-x="488" 
d="M360 317v-77h-84q-57 0 -91.5 -20.5t-34.5 -56.5q0 -38 31 -59.5t82 -21.5q107 0 175 25v-94q-86 -24 -175 -24q-95 0 -158 48t-63 126q0 34 21.5 67.5t56.5 52.5q-58 40 -58 99q0 70 57 115q58 45 143 45q87 0 169 -25v-94q-65 25 -169 25q-39 0 -65.5 -19t-26.5 -48
q0 -28 27 -46t76 -18h87zM293 805l76 -35l-94 -179l-60 30z" />
    <glyph glyph-name="etatonos" unicode="&#x3ae;" horiz-adv-x="598" 
d="M70 530h98l6 -70q34 38 69 60t86 22q200 0 200 -235v-523h-107v513q0 77 -32.5 111.5t-85.5 34.5q-17 0 -33.5 -5.5t-31.5 -14t-27 -19t-20 -20.5l-15 -20v-364h-107v530zM298 805l76 -35l-94 -179l-60 30z" />
    <glyph glyph-name="iotatonos" unicode="&#x3af;" horiz-adv-x="286" 
d="M264 -4q-82 2 -138 59q-56 59 -56 139v336h106v-336q0 -39 25.5 -68t62.5 -32v-98zM128 805l76 -35l-94 -179l-60 30z" />
    <glyph glyph-name="upsilondieresistonos" unicode="&#x3b0;" horiz-adv-x="600" 
d="M473 530q72 -107 72 -232q0 -136 -72 -223q-71 -86 -173 -86q-105 0 -168 63q-62 64 -62 170v308h106v-299q0 -72 34.5 -107t89.5 -35q59 0 97 59q39 60 39 150q0 61 -26 125q-25 64 -61 107h124zM144 634q-25 0 -41.5 17t-16.5 41t17 41.5t41 17.5q23 0 40.5 -17.5
t17.5 -41.5t-17.5 -41t-40.5 -17zM369 733q17 18 41 18t41 -18q17 -17 17 -41t-17 -41t-41 -17t-41 17t-17 41t17 41zM280 791l67 -31l-81 -155l-54 26z" />
    <glyph glyph-name="alpha" unicode="&#x3b1;" horiz-adv-x="646" 
d="M478 530h97v-530h-97l-7 82q-71 -93 -178 -93q-118 0 -185 81q-68 82 -68 195t68 195q67 82 185 82q106 0 178 -94zM304 88q73 0 118 52q46 52 46 125t-46 125q-45 53 -118 53q-36 0 -64.5 -13t-48.5 -36.5t-30.5 -56.5t-10.5 -72q0 -79 41 -128t113 -49z" />
    <glyph glyph-name="beta" unicode="&#x3b2;" horiz-adv-x="587" 
d="M309 90q128 0 128 132q0 33 -12.5 59t-35 44.5t-53 28.5t-66.5 10h-17v99h16q116 0 116 107q0 21 -7 39.5t-20.5 33t-33.5 23t-45 8.5q-40 0 -71 -37t-31 -87v-409q23 -21 60 -36t72 -15zM419 422q30 -15 54 -36.5t40.5 -48.5t25 -57.5t8.5 -62.5q0 -117 -62.5 -172.5
t-172.5 -55.5q-35 0 -73 13t-62 30v-249h-107v767q0 95 60 160t152 65q96 0 154 -58q59 -59 59 -146q0 -45 -21 -84.5t-55 -64.5z" />
    <glyph glyph-name="gamma" unicode="&#x3b3;" horiz-adv-x="563" 
d="M229 -216v260l-217 486h119l104 -245q8 -19 19 -49.5t25 -74.5h6q13 42 23.5 72.5t19.5 51.5l104 245h119l-215 -483v-263h-107z" />
    <glyph glyph-name="delta" unicode="&#x3b4;" horiz-adv-x="614" 
d="M307 443q-66 0 -112 -51q-46 -50 -46 -130q0 -75 45 -124q45 -50 113 -50q67 0 112 49t45 127q0 75 -46 161q-44 18 -111 18zM319 671q106 -74 179 -186q75 -111 75 -221q0 -115 -76 -195q-77 -80 -192 -80q-114 0 -190 79q-75 79 -75 194q0 121 76 200q77 80 189 80
q29 0 41 -4q-68 88 -155 151v75h346v-90h-128q-19 0 -41.5 1t-48.5 3v-7z" />
    <glyph glyph-name="epsilon" unicode="&#x3b5;" horiz-adv-x="488" 
d="M360 317v-77h-84q-57 0 -91.5 -20.5t-34.5 -56.5q0 -38 31 -59.5t82 -21.5q107 0 175 25v-94q-86 -24 -175 -24q-95 0 -158 48t-63 126q0 34 21.5 67.5t56.5 52.5q-58 40 -58 99q0 70 57 115q58 45 143 45q87 0 169 -25v-94q-65 25 -169 25q-39 0 -65.5 -19t-26.5 -48
q0 -28 27 -46t76 -18h87z" />
    <glyph glyph-name="zeta" unicode="&#x3b6;" horiz-adv-x="464" 
d="M153 257q0 -46 22 -79.5t60 -51.5q38 -17 80 -24.5t91 -7.5h35q-54 -183 -126 -305l-67 12q17 49 30.5 99t24.5 101q-50 7 -96.5 24.5t-82.5 47.5t-58 75.5t-22 108.5q0 107 75 224q38 59 82.5 106.5t96.5 84.5v6q-26 -2 -50.5 -3t-47.5 -1h-120v90h345v-75
q-98 -72 -186 -202q-86 -128 -86 -230z" />
    <glyph glyph-name="eta" unicode="&#x3b7;" horiz-adv-x="598" 
d="M70 530h98l6 -70q34 38 69 60t86 22q200 0 200 -235v-523h-107v513q0 77 -32.5 111.5t-85.5 34.5q-17 0 -33.5 -5.5t-31.5 -14t-27 -19t-20 -20.5l-15 -20v-364h-107v530z" />
    <glyph glyph-name="theta" unicode="&#x3b8;" horiz-adv-x="681" 
d="M340 674q-70 0 -119 -67q-50 -68 -57 -180h354q-8 112 -57 180q-49 67 -121 67zM340 90q36 0 67.5 17t54.5 49.5t38 78t18 102.5h-354q8 -114 56 -180q49 -67 120 -67zM340 775q122 0 203 -107t81 -287q0 -181 -81 -287q-80 -105 -203 -105q-121 0 -202 105
q-81 106 -81 287q0 180 81 287t202 107z" />
    <glyph glyph-name="iota" unicode="&#x3b9;" horiz-adv-x="286" 
d="M264 -4q-82 2 -138 59q-56 59 -56 139v336h106v-336q0 -39 25.5 -68t62.5 -32v-98z" />
    <glyph glyph-name="kappa" unicode="&#x3ba;" horiz-adv-x="531" 
d="M378 530h132l-219 -247l229 -283h-135l-163 210l-45 -48v-162h-107v530h107v-130q0 -51 -3 -102h6q16 25 30 43t27 31z" />
    <glyph glyph-name="lambda" unicode="&#x3bb;" horiz-adv-x="569" 
d="M440 0l-110 245q-29 66 -42 106h-6l-17 -46l-24 -60l-111 -245h-118l216 467l-145 297h115l359 -764h-117z" />
    <glyph glyph-name="uni03BC" unicode="&#x3bc;" horiz-adv-x="597" 
d="M68 -216v746h108v-301q0 -75 33.5 -108.5t87.5 -33.5q32 0 63 19q32 20 47 39l15 19v366h106v-530h-97l-8 65q-70 -76 -146 -76q-55 0 -101 32v-237h-108z" />
    <glyph glyph-name="nu" unicode="&#x3bd;" horiz-adv-x="562" 
d="M432 530h118l-236 -530h-66l-236 530h119l109 -262q7 -17 16.5 -44t21.5 -63h6q5 18 14.5 44.5t23.5 61.5z" />
    <glyph glyph-name="xi" unicode="&#x3be;" horiz-adv-x="485" 
d="M271 -199q17 52 31 102t25 99q-53 8 -104 26.5t-91 50.5t-64 79.5t-24 113.5q0 51 25.5 96t73.5 70q-38 25 -57.5 60.5t-19.5 73.5q0 85 63 144q65 59 158 59q60 0 143 -30v-111q-51 25 -77 32q-27 8 -66 8q-48 0 -80 -27.5t-32 -72.5q0 -19 10 -35.5t27 -29t41 -19.5
t53 -7h76v-94h-70q-67 0 -113 -34q-46 -33 -46 -84q0 -49 25.5 -85.5t67.5 -55.5t87.5 -27.5t96.5 -8.5h34q-54 -183 -126 -305z" />
    <glyph glyph-name="omicron" unicode="&#x3bf;" horiz-adv-x="615" 
d="M40 262q0 121 77 201q76 79 189 79q114 0 191 -81q77 -82 77 -197q0 -113 -77 -195q-77 -80 -191 -80q-115 0 -191 79q-75 79 -75 194zM150 263q0 -74 44 -124q45 -49 113 -49q69 0 112 49q45 49 45 126q0 76 -47 126t-110 50q-65 0 -112 -50q-45 -50 -45 -128z" />
    <glyph glyph-name="pi" unicode="&#x3c0;" horiz-adv-x="597" 
d="M575 -4q-80 1 -138 59q-57 58 -57 139v248h-182v-442h-106v442h-70v88h533v-88h-68v-248q0 -39 25.5 -68t62.5 -32v-98z" />
    <glyph glyph-name="rho" unicode="&#x3c1;" horiz-adv-x="638" 
d="M331 89q67 0 110 49q45 49 45 126q0 75 -47 127q-46 52 -111 52q-67 0 -113 -52q-46 -50 -46 -128v-79q5 -8 12 -16.5t15 -18.5q15 -17 55 -39q39 -21 80 -21zM327 542q115 0 192 -81q76 -80 76 -197t-72 -196t-187 -79q-37 0 -70 13q-35 14 -52 25l-45 34v-277h-107v478
q0 121 76 200q77 80 189 80z" />
    <glyph glyph-name="uni03C2" unicode="&#x3c2;" horiz-adv-x="483" 
d="M462 93q-53 -180 -126 -304l-68 12q15 42 29 91.5t27 107.5q-60 9 -107.5 27.5t-89.5 49.5q-42 32 -64.5 81.5t-22.5 115.5q0 120 77 194t190 74q63 0 128 -35v-114q-59 51 -125 51q-69 0 -115 -46q-46 -45 -46 -124q0 -52 24 -89t66 -56t88 -27.5t101 -8.5h34z" />
    <glyph glyph-name="sigma" unicode="&#x3c3;" horiz-adv-x="617" 
d="M40 256q0 120 77 197t189 77h310v-88h-37q-22 0 -70 3v-12q65 -71 65 -175q0 -115 -76 -192q-77 -77 -192 -77q-114 0 -191 77q-75 76 -75 190zM150 256q0 -73 44 -120q45 -47 113 -47q67 0 112 47q45 46 45 123q0 75 -47 124q-47 48 -110 48q-66 0 -112 -49
q-45 -48 -45 -126z" />
    <glyph glyph-name="tau" unicode="&#x3c4;" horiz-adv-x="416" 
d="M22 442v88h372v-88h-137v-249q0 -19 7 -36.5t19 -31t28 -22t34 -9.5v-98q-90 3 -143 65q-52 61 -52 153v228h-128z" />
    <glyph glyph-name="upsilon" unicode="&#x3c5;" horiz-adv-x="600" 
d="M473 530q72 -107 72 -232q0 -136 -72 -223q-71 -86 -173 -86q-105 0 -168 63q-62 64 -62 170v308h106v-299q0 -72 34.5 -107t89.5 -35q59 0 97 59q39 60 39 150q0 61 -26 125q-25 64 -61 107h124z" />
    <glyph glyph-name="phi" unicode="&#x3c6;" horiz-adv-x="755" 
d="M422 89q75 2 121 51q48 49 48 124q0 89 -36 134q-34 46 -77 46q-25 0 -40.5 -19.5t-15.5 -50.5v-285zM471 542q40 0 81 -16t74 -49.5t53.5 -86.5t20.5 -126q0 -114 -80 -194q-79 -79 -198 -79v-207h-105v207q-118 0 -197 79q-80 80 -80 194q0 106 62 182q63 74 159 91
v-100q-51 -19 -81.5 -64.5t-30.5 -108.5q0 -73 48 -124q48 -50 120 -51v285q0 39 11.5 70t32 52.5t49 33.5t61.5 12z" />
    <glyph glyph-name="chi" unicode="&#x3c7;" horiz-adv-x="557" 
d="M418 0l-97 134q-10 14 -20 31t-20 39h-4q-1 -2 -5 -9.5t-11 -20.5t-13 -23t-11 -17l-97 -134h-129l206 276l-186 254h128l78 -111q22 -32 39 -68h5q8 17 17.5 34t22.5 34l78 111h128l-185 -254l205 -276h-129z" />
    <glyph glyph-name="psi" unicode="&#x3c8;" horiz-adv-x="780" 
d="M615 300q0 66 -24.5 127t-61.5 103h123q73 -104 73 -230q0 -134 -88 -222q-87 -88 -195 -88v-206h-105v206q-112 0 -189 64q-78 64 -78 169v307h107v-299q0 -68 50 -106q49 -37 110 -37v624h105v-624q62 0 118 62q55 61 55 150z" />
    <glyph glyph-name="omega" unicode="&#x3c9;" horiz-adv-x="900" 
d="M735 298q0 64 -24.5 126.5t-60.5 105.5h122q73 -104 73 -232q0 -137 -73 -223q-72 -86 -174 -86q-98 0 -148 71q-53 -71 -149 -71q-102 0 -174 86q-72 87 -72 223q0 128 70 232h123q-18 -21 -33.5 -47.5t-26.5 -56.5t-17.5 -62.5t-6.5 -65.5q0 -91 39 -151q39 -59 98 -59
q51 0 73.5 33.5t22.5 108.5v179h105v-179q0 -75 22.5 -108.5t73.5 -33.5q59 0 98 59q39 60 39 151z" />
    <glyph glyph-name="iotadieresis" unicode="&#x3ca;" horiz-adv-x="286" 
d="M78 733q18 -17 18 -41t-18 -41q-17 -17 -41 -17t-41 17t-17 41t17 41q17 18 41 18t41 -18zM167 733q17 18 41 18t41 -18q18 -17 18 -41t-18 -41q-17 -17 -41 -17t-41 17t-17 41t17 41zM264 -4q-82 2 -138 59q-56 59 -56 139v336h106v-336q0 -39 25.5 -68t62.5 -32v-98z
" />
    <glyph glyph-name="upsilondieresis" unicode="&#x3cb;" horiz-adv-x="600" 
d="M473 530q72 -107 72 -232q0 -136 -72 -223q-71 -86 -173 -86q-105 0 -168 63q-62 64 -62 170v308h106v-299q0 -72 34.5 -107t89.5 -35q59 0 97 59q39 60 39 150q0 61 -26 125q-25 64 -61 107h124zM234 733q18 -17 18 -41t-18 -41q-17 -17 -41 -17t-41 17t-17 41t17 41
q17 18 41 18t41 -18zM323 733q17 18 41 18t41 -18q18 -17 18 -41t-18 -41q-17 -17 -41 -17t-41 17t-17 41t17 41z" />
    <glyph glyph-name="omicrontonos" unicode="&#x3cc;" horiz-adv-x="615" 
d="M40 262q0 121 77 201q76 79 189 79q114 0 191 -81q77 -82 77 -197q0 -113 -77 -195q-77 -80 -191 -80q-115 0 -191 79q-75 79 -75 194zM150 263q0 -74 44 -124q45 -49 113 -49q69 0 112 49q45 49 45 126q0 76 -47 126t-110 50q-65 0 -112 -50q-45 -50 -45 -128zM310 805
l76 -35l-94 -179l-60 30z" />
    <glyph glyph-name="upsilontonos" unicode="&#x3cd;" horiz-adv-x="600" 
d="M473 530q72 -107 72 -232q0 -136 -72 -223q-71 -86 -173 -86q-105 0 -168 63q-62 64 -62 170v308h106v-299q0 -72 34.5 -107t89.5 -35q59 0 97 59q39 60 39 150q0 61 -26 125q-25 64 -61 107h124zM289 805l76 -35l-94 -179l-60 30z" />
    <glyph glyph-name="omegatonos" unicode="&#x3ce;" horiz-adv-x="900" 
d="M735 298q0 64 -24.5 126.5t-60.5 105.5h122q73 -104 73 -232q0 -137 -73 -223q-72 -86 -174 -86q-98 0 -148 71q-53 -71 -149 -71q-102 0 -174 86q-72 87 -72 223q0 128 70 232h123q-18 -21 -33.5 -47.5t-26.5 -56.5t-17.5 -62.5t-6.5 -65.5q0 -91 39 -151q39 -59 98 -59
q51 0 73.5 33.5t22.5 108.5v179h105v-179q0 -75 22.5 -108.5t73.5 -33.5q59 0 98 59q39 60 39 151zM450 805l76 -35l-94 -179l-60 30z" />
    <glyph glyph-name="uni0400" unicode="&#x400;" horiz-adv-x="549" 
d="M78 0v712h407v-106h-297v-178h288v-106h-288v-215h297v-107h-407zM400 828l-38 -56l-207 134l47 70z" />
    <glyph glyph-name="afii10023" unicode="&#x401;" horiz-adv-x="549" 
d="M78 0v712h407v-106h-297v-178h288v-106h-288v-215h297v-107h-407zM235 915q18 -17 18 -41t-18 -41q-17 -17 -41 -17t-41 17t-17 41t17 41q17 18 41 18t41 -18zM324 915q17 18 41 18t41 -18q18 -17 18 -41t-18 -41q-17 -17 -41 -17t-41 17t-17 41t17 41z" />
    <glyph glyph-name="afii10051" unicode="&#x402;" horiz-adv-x="738" 
d="M673 249q0 -100 -68 -176q-67 -73 -176 -78v102q60 3 95 44t35 107q0 115 -99 115q-76 0 -160 -22v-341h-111v605h-173v107h456v-107h-172v-161q92 22 180 22q97 0 145 -57t48 -160z" />
    <glyph glyph-name="afii10052" unicode="&#x403;" horiz-adv-x="443" 
d="M188 605v-605h-110v712h349v-107h-239zM178 772l-38 56l198 148l47 -70z" />
    <glyph glyph-name="afii10053" unicode="&#x404;" horiz-adv-x="624" 
d="M406 617q-94 0 -161 -59q-66 -58 -82 -148h314v-107h-314q17 -91 82 -149q68 -59 161 -59q77 0 167 31v-115q-84 -22 -167 -22q-150 0 -256 106q-105 106 -105 261q0 154 105 261q107 107 256 107q86 0 167 -22v-117q-90 32 -167 32z" />
    <glyph glyph-name="afii10054" unicode="&#x405;" horiz-adv-x="533" 
d="M168 532q0 -29 23 -49t57.5 -38t75 -37t75 -45t57.5 -62.5t23 -89.5q0 -96 -66 -159q-65 -63 -166 -63q-108 0 -184 66v131q29 -34 81 -62q53 -29 107 -29q24 0 45 7.5t37 21t25 32t9 41.5q0 36 -32 64t-78 49q-33 15 -68.5 33t-65.5 43t-49 59t-18 79q0 90 61 145
t153 55q99 0 175 -56v-128q-86 77 -180 77q-19 0 -36.5 -6t-31 -17.5t-21.5 -27t-8 -34.5z" />
    <glyph glyph-name="afii10055" unicode="&#x406;" horiz-adv-x="265" 
d="M188 712v-712h-110v712h110z" />
    <glyph glyph-name="afii10056" unicode="&#x407;" horiz-adv-x="265" 
d="M88 915q18 -17 18 -41t-18 -41q-17 -17 -41 -17t-41 17t-17 41t17 41q17 18 41 18t41 -18zM177 915q17 18 41 18t41 -18q18 -17 18 -41t-18 -41q-17 -17 -41 -17t-41 17t-17 41t17 41zM188 712v-712h-110v712h110z" />
    <glyph glyph-name="afii10057" unicode="&#x408;" horiz-adv-x="420" 
d="M232 712h110v-491q0 -110 -63 -171q-61 -61 -157 -61q-43 0 -79 18v121q35 -28 82 -28q46 0 76.5 31.5t30.5 91.5v489z" />
    <glyph glyph-name="afii10058" unicode="&#x409;" horiz-adv-x="988" 
d="M716 428q100 0 167 -58q67 -57 67 -156t-67 -157q-68 -57 -167 -57h-238v605h-248v-377q0 -108 -61 -169q-61 -63 -153 -64v111q45 2 74 33t29 91v482h470v-284h127zM711 103q55 0 90 29.5t35 81.5t-35 81t-90 29h-122v-221h122z" />
    <glyph glyph-name="afii10059" unicode="&#x40a;" horiz-adv-x="996" 
d="M724 428q100 0 167 -58q67 -57 67 -156t-67 -157q-68 -57 -167 -57h-238v321h-298v-321h-110v712h110v-284h298v284h111v-284h127zM719 103q55 0 90 29.5t35 81.5t-35 81t-90 29h-122v-221h122z" />
    <glyph glyph-name="afii10060" unicode="&#x40b;" horiz-adv-x="737" 
d="M481 466q96 0 143.5 -57t47.5 -160v-249h-111v240q0 63 -27.5 93t-73.5 30q-76 0 -160 -22v-341h-111v605h-173v107h456v-107h-172v-161q92 22 181 22z" />
    <glyph glyph-name="afii10061" unicode="&#x40c;" horiz-adv-x="627" 
d="M339 390q29 -8 53.5 -20.5t43.5 -24.5q19 -11 36 -32q18 -20 30 -34.5t24 -41.5q6 -13 10.5 -22.5t8 -19.5t7 -21t8.5 -27t8.5 -27.5t5.5 -19.5q4 -15 12 -51q5 -17 8 -29.5t5 -19.5h-113l-11 43q-4 15 -6.5 26t-4.5 18q-3 15 -12 42q-8 27 -15 41t-19 35
q-12 22 -25 33.5t-33 25.5q-26 20 -64.5 29.5t-89.5 9.5h-18v-303h-110v712h110v-302l27 -1l245 303h139zM222 772l-38 56l198 148l47 -70z" />
    <glyph glyph-name="uni040D" unicode="&#x40d;" horiz-adv-x="712" 
d="M78 0v712h110v-393q0 -29 -1.5 -54.5t-3.5 -48.5h5q14 24 29.5 47t31.5 45l295 404h91v-712h-110v414q0 14 1 38.5t3 60.5h-6q-36 -59 -63 -95l-306 -418h-76zM480 828l-38 -56l-207 134l47 70z" />
    <glyph glyph-name="afii10062" unicode="&#x40e;" horiz-adv-x="615" 
d="M201 0h-125l168 300l-233 412h128l124 -215q13 -22 23 -42t18 -39h7q5 13 15 33t26 48l124 215h127zM488 917q-25 -63 -72 -91t-101 -28q-53 0 -101 28.5t-72 90.5l65 28q12 -32 32 -50q20 -17 36.5 -21t39.5 -4q35 0 62.5 14.5t46.5 60.5z" />
    <glyph glyph-name="afii10145" unicode="&#x40f;" horiz-adv-x="675" 
d="M290 -176v176h-212v712h111v-605h298v605h111v-712h-212v-176h-96z" />
    <glyph glyph-name="afii10017" unicode="&#x410;" horiz-adv-x="724" 
d="M328 712h67l317 -712h-120l-69 158h-323l-68 -158h-121zM476 265l-79 182q-9 22 -17 43.5t-15 43.5h-6q-2 -7 -15 -38l-19 -49l-79 -182h230z" />
    <glyph glyph-name="afii10018" unicode="&#x411;" horiz-adv-x="588" 
d="M492 605h-303v-177h127q100 0 167 -58q67 -57 67 -156t-67 -157q-68 -57 -167 -57h-238v712h414v-107zM311 103q55 0 90 29.5t35 81.5t-35 81t-90 29h-122v-221h122z" />
    <glyph glyph-name="afii10019" unicode="&#x412;" horiz-adv-x="587" 
d="M187 606v-193h103q52 0 82.5 24.5t30.5 72.5q0 45 -32.5 70.5t-83.5 25.5h-100zM187 308v-201h115q57 0 91 25.5t34 76.5q0 48 -35 73.5t-95 25.5h-110zM78 712h204q112 0 171 -59t59 -143q0 -45 -20 -81.5t-55 -58.5q46 -22 73.5 -67t27.5 -96q0 -97 -66 -152
q-65 -55 -165 -55h-229v712z" />
    <glyph glyph-name="afii10020" unicode="&#x413;" horiz-adv-x="443" 
d="M188 605v-605h-110v712h349v-107h-239z" />
    <glyph glyph-name="afii10021" unicode="&#x414;" horiz-adv-x="754" 
d="M25 107h82q11 13 27 44.5t32 85.5t29.5 133.5t19.5 189.5l7 152h414v-605h93v-254h-110v147h-484v-147h-110v254zM526 107v498h-203l-5 -101q-4 -78 -14 -140.5t-22.5 -111t-26 -84.5t-24.5 -61h295z" />
    <glyph glyph-name="afii10022" unicode="&#x415;" horiz-adv-x="549" 
d="M78 0v712h407v-106h-297v-178h288v-106h-288v-215h297v-107h-407z" />
    <glyph glyph-name="afii10024" unicode="&#x416;" horiz-adv-x="933" 
d="M412 261q0 18 0.5 34.5t1.5 30.5h-10q-11 -17 -22.5 -32t-23.5 -30l-209 -264h-131l292 376l-279 336h133l190 -229q24 -28 46 -62h14q-1 14 -1.5 30.5t-0.5 35.5v225h109v-225q0 -19 -0.5 -35.5t-1.5 -30.5h14q11 17 22.5 32t23.5 30l190 229h133l-279 -336l292 -376
h-131l-209 264q-12 15 -23.5 30t-22.5 32h-10q1 -14 1.5 -30.5t0.5 -34.5v-261h-109v261z" />
    <glyph glyph-name="afii10025" unicode="&#x417;" horiz-adv-x="515" 
d="M144 329v98h57q60 0 95.5 26t35.5 66q0 45 -30.5 71.5t-76.5 26.5q-79 0 -161 -41v118q76 30 161 30q94 0 156 -59q63 -59 63 -149q0 -88 -74 -135q46 -26 71 -68.5t25 -93.5q0 -98 -69 -164t-173 -66q-87 0 -168 29v117q75 -39 168 -39q57 0 93.5 33t36.5 87t-43 83.5
t-110 29.5h-57z" />
    <glyph glyph-name="afii10026" unicode="&#x418;" horiz-adv-x="712" 
d="M78 0v712h110v-393q0 -29 -1.5 -54.5t-3.5 -48.5h5q14 24 29.5 47t31.5 45l295 404h91v-712h-110v414q0 14 1 38.5t3 60.5h-6q-36 -59 -63 -95l-306 -418h-76z" />
    <glyph glyph-name="afii10027" unicode="&#x419;" horiz-adv-x="712" 
d="M78 0v712h110v-393q0 -29 -1.5 -54.5t-3.5 -48.5h5q14 24 29.5 47t31.5 45l295 404h91v-712h-110v414q0 14 1 38.5t3 60.5h-6q-36 -59 -63 -95l-306 -418h-76zM528 917q-25 -63 -72 -91t-101 -28q-53 0 -101 28.5t-72 90.5l65 28q12 -32 32 -50q20 -17 36.5 -21t39.5 -4
q35 0 62.5 14.5t46.5 60.5z" />
    <glyph glyph-name="afii10028" unicode="&#x41a;" horiz-adv-x="614" 
d="M236 264q-24 28 -46 62h-5q1 -14 1.5 -30.5t0.5 -34.5v-261h-109v712h109v-225q0 -19 -0.5 -35.5t-1.5 -30.5h5q11 17 22 32.5t24 29.5l204 229h143l-299 -336l312 -376h-141z" />
    <glyph glyph-name="afii10029" unicode="&#x41b;" horiz-adv-x="666" 
d="M119 712h470v-712h-111v605h-248v-377q0 -108 -61 -169q-61 -63 -153 -64v111q45 2 74 33t29 91v482z" />
    <glyph glyph-name="afii10030" unicode="&#x41c;" horiz-adv-x="825" 
d="M413 452l260 260h75v-712h-109v406q0 42 1 72.5t3 51.5h-7q-18 -23 -35 -43t-33 -36l-155 -154l-154 154q-39 39 -69 79h-6q2 -42 3 -73t1 -51v-406h-110v712h76z" />
    <glyph glyph-name="afii10031" unicode="&#x41d;" horiz-adv-x="674" 
d="M487 428v284h110v-712h-110v321h-299v-321h-110v712h110v-284h299z" />
    <glyph glyph-name="afii10032" unicode="&#x41e;" horiz-adv-x="811" 
d="M405 724q151 0 256 -107t105 -261q0 -155 -105 -261t-256 -106q-150 0 -255 107q-105 106 -105 260q0 153 105 260q105 108 255 108zM405 96q108 0 179 75q70 76 70 185t-70 185t-179 76q-108 0 -178 -76t-70 -185t70 -185q70 -75 178 -75z" />
    <glyph glyph-name="afii10033" unicode="&#x41f;" horiz-adv-x="675" 
d="M78 712h520v-712h-111v605h-298v-605h-111v712z" />
    <glyph glyph-name="afii10034" unicode="&#x420;" horiz-adv-x="571" 
d="M187 606v-252h91q69 0 109.5 35t40.5 93q0 57 -42 90.5t-109 33.5h-90zM78 712h201q123 0 192 -66q69 -65 69 -164q0 -117 -77 -176t-194 -59h-82v-247h-109v712z" />
    <glyph glyph-name="afii10035" unicode="&#x421;" horiz-adv-x="624" 
d="M574 33q-90 -44 -168 -44q-149 0 -256 107q-105 106 -105 260t105 261q107 107 256 107q82 0 168 -44v-127q-80 64 -168 64q-109 0 -179 -76q-69 -77 -69 -185q0 -109 69 -185q70 -75 179 -75q83 0 168 61v-124z" />
    <glyph glyph-name="afii10036" unicode="&#x422;" horiz-adv-x="487" 
d="M299 605v-605h-110v605h-173v107h455v-107h-172z" />
    <glyph glyph-name="afii10037" unicode="&#x423;" horiz-adv-x="614" 
d="M309 421q7 -14 10.5 -24.5t7.5 -23.5h6q4 13 7.5 23.5t10.5 24.5l148 291h127l-349 -712h-125l120 244l-261 468h136z" />
    <glyph glyph-name="afii10038" unicode="&#x424;" horiz-adv-x="812" 
d="M461 157q28 1 59.5 12.5t62.5 33.5t51.5 62t20.5 91q0 55 -21 92.5t-51 61.5t-63.5 34.5t-58.5 11.5v-399zM351 556q-25 -1 -58.5 -11.5t-63.5 -34.5t-50.5 -61.5t-20.5 -92.5q0 -51 20 -91t51 -62t62.5 -33.5t59.5 -12.5v399zM351 -29v79q-26 1 -60.5 10t-79.5 31
q-42 22 -80 55q-36 33 -61 88t-25 122q0 69 24.5 124t60.5 87q28 26 59.5 44t61.5 29.5t56 17t44 5.5v78h110v-78q26 -1 60.5 -9.5t79.5 -31.5q22 -11 42 -24.5t38 -30.5q36 -33 61 -88.5t25 -122.5t-24.5 -122t-60.5 -88q-28 -26 -59.5 -44t-61.5 -29.5t-56 -17t-44 -5.5
v-79h-110z" />
    <glyph glyph-name="afii10039" unicode="&#x425;" horiz-adv-x="631" 
d="M31 712h134l107 -168q11 -17 21 -35.5t20 -40.5h6q11 23 21 41.5t18 31.5l108 171h134l-219 -341l239 -371h-133l-128 201q-4 5 -14 23.5t-27 50.5h-5q-12 -24 -22.5 -42.5t-18.5 -32.5l-128 -200h-132l238 371z" />
    <glyph glyph-name="afii10040" unicode="&#x426;" horiz-adv-x="716" 
d="M78 0v712h111v-605h298v605h111v-605h93v-254h-110v147h-503z" />
    <glyph glyph-name="afii10041" unicode="&#x427;" horiz-adv-x="640" 
d="M452 0v267q-93 -21 -182 -21q-97 0 -144.5 56.5t-47.5 159.5v250h110v-241q0 -63 27.5 -93t75.5 -30q77 0 161 22v342h111v-712h-111z" />
    <glyph glyph-name="afii10042" unicode="&#x428;" horiz-adv-x="978" 
d="M78 0v712h110v-605h247v605h110v-605h245v605h111v-712h-823z" />
    <glyph glyph-name="afii10043" unicode="&#x429;" horiz-adv-x="1019" 
d="M78 0v712h110v-605h247v605h110v-605h245v605h111v-605h93v-254h-110v147h-806z" />
    <glyph glyph-name="afii10044" unicode="&#x42a;" horiz-adv-x="695" 
d="M423 428q100 0 167 -58q67 -57 67 -156t-67 -157q-68 -57 -167 -57h-238v605h-169v107h280v-284h127zM418 103q55 0 90 29.5t35 81.5t-35 81t-90 29h-122v-221h122z" />
    <glyph glyph-name="afii10045" unicode="&#x42b;" horiz-adv-x="837" 
d="M316 428q100 0 167 -58q67 -57 67 -156t-67 -157q-68 -57 -167 -57h-238v712h111v-284h127zM311 103q55 0 90 29.5t35 81.5t-35 81t-90 29h-122v-221h122zM760 712v-712h-110v712h110z" />
    <glyph glyph-name="afii10046" unicode="&#x42c;" horiz-adv-x="588" 
d="M316 428q100 0 167 -58q67 -57 67 -156t-67 -157q-68 -57 -167 -57h-238v712h111v-284h127zM311 103q55 0 90 29.5t35 81.5t-35 81t-90 29h-122v-221h122z" />
    <glyph glyph-name="afii10047" unicode="&#x42d;" horiz-adv-x="646" 
d="M240 617q-77 0 -167 -32v117q81 22 167 22q150 0 255 -107q106 -106 106 -261t-106 -261q-105 -106 -255 -106q-83 0 -167 22v115q90 -31 167 -31q93 0 160 59q66 57 83 149h-314v107h314q-16 90 -82 148q-67 59 -161 59z" />
    <glyph glyph-name="afii10048" unicode="&#x42e;" horiz-adv-x="1076" 
d="M670 724q151 0 256 -107t105 -261q0 -155 -105 -261t-256 -106q-137 0 -239 90q-102 93 -118 227h-125v-306h-110v712h110v-308h125q16 135 118 228q103 92 239 92zM670 96q108 0 179 75q70 76 70 185t-70 185t-179 76q-108 0 -178 -76t-70 -185t70 -185q70 -75 178 -75z
" />
    <glyph glyph-name="afii10049" unicode="&#x42f;" horiz-adv-x="597" 
d="M519 712v-712h-109v280h-55l-201 -280h-134l214 290q-75 21 -118 76.5t-43 130.5q0 92 63 154q64 61 182 61h201zM410 385v221h-90q-61 0 -98 -29t-37 -80t36.5 -81.5t97.5 -30.5h91z" />
    <glyph glyph-name="afii10065" unicode="&#x430;" horiz-adv-x="557" 
d="M379 229q-86 16 -121 16q-110 0 -110 -85q0 -40 22.5 -59.5t73.5 -19.5q30 0 55 9.5t42.5 26.5t27.5 39.5t10 48.5v24zM254 542q99 0 166 -53q66 -53 66 -141v-348h-94l-9 66q-59 -77 -159 -77q-183 0 -183 168q0 73 57 121t158 48q41 0 123 -20v43q0 40 -39 69
q-40 29 -86 29q-76 0 -149 -38v102q72 31 149 31z" />
    <glyph glyph-name="afii10066" unicode="&#x431;" horiz-adv-x="641" 
d="M328 89q67 0 112 49t45 127q0 77 -47 127q-47 51 -110 51q-66 0 -112 -51q-46 -49 -46 -129q0 -75 45 -124q45 -50 113 -50zM191 493q24 26 63.5 38t72.5 12q114 0 191 -81q77 -82 77 -197q0 -114 -77 -196q-77 -80 -191 -80q-56 0 -104.5 23.5t-84 63t-56 92.5
t-20.5 113q0 105 13.5 189.5t50 143.5t101.5 91t167 32q35 0 64 6t51 32l67 -82q-26 -29 -65.5 -43.5t-81.5 -14.5q-46 0 -85 -4t-70 -18.5t-54 -43t-37 -76.5h8z" />
    <glyph glyph-name="afii10067" unicode="&#x432;" horiz-adv-x="508" 
d="M177 435v-126h79q75 0 75 64q0 29 -21.5 45.5t-55.5 16.5h-77zM177 227v-132h88q39 0 61 17t22 50q0 65 -86 65h-85zM70 530h181q93 0 138 -44t45 -110q0 -62 -49 -101q32 -21 51 -53t19 -64q0 -74 -52 -116q-53 -42 -131 -42h-202v530z" />
    <glyph glyph-name="afii10068" unicode="&#x433;" horiz-adv-x="376" 
d="M177 434v-434h-107v530h292v-96h-185z" />
    <glyph glyph-name="afii10069" unicode="&#x434;" horiz-adv-x="601" 
d="M16 96h64q13 16 25.5 45t23.5 67.5t19 85.5t11 100l8 136h333v-434h85v-209h-100v113h-369v-113h-100v209zM258 349q-9 -100 -25.5 -164.5t-34.5 -88.5h195v338h-129z" />
    <glyph glyph-name="afii10070" unicode="&#x435;" horiz-adv-x="562" 
d="M419 326q-4 60 -41 93t-89 33q-54 0 -89 -34t-47 -92h266zM468 17q-75 -28 -161 -28q-117 0 -192 78t-75 207q0 116 68 192q67 76 181 76q53 0 96 -18t73.5 -53t47 -87t16.5 -121v-18h-371q9 -75 50 -117.5t107 -42.5q89 0 160 40v-108z" />
    <glyph glyph-name="afii10072" unicode="&#x436;" horiz-adv-x="785" 
d="M339 195v25t1 23h-8q-9 -13 -17 -24t-18 -22l-152 -197h-126l221 279l-211 251h127l141 -171q10 -11 18 -22t17 -24h8q-1 11 -1 23v26v168h107v-168v-26t-1 -23h8q9 13 17 24t18 22l141 171h127l-211 -251l221 -279h-126l-152 197q-10 11 -18 22t-17 24h-8q1 -11 1 -23
v-25v-195h-107v195z" />
    <glyph glyph-name="afii10073" unicode="&#x437;" horiz-adv-x="488" 
d="M120 240v77h87q49 0 76 18t27 46q0 29 -26.5 48t-65.5 19q-104 0 -169 -25v94q82 25 169 25q85 0 142 -45q58 -45 58 -115q0 -59 -58 -99q35 -19 56.5 -52.5t21.5 -67.5q0 -78 -63 -126t-158 -48q-90 0 -175 24v94q68 -25 175 -25q51 0 82 21.5t31 59.5q0 36 -34.5 56.5
t-91.5 20.5h-84z" />
    <glyph glyph-name="afii10074" unicode="&#x438;" horiz-adv-x="596" 
d="M70 0v530h107v-235v-14.5t-1 -27.5v-58h6q10 16 26 38.5t39 51.5l192 245h87v-530h-107v255q0 36 0.5 59t1.5 33h-7q-18 -26 -34.5 -47.5t-30.5 -40.5l-204 -259h-75z" />
    <glyph glyph-name="afii10075" unicode="&#x439;" horiz-adv-x="596" 
d="M70 0v530h107v-235v-14.5t-1 -27.5v-58h6q10 16 26 38.5t39 51.5l192 245h87v-530h-107v255q0 36 0.5 59t1.5 33h-7q-18 -26 -34.5 -47.5t-30.5 -40.5l-204 -259h-75zM474 735q-25 -63 -72 -91t-101 -28q-53 0 -101 28.5t-72 90.5l65 28q12 -32 32 -50q20 -17 36.5 -21
t39.5 -4q35 0 62.5 14.5t46.5 60.5z" />
    <glyph glyph-name="afii10076" unicode="&#x43a;" horiz-adv-x="528" 
d="M216 197q-10 11 -18 22t-17 24h-3q1 -11 1 -23v-25v-195h-107v530h107v-168v-26t-1 -23h3q9 13 17 24t18 22l151 171h132l-221 -251l231 -279h-131z" />
    <glyph glyph-name="afii10077" unicode="&#x43b;" horiz-adv-x="545" 
d="M91 530h384v-530h-107v434h-170v-262q0 -79 -53 -126t-133 -50v98q35 2 57 23t22 57v356z" />
    <glyph glyph-name="afii10078" unicode="&#x43c;" horiz-adv-x="683" 
d="M177 362v-362h-107v530h73l199 -183l198 183h73v-530h-107v362l-94 -87l-70 -66z" />
    <glyph glyph-name="afii10079" unicode="&#x43d;" horiz-adv-x="564" 
d="M387 326v204h107v-530h-107v229h-210v-229h-107v530h107v-204h210z" />
    <glyph glyph-name="afii10080" unicode="&#x43e;" horiz-adv-x="614" 
d="M40 262q0 121 77 201q76 79 189 79q114 0 191 -81q77 -82 77 -197q0 -113 -77 -195q-77 -80 -191 -80q-115 0 -191 79q-75 79 -75 194zM150 263q0 -74 44 -124q45 -49 113 -49q69 0 112 49q45 49 45 126q0 76 -47 126t-110 50q-65 0 -112 -50q-45 -50 -45 -128z" />
    <glyph glyph-name="afii10081" unicode="&#x43f;" horiz-adv-x="559" 
d="M70 530h419v-530h-107v434h-205v-434h-107v530z" />
    <glyph glyph-name="afii10082" unicode="&#x440;" horiz-adv-x="645" 
d="M605 265q0 -113 -69 -195q-68 -81 -184 -81q-84 0 -175 71v-276h-107v746h97l8 -80q74 92 177 92q117 0 184 -82q69 -81 69 -195zM495 265q0 39 -11 71.5t-31 55.5t-48.5 36t-64.5 13q-73 0 -118 -53t-45 -126v-78q6 -8 13.5 -17t15.5 -19q18 -19 56 -38q38 -20 78 -20
q72 0 113.5 48t41.5 127z" />
    <glyph glyph-name="afii10083" unicode="&#x441;" horiz-adv-x="479" 
d="M306 90q70 0 126 51v-120q-59 -32 -126 -32q-114 0 -191 80q-75 81 -75 195q0 120 77 199q76 79 189 79q65 0 125 -33v-123q-58 55 -125 55q-64 0 -111 -50q-45 -50 -45 -127q0 -72 45 -123t111 -51z" />
    <glyph glyph-name="afii10084" unicode="&#x442;" horiz-adv-x="398" 
d="M253 434v-434h-107v434h-134v96h374v-96h-133z" />
    <glyph glyph-name="afii10085" unicode="&#x443;" horiz-adv-x="562" 
d="M263 224q5 -13 8.5 -24.5t7.5 -22.5h6q4 11 7.5 22.5t8.5 24.5l127 306h122l-317 -746h-119l106 264l-208 482h125z" />
    <glyph glyph-name="afii10086" unicode="&#x444;" horiz-adv-x="751" 
d="M428 764v-225q25 -1 56.5 -9t73.5 -29q29 -13 56.5 -34t48.5 -50.5t34 -67t14 -84.5q0 -61 -23 -110.5t-56 -78.5q-35 -30 -74 -49q-42 -20 -73.5 -27.5t-56.5 -8.5v-207h-106v207q-25 1 -56.5 8.5t-73.5 27.5q-29 13 -56.5 34t-48.5 50.5t-34 67.5t-13 86q0 53 16 93.5
t41.5 70.5t57 51t63 33.5t59 18.5t45.5 7v225h106zM323 441q-68 -1 -122 -52q-53 -50 -53 -124t53 -124q54 -49 122 -51v351zM427 89q68 2 122 51t54 125q0 74 -54 124q-54 51 -122 52v-352z" />
    <glyph glyph-name="afii10087" unicode="&#x445;" horiz-adv-x="557" 
d="M418 0l-97 134q-10 14 -20 31t-20 39h-4q-1 -2 -5 -9.5t-11 -20.5t-13 -23t-11 -17l-97 -134h-129l206 276l-186 254h128l78 -111q22 -32 39 -68h5q8 17 17.5 34t22.5 34l78 111h128l-185 -254l205 -276h-129z" />
    <glyph glyph-name="afii10088" unicode="&#x446;" horiz-adv-x="590" 
d="M70 0v530h107v-434h205v434h107v-434h85v-209h-100v113h-404z" />
    <glyph glyph-name="afii10089" unicode="&#x447;" horiz-adv-x="526" 
d="M349 0v188q-62 -12 -130 -12q-78 0 -119 43t-41 121v190h107v-153q0 -58 17 -83.5t52 -25.5q55 0 114 13v249h107v-530h-107z" />
    <glyph glyph-name="afii10090" unicode="&#x448;" horiz-adv-x="795" 
d="M70 0v530h107v-435h167v435h107v-435h167v435h107v-530h-655z" />
    <glyph glyph-name="afii10091" unicode="&#x449;" horiz-adv-x="825" 
d="M70 0v530h107v-434h167v434h107v-434h166v434h107v-434h85v-209h-100v113h-639z" />
    <glyph glyph-name="afii10092" unicode="&#x44a;" horiz-adv-x="573" 
d="M355 325q39 0 72 -11.5t57 -32.5t37.5 -51t13.5 -68t-13.5 -68t-37.5 -51t-57 -32t-72 -11h-204v434h-139v96h246v-205h97zM343 93q38 0 61.5 18.5t23.5 50.5q0 33 -23.5 51t-61.5 18h-85v-138h85z" />
    <glyph glyph-name="afii10093" unicode="&#x44b;" horiz-adv-x="699" 
d="M278 325q40 0 73.5 -11.5t57.5 -32.5t37 -51t13 -68t-13 -68t-37 -51t-57.5 -32t-73.5 -11h-204v530h107v-205h97zM266 93q38 0 62 18.5t24 50.5q0 33 -23.5 51t-62.5 18h-85v-138h85zM629 530v-530h-107v530h107z" />
    <glyph glyph-name="afii10094" unicode="&#x44c;" horiz-adv-x="493" 
d="M274 325q40 0 73.5 -11.5t57.5 -32.5t37 -51t13 -68t-13 -68t-37 -51t-57.5 -32t-73.5 -11h-204v530h107v-205h97zM262 93q38 0 62 18.5t24 50.5q0 33 -23.5 51t-62.5 18h-85v-138h85z" />
    <glyph glyph-name="afii10095" unicode="&#x44d;" horiz-adv-x="504" 
d="M198 448q-85 0 -160 -37v103q80 28 161 28q117 0 192 -76q75 -75 75 -201q0 -125 -75 -201q-75 -75 -192 -75q-86 0 -161 28v103q71 -37 160 -37q60 0 104 39.5t54 105.5h-246v75h246q-10 66 -54 105.5t-104 39.5z" />
    <glyph glyph-name="afii10096" unicode="&#x44e;" horiz-adv-x="878" 
d="M177 530v-221h130q16 103 90 168t172 65q115 0 192 -81q76 -80 76 -197q0 -115 -76 -195q-77 -80 -192 -80q-100 0 -172 63q-73 65 -89 161h-131v-213h-107v530h107zM413 262q0 -73 44 -123q45 -50 113 -50q67 0 112 49t45 127q0 77 -47 127q-47 51 -110 51
q-65 0 -111 -51q-46 -50 -46 -130z" />
    <glyph glyph-name="afii10097" unicode="&#x44f;" horiz-adv-x="506" 
d="M436 530v-530h-107v194h-24l-152 -194h-134l157 208q-61 25 -87 61.5t-26 99.5q0 72 48 116.5t145 44.5h180zM329 289v145h-76q-38 0 -61 -20t-23 -53q0 -32 23 -52t60 -20h77z" />
    <glyph glyph-name="uni0450" unicode="&#x450;" horiz-adv-x="562" 
d="M419 326q-4 60 -41 93t-89 33q-54 0 -89 -34t-47 -92h266zM468 17q-75 -28 -161 -28q-117 0 -192 78t-75 207q0 116 68 192q67 76 181 76q53 0 96 -18t73.5 -53t47 -87t16.5 -121v-18h-371q9 -75 50 -117.5t107 -42.5q89 0 160 40v-108zM414 646l-38 -56l-207 134l47 70z
" />
    <glyph glyph-name="afii10071" unicode="&#x451;" horiz-adv-x="562" 
d="M419 326q-4 60 -41 93t-89 33q-54 0 -89 -34t-47 -92h266zM468 17q-75 -28 -161 -28q-117 0 -192 78t-75 207q0 116 68 192q67 76 181 76q53 0 96 -18t73.5 -53t47 -87t16.5 -121v-18h-371q9 -75 50 -117.5t107 -42.5q89 0 160 40v-108zM248 733q18 -17 18 -41t-18 -41
q-17 -17 -41 -17t-41 17t-17 41t17 41q17 18 41 18t41 -18zM337 733q17 18 41 18t41 -18q18 -17 18 -41t-18 -41q-17 -17 -41 -17t-41 17t-17 41t17 41z" />
    <glyph glyph-name="afii10099" unicode="&#x452;" horiz-adv-x="602" 
d="M338 -124q40 0 63 29t23 68v324q0 146 -119 146q-16 0 -32.5 -5.5t-31.5 -14.5t-27 -20t-20 -21l-15 -20v-362h-107v608h-44v52h44v104h107v-104h146v-52h-146v-149q27 34 68 58.5t84 24.5q200 0 200 -235v-330q0 -88 -49 -144q-49 -58 -144 -58v101z" />
    <glyph glyph-name="afii10100" unicode="&#x453;" horiz-adv-x="376" 
d="M177 434v-434h-107v530h292v-96h-185zM132 590l-38 56l198 148l47 -70z" />
    <glyph glyph-name="afii10101" unicode="&#x454;" horiz-adv-x="504" 
d="M306 448q-60 0 -104 -39.5t-54 -105.5h246v-75h-246q10 -66 54 -105.5t104 -39.5q89 0 160 37v-103q-75 -28 -161 -28q-117 0 -192 75q-75 76 -75 201q0 126 75 201q75 76 192 76q81 0 161 -28v-103q-75 37 -160 37z" />
    <glyph glyph-name="afii10102" unicode="&#x455;" horiz-adv-x="433" 
d="M386 150q0 -71 -51 -116q-50 -45 -125 -45q-79 0 -149 30v107q70 -43 141 -43q31 0 52.5 15t21.5 40q0 23 -23 44t-56 40q-24 13 -49.5 29.5t-46.5 36t-34.5 44t-13.5 54.5q0 67 50 111q49 45 124 45q63 0 135 -29v-109q-74 44 -129 44q-25 0 -47.5 -14t-22.5 -38
q0 -21 23 -42t55 -40q24 -13 49.5 -29t47 -36t35 -44.5t13.5 -54.5z" />
    <glyph glyph-name="afii10103" unicode="&#x456;" horiz-adv-x="244" 
d="M176 0h-107v530h107v-530zM122 580q-27 0 -47 19.5t-20 47.5q0 27 20 46.5t47 19.5q28 0 47.5 -19t19.5 -47t-19.5 -47.5t-47.5 -19.5z" />
    <glyph glyph-name="afii10104" unicode="&#x457;" horiz-adv-x="244" 
d="M79 733q18 -17 18 -41t-18 -41q-17 -17 -41 -17t-41 17t-17 41t17 41q17 18 41 18t41 -18zM168 733q17 18 41 18t41 -18q18 -17 18 -41t-18 -41q-17 -17 -41 -17t-41 17t-17 41t17 41zM176 530v-530h-107v530h107z" />
    <glyph glyph-name="afii10105" unicode="&#x458;" horiz-adv-x="257" 
d="M-55 -117q20 -7 51 -7q40 0 63 29t23 68v557h107v-553q0 -86 -49 -144q-48 -58 -140 -58q-28 0 -55 7v101zM135 580q-27 0 -47 19.5t-20 47.5q0 27 20 46.5t47 19.5q28 0 47.5 -19t19.5 -47t-19.5 -47.5t-47.5 -19.5z" />
    <glyph glyph-name="afii10106" unicode="&#x459;" horiz-adv-x="790" 
d="M572 325q39 0 72 -11.5t57 -32.5t37.5 -51t13.5 -68t-13.5 -68t-37.5 -51t-57 -32t-72 -11h-204v434h-170v-262q0 -79 -53 -126t-133 -50v98q35 2 57 23t22 57v356h384v-205h97zM560 93q38 0 62 18.5t24 50.5q0 33 -23.5 51t-62.5 18h-85v-138h85z" />
    <glyph glyph-name="afii10107" unicode="&#x45a;" horiz-adv-x="810" 
d="M591 325q40 0 73.5 -11.5t57.5 -32.5t37 -51t13 -68q0 -37 -13 -67t-37 -51t-57.5 -32.5t-73.5 -11.5h-205v231h-209v-231h-107v530h107v-205h209v205h107v-205h98zM579 93q38 0 61.5 18.5t23.5 50.5q0 33 -23.5 51t-61.5 18h-86v-138h86z" />
    <glyph glyph-name="afii10108" unicode="&#x45b;" horiz-adv-x="602" 
d="M72 764h107v-104h146v-52h-146v-149q27 34 68 58.5t84 24.5q200 0 200 -235v-307h-107v297q0 146 -119 146q-16 0 -32.5 -5.5t-31.5 -14.5t-27 -20t-20 -21l-15 -20v-362h-107v608h-44v52h44v104z" />
    <glyph glyph-name="afii10109" unicode="&#x45c;" horiz-adv-x="503" 
d="M201 315l147 215h127l-166 -234q52 -23 79.5 -51t44.5 -72q13 -31 18 -53q2 -11 5.5 -26t7.5 -35l14 -59h-110q-3 19 -6 35t-6.5 30t-8.5 27.5t-11 28.5q-17 44 -49.5 69t-89.5 25h-20v-215h-107v530h107v-215h24zM167 590l-38 56l198 148l47 -70z" />
    <glyph glyph-name="uni045D" unicode="&#x45d;" horiz-adv-x="596" 
d="M70 0v530h107v-235v-14.5t-1 -27.5v-58h6q10 16 26 38.5t39 51.5l192 245h87v-530h-107v255q0 36 0.5 59t1.5 33h-7q-18 -26 -34.5 -47.5t-30.5 -40.5l-204 -259h-75zM418 646l-38 -56l-207 134l47 70z" />
    <glyph glyph-name="afii10110" unicode="&#x45e;" horiz-adv-x="569" 
d="M440 530h117l-351 -746h-114l136 279l-216 467h118l111 -244q11 -24 41 -106h6q5 17 15.5 44t26.5 62zM458 735q-25 -63 -72 -91t-101 -28q-53 0 -101 28.5t-72 90.5l65 28q12 -32 32 -50q20 -17 36.5 -21t39.5 -4q35 0 62.5 14.5t46.5 60.5z" />
    <glyph glyph-name="afii10193" unicode="&#x45f;" horiz-adv-x="559" 
d="M231 -173v173h-161v530h107v-434h205v434h107v-530h-163v-173h-95z" />
    <glyph glyph-name="afii10050" unicode="&#x490;" horiz-adv-x="443" 
d="M188 605v-605h-110v712h253v176h96v-283h-239z" />
    <glyph glyph-name="afii10098" unicode="&#x491;" horiz-adv-x="375" 
d="M177 434v-434h-107v530h198v173h95v-269h-186z" />
    <glyph glyph-name="afii10846" unicode="&#x4d9;" horiz-adv-x="567" 
d="M149 205q4 -60 41 -93t89 -33q54 0 89 34t47 92h-266zM100 514q75 28 161 28q117 0 192 -78t75 -207q0 -116 -68 -193q-68 -75 -181 -75q-53 0 -96 18t-73.5 53t-47 87t-16.5 121v18h371q-9 75 -50 117.5t-107 42.5q-89 0 -160 -40v108z" />
    <glyph glyph-name="Wgrave" unicode="&#x1e80;" horiz-adv-x="892" 
d="M31 712h113l66 -390q11 -60 15 -133h7q13 45 24 77.5t20 54.5l146 361h49l146 -361q5 -12 11 -30.5t14 -43.5l18 -58h7q6 84 15 133l67 390h112l-122 -712h-109l-137 336q-16 38 -26.5 67t-16.5 51h-7q-5 -17 -15.5 -46t-27.5 -71l-139 -337h-108zM568 828l-38 -56
l-207 134l47 70z" />
    <glyph glyph-name="wgrave" unicode="&#x1e81;" horiz-adv-x="807" 
d="M671 530h110l-144 -530h-76l-116 236q-17 36 -40 98h-4q-2 -4 -6 -15.5t-10 -26t-12.5 -30t-12.5 -26.5l-116 -236h-75l-145 530h111l66 -252q13 -47 22 -119h6q17 61 45 118l106 227h45l106 -227q26 -56 46 -118h5q1 2 2.5 14t5.5 35q7 45 15 70zM525 646l-38 -56
l-207 134l47 70z" />
    <glyph glyph-name="Wacute" unicode="&#x1e82;" horiz-adv-x="892" 
d="M31 712h113l66 -390q11 -60 15 -133h7q13 45 24 77.5t20 54.5l146 361h49l146 -361q5 -12 11 -30.5t14 -43.5l18 -58h7q6 84 15 133l67 390h112l-122 -712h-109l-137 336q-16 38 -26.5 67t-16.5 51h-7q-5 -17 -15.5 -46t-27.5 -71l-139 -337h-108zM361 772l-38 56
l198 148l47 -70z" />
    <glyph glyph-name="wacute" unicode="&#x1e83;" horiz-adv-x="807" 
d="M671 530h110l-144 -530h-76l-116 236q-17 36 -40 98h-4q-2 -4 -6 -15.5t-10 -26t-12.5 -30t-12.5 -26.5l-116 -236h-75l-145 530h111l66 -252q13 -47 22 -119h6q17 61 45 118l106 227h45l106 -227q26 -56 46 -118h5q1 2 2.5 14t5.5 35q7 45 15 70zM318 590l-38 56
l198 148l47 -70z" />
    <glyph glyph-name="Wdieresis" unicode="&#x1e84;" horiz-adv-x="892" 
d="M31 712h113l66 -390q11 -60 15 -133h7q13 45 24 77.5t20 54.5l146 361h49l146 -361q5 -12 11 -30.5t14 -43.5l18 -58h7q6 84 15 133l67 390h112l-122 -712h-109l-137 336q-16 38 -26.5 67t-16.5 51h-7q-5 -17 -15.5 -46t-27.5 -71l-139 -337h-108zM401 915q18 -17 18 -41
t-18 -41q-17 -17 -41 -17t-41 17t-17 41t17 41q17 18 41 18t41 -18zM490 915q17 18 41 18t41 -18q18 -17 18 -41t-18 -41q-17 -17 -41 -17t-41 17t-17 41t17 41z" />
    <glyph glyph-name="wdieresis" unicode="&#x1e85;" horiz-adv-x="807" 
d="M671 530h110l-144 -530h-76l-116 236q-17 36 -40 98h-4q-2 -4 -6 -15.5t-10 -26t-12.5 -30t-12.5 -26.5l-116 -236h-75l-145 530h111l66 -252q13 -47 22 -119h6q17 61 45 118l106 227h45l106 -227q26 -56 46 -118h5q1 2 2.5 14t5.5 35q7 45 15 70zM357 733q18 -17 18 -41
t-18 -41q-17 -17 -41 -17t-41 17t-17 41t17 41q17 18 41 18t41 -18zM446 733q17 18 41 18t41 -18q18 -17 18 -41t-18 -41q-17 -17 -41 -17t-41 17t-17 41t17 41z" />
    <glyph glyph-name="Ygrave" unicode="&#x1ef2;" horiz-adv-x="612" 
d="M11 712h125l124 -214q8 -14 19 -35.5t24 -49.5h6q13 36 42 84l125 215h124l-239 -418v-294h-110v294zM428 828l-38 -56l-207 134l47 70z" />
    <glyph glyph-name="ygrave" unicode="&#x1ef3;" horiz-adv-x="576" 
d="M444 530h117l-351 -746h-114l136 279l-216 467h118l111 -244q11 -24 41 -106h6q5 17 15.5 44t26.5 62zM411 646l-38 -56l-207 134l47 70z" />
    <glyph glyph-name="endash" unicode="&#x2013;" horiz-adv-x="516" 
d="M36 350h444v-98h-444v98z" />
    <glyph glyph-name="emdash" unicode="&#x2014;" horiz-adv-x="955" 
d="M36 350h883v-98h-883v98z" />
    <glyph glyph-name="quoteleft" unicode="&#x2018;" horiz-adv-x="253" 
d="M223 763q-52 -149 -71 -281l-122 -12q54 183 126 305z" />
    <glyph glyph-name="quoteright" unicode="&#x2019;" horiz-adv-x="253" 
d="M30 482q52 149 71 281l122 12q-54 -183 -126 -305z" />
    <glyph glyph-name="quotesinglbase" unicode="&#x201a;" horiz-adv-x="253" 
d="M30 -188q52 149 71 281l122 12q-54 -183 -126 -305z" />
    <glyph glyph-name="quotedblleft" unicode="&#x201c;" horiz-adv-x="448" 
d="M223 763q-52 -149 -71 -281l-122 -12q54 183 126 305zM418 763q-52 -149 -71 -281l-122 -12q54 183 126 305z" />
    <glyph glyph-name="quotedblright" unicode="&#x201d;" horiz-adv-x="448" 
d="M30 482q52 149 71 281l122 12q-54 -183 -126 -305zM225 482q52 149 71 281l122 12q-54 -183 -126 -305z" />
    <glyph glyph-name="quotedblbase" unicode="&#x201e;" horiz-adv-x="448" 
d="M30 -188q52 149 71 281l122 12q-54 -183 -126 -305zM225 -188q52 149 71 281l122 12q-54 -183 -126 -305z" />
    <glyph glyph-name="dagger" unicode="&#x2020;" horiz-adv-x="533" 
d="M214 764h105v-212h159v-104h-159v-553h-105v553h-159v104h159v212z" />
    <glyph glyph-name="daggerdbl" unicode="&#x2021;" horiz-adv-x="533" 
d="M214 764h105v-211h159v-103h-159v-178h159v-103h-159v-274h-105v274h-159v103h159v178h-159v103h159v211z" />
    <glyph glyph-name="bullet" unicode="&#x2022;" horiz-adv-x="484" 
d="M242 518q70 0 118 -49q49 -49 49 -120t-49 -120t-118 -49q-70 0 -119 49t-49 120q0 69 48 119q50 50 120 50z" />
    <glyph glyph-name="ellipsis" unicode="&#x2026;" horiz-adv-x="856" 
d="M72 61q0 29 19.5 49t47.5 20t48 -20.5t20 -48.5t-20 -47t-48 -19t-47.5 19t-19.5 47zM494 61q0 -28 -19.5 -47t-47.5 -19t-48 19t-20 47t20 48.5t48 20.5t47.5 -20t19.5 -49zM713 130q28 0 47.5 -20t19.5 -49q1 -22 -11 -37.5t-30.5 -23t-38.5 -4.5t-35 18
q-17 13 -19.5 33.5t5.5 39t24.5 31.5t37.5 12z" />
    <glyph glyph-name="perthousand" unicode="&#x2030;" horiz-adv-x="1123" 
d="M181 724q154 0 154 -189q0 -187 -154 -187q-156 0 -156 187q0 189 156 189zM181 422q75 0 75 113q0 115 -75 115q-76 0 -76 -115q0 -113 76 -113zM437 181q0 187 155 187t155 -187t-155 -187t-155 187zM668 181q0 113 -76 113t-76 -113q0 -114 76 -114t76 114zM787 181
q0 187 155 187t155 -187t-155 -187t-155 187zM942 67q76 0 76 114q0 113 -76 113q-75 0 -75 -113q0 -114 75 -114zM166 20l358 699l69 -34l-357 -699z" />
    <glyph glyph-name="guilsinglleft" unicode="&#x2039;" horiz-adv-x="319" 
d="M282 458l-130 -193l130 -193h-115l-131 193l131 193h115z" />
    <glyph glyph-name="guilsinglright" unicode="&#x203a;" horiz-adv-x="318" 
d="M167 265l-131 193h115l131 -193l-131 -193h-115z" />
    <glyph glyph-name="fraction" unicode="&#x2044;" horiz-adv-x="195" 
d="M-50 -14l-63 34l357 699l64 -33z" />
    <glyph glyph-name="zerosuperior" unicode="&#x2070;" horiz-adv-x="326" 
d="M295 698q0 -174 -132 -174t-132 174v35q0 173 132 173t132 -173v-35zM225 729q0 110 -62 110t-62 -110v-27q0 -111 62 -111t62 111v27z" />
    <glyph glyph-name="foursuperior" unicode="&#x2074;" horiz-adv-x="316" 
d="M251 667h39v-66h-39v-71h-69v71h-166v62l172 237h63v-233zM183 665v121l-88 -121h88z" />
    <glyph glyph-name="fivesuperior" unicode="&#x2075;" horiz-adv-x="292" 
d="M265 652q0 -53 -39 -90q-40 -38 -93 -38q-46 0 -95 20v71q43 -27 95 -27q27 0 44.5 18t17.5 45q0 29 -15 48t-41 19q-39 0 -70 -22l-32 17l26 187h186v-67h-130l-8 -64q15 4 28 4q55 0 90.5 -33.5t35.5 -87.5z" />
    <glyph glyph-name="sixsuperior" unicode="&#x2076;" horiz-adv-x="312" 
d="M170 900h83l-87 -121q49 0 84 -38q36 -38 36 -86q0 -54 -37 -92q-38 -38 -93 -38q-56 0 -93 37q-38 38 -38 92q0 43 41 102zM156 588q26 0 44.5 18.5t18.5 45.5q0 28 -18.5 47.5t-44.5 19.5q-25 0 -44.5 -19.5t-19.5 -46.5q0 -26 17.5 -45.5t46.5 -19.5z" />
    <glyph glyph-name="sevensuperior" unicode="&#x2077;" horiz-adv-x="283" 
d="M183 833h-157v67h251v-37l-178 -333h-78z" />
    <glyph glyph-name="eightsuperior" unicode="&#x2078;" horiz-adv-x="309" 
d="M31 643q0 22 12 47.5t33 39.5q-32 26 -32 69q0 23 8.5 42.5t23.5 34t35 22.5t43 8t43 -8t35 -22.5t24 -34t9 -42.5q0 -40 -34 -68q22 -14 34 -39t12 -49q0 -26 -9.5 -47.5t-26 -37.5t-39 -25t-48.5 -9q-27 0 -49.5 9t-39 25t-25.5 37.5t-9 47.5zM98 644q0 -24 17.5 -40
t39.5 -16q21 0 38 15.5t17 39.5q0 25 -17 40.5t-39 15.5t-39 -16t-17 -39zM111 799q0 -15 12.5 -27.5t30.5 -12.5q17 0 30 12t13 28q0 18 -12.5 31t-30.5 13t-30.5 -13t-12.5 -31z" />
    <glyph glyph-name="ninesuperior" unicode="&#x2079;" horiz-adv-x="313" 
d="M142 531h-84l87 120q-54 8 -87 40.5t-33 83.5q0 54 37 92q37 39 94 39q55 0 93 -38t38 -92q0 -45 -42 -102zM93 778q0 -28 18.5 -47t44.5 -19q25 0 44 19t19 46q0 25 -18 45t-45 20t-45 -18.5t-18 -45.5z" />
    <glyph glyph-name="parenleftsuperior" unicode="&#x207d;" horiz-adv-x="203" 
d="M195 938q-139 -222 0 -444h-67l-33 61q-5 10 -10.5 26.5t-12.5 39.5q-13 45 -13 95q0 49 13 94q7 23 12.5 40t10.5 28q10 21 33 60h67z" />
    <glyph glyph-name="parenrightsuperior" unicode="&#x207e;" horiz-adv-x="203" 
d="M75 938q11 -20 19 -34.5t13 -25.5q10 -20 24 -68q13 -45 13 -94q0 -50 -13 -95q-7 -23 -12.5 -39.5t-10.5 -26.5l-33 -61h-67q139 222 0 444h67z" />
    <glyph glyph-name="zeroinferior" unicode="&#x2080;" horiz-adv-x="326" 
d="M295 -27q0 -174 -132 -174t-132 174v35q0 173 132 173t132 -173v-35zM225 4q0 110 -62 110t-62 -110v-27q0 -111 62 -111t62 111v27z" />
    <glyph glyph-name="oneinferior" unicode="&#x2081;" horiz-adv-x="260" 
d="M140 175h58v-370h-70v271q-3 -2 -15 -12.5t-34 -27.5l-44 -37v87z" />
    <glyph glyph-name="twoinferior" unicode="&#x2082;" horiz-adv-x="299" 
d="M133 -128h131v-67h-232v57l127 141q35 41 35 57q0 22 -15.5 38t-37.5 16q-24 0 -51 -18.5t-47 -47.5v98q46 35 97 35q50 0 87 -35q36 -35 36 -85q0 -47 -52 -105z" />
    <glyph glyph-name="threeinferior" unicode="&#x2083;" horiz-adv-x="280" 
d="M77 -31v63h33q27 0 43 12t16 29q0 18 -14 30t-33 12q-47 0 -88 -26v75q43 17 88 17q51 0 84 -31.5t33 -79.5q0 -42 -30 -67q41 -29 41 -81q0 -54 -37 -88q-38 -35 -92 -35q-44 0 -91 16v72q40 -22 91 -22q26 0 42 14.5t16 38.5q0 23 -19 37t-50 14h-33z" />
    <glyph glyph-name="fourinferior" unicode="&#x2084;" horiz-adv-x="316" 
d="M251 -58h39v-66h-39v-71h-69v71h-166v62l172 237h63v-233zM183 -60v121l-88 -121h88z" />
    <glyph glyph-name="fiveinferior" unicode="&#x2085;" horiz-adv-x="292" 
d="M265 -73q0 -53 -39 -90q-40 -38 -93 -38q-46 0 -95 20v71q43 -27 95 -27q27 0 44.5 18t17.5 45q0 29 -15 48t-41 19q-39 0 -70 -22l-32 17l26 187h186v-67h-130l-8 -64q15 4 28 4q55 0 90.5 -33.5t35.5 -87.5z" />
    <glyph glyph-name="sixinferior" unicode="&#x2086;" horiz-adv-x="312" 
d="M170 175h83l-87 -121q49 0 84 -38q36 -38 36 -86q0 -54 -37 -91q-38 -39 -93 -39t-93 38t-38 91q0 43 41 102zM156 -137q26 0 44.5 18.5t18.5 45.5q0 28 -18.5 47.5t-44.5 19.5q-25 0 -44.5 -19.5t-19.5 -46.5q0 -26 17.5 -45.5t46.5 -19.5z" />
    <glyph glyph-name="seveninferior" unicode="&#x2087;" horiz-adv-x="283" 
d="M183 108h-157v67h251v-37l-178 -333h-78z" />
    <glyph glyph-name="eightinferior" unicode="&#x2088;" horiz-adv-x="309" 
d="M31 -82q0 22 12 47.5t33 39.5q-32 26 -32 69q0 23 8.5 42.5t23.5 34t35 22.5t43 8t43 -8t35 -22.5t24 -34t9 -42.5q0 -40 -34 -68q22 -14 34 -39t12 -49q0 -26 -9.5 -47.5t-26 -37.5t-39 -25t-48.5 -9q-27 0 -49.5 9t-39 25t-25.5 37.5t-9 47.5zM98 -81q0 -24 17.5 -40
t39.5 -16q21 0 38 15.5t17 39.5q0 25 -17 40.5t-39 15.5t-39 -16t-17 -39zM111 74q0 -15 12.5 -27.5t30.5 -12.5q17 0 30 12t13 28q0 18 -12.5 31t-30.5 13t-30.5 -13t-12.5 -31z" />
    <glyph glyph-name="nineinferior" unicode="&#x2089;" horiz-adv-x="313" 
d="M142 -194h-84l87 120q-54 8 -87 40.5t-33 83.5q0 54 37 92q37 39 94 39q55 0 93 -38t38 -92q0 -45 -42 -102zM93 53q0 -28 18.5 -47t44.5 -19q25 0 44 19t19 46q0 25 -18 45t-45 20t-45 -18.5t-18 -45.5z" />
    <glyph glyph-name="parenleftinferior" unicode="&#x208d;" horiz-adv-x="203" 
d="M195 213q-139 -222 0 -444h-67l-33 62q-5 10 -10.5 26.5t-12.5 39.5q-13 45 -13 94t13 94q7 23 12.5 40t10.5 28q10 21 33 60h67z" />
    <glyph glyph-name="parenrightinferior" unicode="&#x208e;" horiz-adv-x="203" 
d="M75 213q11 -20 19 -34.5t13 -25.5q10 -20 24 -68q13 -45 13 -94t-13 -94q-7 -23 -12.5 -39.5t-10.5 -26.5l-33 -62h-67q139 222 0 444h67z" />
    <glyph glyph-name="Euro" unicode="&#x20ac;" horiz-adv-x="663" 
d="M456 617q-78 0 -136.5 -39.5t-87.5 -106.5h291v-68h-312q-2 -10 -3 -21.5t-1 -25.5q0 -19 3 -40h313v-68h-294q28 -69 88 -110.5t139 -41.5q84 0 167 61v-124q-86 -44 -167 -44q-122 0 -218 72q-95 74 -128 187h-85v68h71q-1 7 -1 17v23q0 8 0.5 20t1.5 27h-72v68h87
q36 112 130 182q95 71 214 71q84 0 167 -44v-127q-80 64 -167 64z" />
    <glyph glyph-name="trademark" unicode="&#x2122;" horiz-adv-x="867" 
d="M831 712v-414h-77v288l-123 -288h-53l-121 290v-290h-75v414h100l124 -285l124 285h101zM331 712v-71h-111v-343h-75v343h-111v71h297z" />
    <glyph glyph-name="uni2126" unicode="&#x2126;" horiz-adv-x="786" 
d="M596 103q16 2 32.5 3t33.5 1h71v-107h-278v122q75 30 125 98q50 70 50 150q0 106 -65 177q-64 70 -172 70q-109 0 -173 -70t-64 -177q0 -80 50 -150q50 -68 125 -98v-122h-279v107h71q17 0 33.5 -1t33.5 -3v6q-20 13 -35.5 27t-27.5 28q-83 98 -83 206q0 153 98 254
q99 100 251 100t249 -100q99 -101 99 -254q0 -112 -82 -206q-12 -14 -27.5 -28t-35.5 -27v-6z" />
    <glyph glyph-name="estimated" unicode="&#x212e;" horiz-adv-x="760" 
d="M649 130q-51 -67 -123 -104t-151 -37q-133 0 -234 98q-100 99 -100 237q0 142 100 238q100 97 234 97q136 0 235 -99q99 -98 99 -236v-18h-542v-195q89 -86 208 -86q130 0 216 105h58zM167 343h417v194q-89 86 -209 86q-124 0 -208 -86v-194z" />
    <glyph glyph-name="arrowleft" unicode="&#x2190;" horiz-adv-x="826" 
d="M569 712l-301 -301h501v-110h-501l301 -301h-156l-356 356l356 356h156z" />
    <glyph glyph-name="arrowup" unicode="&#x2191;" horiz-adv-x="826" 
d="M769 200l-301 301v-501h-110v501l-301 -301v156l356 356l356 -356v-156z" />
    <glyph glyph-name="arrowright" unicode="&#x2192;" horiz-adv-x="826" 
d="M257 0l301 301h-501v110h501l-301 301h156l356 -356l-356 -356h-156z" />
    <glyph glyph-name="arrowdown" unicode="&#x2193;" horiz-adv-x="826" 
d="M57 512l301 -301v501h110v-501l301 301v-156l-356 -356l-356 356v156z" />
    <glyph glyph-name="partialdiff" unicode="&#x2202;" horiz-adv-x="614" 
d="M443 645q54 -48 84 -129t30 -178q0 -96 -31 -171q-30 -77 -99 -128q-70 -50 -168 -50q-93 0 -155 62q-61 61 -61 157q0 81 43 148q45 69 110.5 106.5t134.5 37.5q59 0 92 -30q-53 149 -207 149q-7 0 -30 -2.5t-63 -7.5q-8 33 -13.5 57.5t-9.5 41.5q51 16 113 16
q142 0 230 -79zM259 93q71 0 126 58q57 58 57 131q0 51 -31 83t-80 32q-68 0 -122 -59t-54 -130q0 -52 28 -83.5t76 -31.5z" />
    <glyph glyph-name="uni2206" unicode="&#x2206;" horiz-adv-x="697" 
d="M345 531q-14 -44 -24 -74.5t-17 -48.5l-119 -300h327l-120 301q-5 14 -15.5 44t-25.5 78h-6zM52 0v75l260 637h74l259 -637v-75h-593z" />
    <glyph glyph-name="product" unicode="&#x220f;" horiz-adv-x="658" 
d="M26 605v107h606v-107h-65v-821h-112v821h-252v-821h-112v821h-65z" />
    <glyph glyph-name="summation" unicode="&#x2211;" horiz-adv-x="615" 
d="M26 712h555v-107h-421l218 -337l-221 -376h432v-108h-563v100l224 382l-224 345v101z" />
    <glyph glyph-name="minus" unicode="&#x2212;" 
d="M42 190v103h483v-103h-483z" />
    <glyph glyph-name="radical" unicode="&#x221a;" horiz-adv-x="527" 
d="M396 764h110l-218 -764h-117l-68 234h-82v109h154l54 -179z" />
    <glyph glyph-name="infinity" unicode="&#x221e;" horiz-adv-x="715" 
d="M517 120q-46 0 -82.5 22t-75.5 77q-42 -55 -78.5 -76.5t-81.5 -21.5q-36 0 -66 13t-51.5 37t-33.5 57t-12 72q0 79 45 129q46 51 118 51q45 0 81 -21.5t76 -76.5q39 55 76 76.5t85 21.5q72 0 117 -51q45 -50 45 -129q0 -81 -45 -130q-44 -50 -117 -50zM509 379
q-13 0 -23.5 -3.5t-21.5 -12.5t-23 -24.5t-28 -39.5q15 -23 27 -38t23 -24t22 -13t24 -4q30 0 49 22.5t19 57.5t-19 57t-49 22zM206 220q12 0 22.5 3.5t21 12.5t23 24.5t29.5 39.5q-30 47 -50 63t-46 16q-31 0 -50 -22t-19 -57t19 -57.5t50 -22.5z" />
    <glyph glyph-name="integral" unicode="&#x222b;" horiz-adv-x="384" 
d="M367 614q-29 9 -58 9q-33 0 -49 -23.5t-16 -54.5v-585q0 -42 -10 -76.5t-31 -60t-53.5 -39.5t-77.5 -14q-20 0 -56 9v101q30 -10 58 -10q32 0 48.5 24t16.5 55v585q0 84 40 136q40 54 131 54q19 0 57 -9v-101z" />
    <glyph glyph-name="therefore" unicode="&#x2234;" 
d="M179 61q0 -28 -19.5 -47t-47.5 -19t-47.5 19t-19.5 47q0 29 19.5 49t47.5 20t47.5 -20t19.5 -49zM522 61q0 -28 -19.5 -47t-47.5 -19t-47.5 19t-19.5 47q0 29 19.5 49t47.5 20t47.5 -20t19.5 -49zM350 399q0 -28 -19.5 -47t-47.5 -19t-47.5 19t-19.5 47q0 29 19.5 49
t47.5 20t47.5 -20t19.5 -49z" />
    <glyph glyph-name="approxequal" unicode="&#x2248;" 
d="M535 364q-75 -115 -149 -115q-38 0 -109 38q-71 39 -90 39q-37 0 -80 -66l-74 54q74 113 149 113q40 0 118 -38t83 -38q13 0 26 11l10.5 10.5t9 10.5t10 15t14.5 23zM33 107q74 113 149 113q39 0 113 -38t84 -38q38 0 80 66l76 -54q-75 -113 -149 -113q-40 0 -114 38
t-89 38q-18 0 -32.5 -16t-37.5 -53z" />
    <glyph glyph-name="notequal" unicode="&#x2260;" 
d="M42 384h261l64 124l81 -41l-42 -83h119v-103h-173l-42 -79h215v-105h-269l-63 -122l-40 21l-40 19l42 82h-113v105h167l40 79h-207v103z" />
    <glyph glyph-name="lessequal" unicode="&#x2264;" 
d="M526 629v-111l-328 -139l328 -136v-111l-485 207v82zM44 93h483v-104h-483v104z" />
    <glyph glyph-name="greaterequal" unicode="&#x2265;" 
d="M41 518v111l486 -208v-82l-486 -207v111l327 136zM41 93h482v-104h-482v104z" />
    <glyph glyph-name="triagup" unicode="&#x25b2;" horiz-adv-x="826" 
d="M769 55h-712l356 617z" />
    <glyph glyph-name="triagrt" unicode="&#x25ba;" horiz-adv-x="826" 
d="M104 0v712l617 -356z" />
    <glyph glyph-name="triagdn" unicode="&#x25bc;" horiz-adv-x="826" 
d="M57 651h712l-356 -617z" />
    <glyph glyph-name="triaglf" unicode="&#x25c4;" horiz-adv-x="826" 
d="M721 709v-712l-617 356z" />
    <glyph glyph-name="lozenge" unicode="&#x25ca;" horiz-adv-x="576" 
d="M559 298l-219 -426h-107l-217 426l218 426h105zM287 584l-149 -287q8 -17 27 -53.5t48 -91.5t47.5 -90t26.5 -50l149 285z" />
    <glyph glyph-name="slash.small" unicode="&#xe00c;" horiz-adv-x="331" 
d="M0 -50l236 652l93 -33l-237 -651z" />
    <glyph glyph-name="backslash.small" unicode="&#xe00d;" horiz-adv-x="331" 
d="M92 602l237 -652l-92 -32l-237 650z" />
    <glyph glyph-name="bar.small" unicode="&#xe00e;" horiz-adv-x="211" 
d="M150 579v-616h-94v616h94z" />
    <glyph glyph-name="zero.small" unicode="&#xe019;" horiz-adv-x="490" 
d="M437 243q0 -251 -193 -251t-193 251v49q0 251 193 251t193 -251v-49zM329 287q0 156 -85 156t-85 -156v-39q0 -157 85 -157t85 157v39z" />
    <glyph glyph-name="one.small" unicode="&#xe01a;" horiz-adv-x="358" 
d="M188 534h88v-534h-106v385l-135 -112v133z" />
    <glyph glyph-name="two.small" unicode="&#xe01b;" horiz-adv-x="421" 
d="M186 99h187v-99h-340v82l186 206q47 53 47 80q0 31 -21.5 53t-51.5 22q-36 0 -76 -21.5t-68 -54.5v124q67 52 142 52q74 0 128 -51t54 -123q0 -64 -77 -150z" />
    <glyph glyph-name="three.small" unicode="&#xe01c;" horiz-adv-x="407" 
d="M110 241v83h35q48 0 72 16t24 43t-19 43.5t-49 16.5q-73 0 -126 -38v112q64 26 130 26q72 0 122 -44q49 -43 49 -112q0 -71 -52 -102q33 -18 50.5 -51.5t17.5 -68.5q0 -74 -53 -124q-52 -49 -134 -49q-71 0 -136 25v107q55 -33 131 -33q35 0 59.5 20.5t24.5 53.5
q0 34 -30 55t-81 21h-35z" />
    <glyph glyph-name="four.small" unicode="&#xe01d;" horiz-adv-x="462" 
d="M372 200h56v-99h-56v-101h-106v101h-237v90l248 343h95v-334zM270 195v89q0 28 3 103h-8l-23 -39q-21 -35 -32 -50l-74 -98z" />
    <glyph glyph-name="five.small" unicode="&#xe01e;" horiz-adv-x="443" 
d="M391 176q0 -76 -58 -130q-57 -54 -136 -54q-78 0 -139 27v104q55 -33 135 -33q37 0 63.5 24t26.5 61q0 39 -22.5 63.5t-60.5 24.5q-47 0 -94 -32l-51 26l40 277h271v-94h-187l-12 -89q25 6 38 6q81 0 133 -52q53 -53 53 -129z" />
    <glyph glyph-name="six.small" unicode="&#xe01f;" horiz-adv-x="459" 
d="M246 534h125l-124 -175q71 -7 122 -58q50 -50 50 -121q0 -77 -54 -132q-54 -56 -137 -56q-81 0 -136 54q-55 55 -55 132q0 66 60 149zM228 90q18 0 34 6.5t28 18t18.5 27t6.5 33.5q0 37 -25.5 63t-61.5 26q-18 0 -33.5 -6.5t-27.5 -18.5t-19 -28t-7 -34q0 -34 24 -60.5
t63 -26.5z" />
    <glyph glyph-name="seven.small" unicode="&#xe020;" horiz-adv-x="420" 
d="M259 435h-225v99h369v-55l-257 -479h-118z" />
    <glyph glyph-name="eight.small" unicode="&#xe021;" horiz-adv-x="460" 
d="M49 163q0 34 18 70t49 57q-23 18 -36 45.5t-13 52.5q0 67 47 111q49 44 115 44q68 0 115 -45q47 -44 47 -111q0 -22 -12.5 -50t-36.5 -47q32 -20 49.5 -56t17.5 -71q0 -73 -52 -122t-128 -49q-77 0 -129 49q-51 49 -51 122zM148 165q0 -17 7 -31.5t18 -25t26 -16.5t31 -6
q30 0 54.5 22.5t24.5 55.5q0 34 -24.5 56t-55.5 22q-32 0 -56.5 -22t-24.5 -55zM165 389q0 -23 19 -41.5t45 -18.5q12 0 23.5 5t20.5 13.5t14.5 19t5.5 22.5q0 25 -19 43.5t-44 18.5q-27 0 -46 -19t-19 -43z" />
    <glyph glyph-name="nine.small" unicode="&#xe022;" horiz-adv-x="457" 
d="M209 0h-125l124 173q-73 7 -122 58q-49 50 -49 123q0 76 54 132q55 57 137 57q79 0 135 -56q55 -55 55 -132q0 -66 -60 -148zM228 443q-36 0 -61.5 -25t-25.5 -61q0 -37 25.5 -63t61.5 -26q17 0 32.5 7t27.5 19t19 28t7 34q0 17 -6.5 32.5t-17.5 27.5t-27 19.5t-35 7.5z
" />
    <glyph glyph-name="dollar.small" unicode="&#xe023;" horiz-adv-x="436" 
d="M382 162q0 -33 -10.5 -61.5t-30 -50.5t-46 -36.5t-59.5 -19.5v-50h-41v47q-76 3 -139 54v132q69 -82 139 -86v139q-17 7 -28.5 13t-22 12t-21 13t-23.5 16q-48 39 -48 103t40 105t103 49v50h41v-49q67 -5 122 -48v-125q-59 62 -122 71v-116q13 -6 22.5 -11t18.5 -9.5
t17.5 -10t20.5 -13.5q32 -20 48 -48t19 -70zM151 393q0 -25 44 -49v96q-19 -5 -31.5 -17.5t-12.5 -29.5zM236 95q48 16 48 58q0 30 -48 57v-115z" />
    <glyph glyph-name="percent.small" unicode="&#xe024;" horiz-adv-x="635" 
d="M150 543q124 0 124 -147t-124 -147q-126 0 -126 147t126 147zM150 326q40 0 40 70t-40 70q-41 0 -41 -70t41 -70zM608 141q0 -145 -125 -145t-125 145q0 146 125 146t125 -146zM524 141q0 69 -41 69t-41 -69q0 -70 41 -70t41 70zM142 22l267 522l73 -37l-267 -521z" />
    <glyph glyph-name="at.small" unicode="&#xe025;" horiz-adv-x="777" 
d="M408 -161q-167 0 -264 103t-97 251q0 154 101 252q103 98 252 98q133 0 228 -80t95 -209q0 -112 -58 -185q-59 -74 -128 -74q-53 0 -69 49q-52 -49 -118 -49q-73 0 -113 51q-41 52 -41 124q0 84 51 146t133 62q57 0 107 -49l7 40h81l-36 -254q-3 -18 -3 -21q0 -20 14 -20
q33 0 61 49q29 50 29 116q0 55 -17.5 97t-49 70t-76 42.5t-98.5 14.5q-116 0 -192 -78q-77 -77 -77 -192q0 -112 74 -194q73 -81 204 -81v-79zM474 245q-39 50 -94 50q-45 0 -72 -33.5t-27 -88.5q0 -43 21 -70.5t58 -27.5q43 0 71 37q30 37 36 81z" />
    <glyph glyph-name="cent.small" unicode="&#xe026;" horiz-adv-x="371" 
d="M327 249q-35 33 -72 39v-197q40 9 72 38v-107q-39 -22 -72 -26v-52h-40v50q-78 4 -128 61q-50 56 -50 134q0 80 51 136t127 60v43h40v-45q39 -6 72 -26v-108zM143 189q0 -38 20 -66t52 -32v198q-31 -5 -51.5 -31.5t-20.5 -68.5z" />
    <glyph glyph-name="sterling.small" unicode="&#xe027;" horiz-adv-x="449" 
d="M190 98h224v-98h-380v98h52v87h-52v52h52v128q0 71 51 124q51 54 125 54q47 0 97 -26v-118q-46 46 -97 46q-30 0 -51 -23t-21 -55v-130h169v-52h-169v-87z" />
    <glyph glyph-name="copyright.small" unicode="&#xe028;" horiz-adv-x="638" 
d="M330 434q40 0 78 -20v-86q-45 36 -78 36q-40 0 -66 -28t-26 -68t26 -67.5t66 -27.5q34 0 78 35v-85q-42 -21 -78 -21q-68 0 -116 48t-48 118t48 118t116 48zM318 543q113 0 193 -81q80 -82 80 -194q0 -113 -80 -193t-193 -80q-114 0 -194 80t-80 193q0 114 80 194
q79 81 194 81zM318 60q86 0 147 61t61 147t-61 147t-147 61q-87 0 -148 -61q-60 -62 -60 -147q0 -86 60 -147q61 -61 148 -61z" />
    <glyph glyph-name="yen.small" unicode="&#xe029;" horiz-adv-x="489" 
d="M477 534l-106 -184h78v-52h-107l-35 -61h142v-52h-152v-185h-106v185h-152v52h142l-35 61h-107v52h77l-105 184h120l83 -142q7 -13 13.5 -27t12.5 -31h6q17 42 27 58l84 142h120z" />
    <glyph glyph-name="Euro.small" unicode="&#xe02a;" horiz-adv-x="513" 
d="M340 443q-49 0 -87.5 -25.5t-57.5 -67.5h205v-52h-222q-3 -15 -3 -31t3 -29h222v-52h-206q20 -43 57.5 -69t88.5 -26q66 0 134 53v-116q-71 -36 -134 -36q-93 0 -163 54q-72 55 -97 140h-55v52h44q-1 5 -1 12v17q0 5 0.5 13t1.5 18h-45v52h55q26 86 97 139q72 54 163 54
q66 0 134 -37v-119q-67 56 -134 56z" />
    <glyph glyph-name="germandbls.small" unicode="&#xe02b;" horiz-adv-x="856" 
d="M219 443q-22 0 -38.5 -14t-16.5 -36q0 -19 23 -35t56 -32q24 -11 49.5 -25t46.5 -33t34.5 -45t13.5 -60q0 -74 -51 -123q-51 -48 -129 -48q-83 0 -146 54v127q26 -33 68 -57q43 -25 81 -25q28 0 48.5 17.5t20.5 44.5q0 23 -23 41.5t-56 33.5q-23 10 -49 23.5t-47 32.5
t-35 44.5t-13 59.5q0 68 47 112q47 43 120 43q76 0 139 -48v-120q-65 68 -143 68zM634 443q-22 0 -38.5 -14t-16.5 -36q0 -19 23 -35t55 -32q24 -11 49.5 -25t47 -33t35 -45t13.5 -60q0 -74 -51 -123q-51 -48 -129 -48q-83 0 -146 54v127q26 -33 68 -57q43 -25 81 -25
q28 0 48.5 17.5t20.5 44.5q0 23 -23 41.5t-56 33.5q-24 11 -49.5 24.5t-46.5 32t-34.5 44t-13.5 59.5q0 68 47 112q47 43 120 43q76 0 139 -48v-120q-65 68 -143 68z" />
    <glyph glyph-name="dotlessi.small" unicode="&#xe02c;" horiz-adv-x="262" 
d="M182 534v-534h-106v534h106z" />
    <glyph glyph-name="ampersand.01" unicode="&#xe37a;" horiz-adv-x="826" 
d="M358 0v301h-301v110h301v301h110v-301h301v-110h-301v-301h-110z" />
    <glyph glyph-name="f_j" unicode="&#xe380;" horiz-adv-x="569" 
d="M444 633q-96 41 -171 41q-17 0 -31.5 -6.5t-25.5 -18t-17.5 -27t-6.5 -33.5v-59h306v-553q0 -86 -49 -144q-48 -58 -140 -58q-28 0 -55 7v101q20 -7 51 -7q40 0 63 29t23 68v467h-199v-440h-107v440h-72v90h72v59q0 76 55 131t133 55q79 0 171 -34v-108z" />
    <glyph glyph-name="f_b" unicode="&#xe381;" horiz-adv-x="968" 
d="M926 264q0 -113 -69 -194q-68 -81 -185 -81q-51 0 -97.5 27t-79.5 63l-6 -79h-98v657q-66 17 -117 17q-17 0 -32 -6.5t-26 -18t-17.5 -27t-6.5 -33.5v-59h137v-90h-137v-440h-107v440h-72v90h72v59q0 77 55 131q55 55 134 55q83 0 224 -44v-268q73 79 174 79
q119 0 186 -82q68 -82 68 -196zM816 264q0 39 -11 72t-31 56t-48.5 36t-64.5 13q-73 0 -118 -53t-45 -126v-78q10 -17 29 -35q17 -17 56 -39q38 -20 78 -20q36 0 64.5 12.5t48.5 35.5t31 55t11 71z" />
    <glyph glyph-name="f_f_b" unicode="&#xe382;" horiz-adv-x="1274" 
d="M1232 264q0 -113 -69 -194q-68 -81 -185 -81q-51 0 -97.5 27t-79.5 63l-6 -79h-98v657q-66 17 -117 17q-17 0 -32 -6.5t-26 -18t-17.5 -27t-6.5 -33.5v-59h137v-90h-137v-440h-107v440h-199v-440h-107v440h-72v90h72v48q0 77 55 131q55 55 133 55q28 0 63 -7v-105
q-33 11 -63 11q-17 0 -31.5 -6.5t-25.5 -18t-17.5 -27t-6.5 -33.5v-48h199v59q0 77 55 131q55 55 134 55q83 0 224 -44v-268q73 79 174 79q119 0 186 -82q68 -82 68 -196zM1122 264q0 39 -11 72t-31 56t-48.5 36t-64.5 13q-73 0 -118 -53t-45 -126v-78q10 -17 29 -35
q17 -17 56 -39q38 -20 78 -20q36 0 64.5 12.5t48.5 35.5t31 55t11 71z" />
    <glyph glyph-name="f_f_h" unicode="&#xe383;" horiz-adv-x="1227" 
d="M13 530h72v48q0 77 55 131q55 55 133 55q28 0 63 -7v-105q-33 11 -63 11q-17 0 -31.5 -6.5t-25.5 -18t-17.5 -27t-6.5 -33.5v-48h199v59q0 77 55 131q55 55 134 55q83 0 224 -44v-271q64 82 153 82q102 0 150.5 -60.5t48.5 -174.5v-307h-107v295q0 146 -119 146
q-16 0 -32.5 -5.5t-31 -14t-27 -19t-19.5 -20.5l-16 -20v-362h-107v657q-66 17 -117 17q-17 0 -32 -6.5t-26 -18t-17.5 -27t-6.5 -33.5v-59h137v-90h-137v-440h-107v440h-199v-440h-107v440h-72v90z" />
    <glyph glyph-name="f_f_j" unicode="&#xe384;" horiz-adv-x="875" 
d="M560 -117q20 -7 51 -7q40 0 63 29t23 68v467h-199v-440h-107v440h-199v-440h-107v440h-72v90h72v48q0 77 55 131q55 55 133 55q28 0 63 -7v-105q-33 11 -63 11q-17 0 -31.5 -6.5t-25.5 -18t-17.5 -27t-6.5 -33.5v-48h199v59q0 76 55 131t133 55q79 0 171 -34v-108
q-96 41 -171 41q-17 0 -31.5 -6.5t-25.5 -18t-17.5 -27t-6.5 -33.5v-59h306v-553q0 -86 -49 -144q-48 -58 -140 -58q-28 0 -55 7v101z" />
    <glyph glyph-name="f_f_k" unicode="&#xe385;" horiz-adv-x="1166" 
d="M1005 530h132l-219 -247l229 -283h-135l-163 210l-45 -48v-162h-107v657q-66 17 -117 17q-17 0 -32 -6.5t-26 -18t-17.5 -27t-6.5 -33.5v-59h137v-90h-137v-440h-107v440h-199v-440h-107v440h-72v90h72v48q0 77 55 131q55 55 133 55q28 0 63 -7v-105q-33 11 -63 11
q-17 0 -31.5 -6.5t-25.5 -18t-17.5 -27t-6.5 -33.5v-48h199v59q0 77 55 131q55 55 134 55q83 0 224 -44v-331q0 -51 -3 -102h6q16 25 30 43t27 31z" />
    <glyph glyph-name="f_h" unicode="&#xe386;" horiz-adv-x="921" 
d="M13 530h72v59q0 77 55 131q55 55 134 55q83 0 224 -44v-271q64 82 153 82q102 0 150.5 -60.5t48.5 -174.5v-307h-107v295q0 146 -119 146q-16 0 -32.5 -5.5t-31 -14t-27 -19t-19.5 -20.5l-16 -20v-362h-107v657q-66 17 -117 17q-17 0 -32 -6.5t-26 -18t-17.5 -27
t-6.5 -33.5v-59h137v-90h-137v-440h-107v440h-72v90z" />
    <glyph glyph-name="f_k" unicode="&#xe388;" horiz-adv-x="860" 
d="M699 530h132l-219 -247l229 -283h-135l-163 210l-45 -48v-162h-107v657q-66 17 -117 17q-17 0 -32 -6.5t-26 -18t-17.5 -27t-6.5 -33.5v-59h137v-90h-137v-440h-107v440h-72v90h72v59q0 77 55 131q55 55 134 55q83 0 224 -44v-331q0 -51 -3 -102h6q16 25 30 43t27 31z
" />
    <glyph glyph-name="f_t" unicode="&#xe389;" horiz-adv-x="655" 
d="M636 1q-30 -8 -55 -8q-47 0 -82.5 15t-59.5 41t-36 62.5t-12 80.5v250h-199v-442h-107v442h-72v88h72v59q0 77 55 131q55 55 133 55q28 0 63 -7v-105q-33 11 -63 11q-17 0 -31.5 -6.5t-25.5 -18t-17.5 -27t-6.5 -33.5v-59h199v106l107 44v-150h138v-88h-138v-250
q0 -39 22.5 -68.5t64.5 -29.5q30 0 51 7v-100z" />
    <glyph glyph-name="t_f" unicode="&#xe38a;" horiz-adv-x="684" 
d="M333 1q-30 -8 -55 -8q-47 0 -82.5 15t-59.5 41t-36 62.5t-12 80.5v250h-70v88h70v106l107 44v-150h232v59q0 77 55 131q55 55 133 55q28 0 63 -7v-105q-33 11 -63 11q-17 0 -31.5 -6.5t-25.5 -18t-17.5 -27t-6.5 -33.5v-59h137v-88h-137v-442h-107v442h-232v-250
q0 -39 22.5 -68.5t64.5 -29.5q30 0 51 7v-100z" />
    <glyph glyph-name="t_t" unicode="&#xe38b;" horiz-adv-x="694" 
d="M675 1q-30 -8 -55 -8q-47 0 -82.5 15t-59.5 41t-36 62.5t-12 80.5v250h-235v-250q0 -39 22.5 -68.5t64.5 -29.5q30 0 51 7v-100q-30 -8 -55 -8q-47 0 -82.5 15t-59.5 41t-36 62.5t-12 80.5v250h-70v88h70v94l107 44v-138h235v106l107 44v-150h138v-88h-138v-250
q0 -39 22.5 -68.5t64.5 -29.5q30 0 51 7v-100z" />
    <glyph glyph-name="parenleft.uc" unicode="&#xe440;" horiz-adv-x="318" 
d="M289 800q-20 -31 -36 -59t-29 -53q-24 -48 -49 -141q-11 -46 -17 -93t-6 -97t6 -97t17 -93q25 -93 49 -141q13 -25 29 -53t36 -59h-103q-17 29 -29.5 51.5t-20.5 36.5q-8 15 -18 37.5t-23 53.5q-25 61 -36.5 125t-11.5 139t11.5 139t36.5 124q13 31 23.5 53.5t18.5 38.5
t20 37.5t29 50.5h103z" />
    <glyph glyph-name="parenright.uc" unicode="&#xe441;" horiz-adv-x="318" 
d="M132 800q17 -29 29 -50.5t20 -37.5t18 -38.5t23 -53.5q26 -60 37.5 -124t11.5 -139t-11.5 -139t-37.5 -125q-13 -31 -23 -53.5t-18 -37.5q-8 -14 -20 -36.5t-29 -51.5h-103q20 31 36 59t29 53q25 49 48 141q24 91 24 190q0 98 -24 190q-23 91 -48 141q-13 25 -29 53
t-36 59h103z" />
    <glyph glyph-name="hyphen.uc" unicode="&#xe442;" horiz-adv-x="323" 
d="M35 403h252v-98h-252v98z" />
    <glyph glyph-name="bracketleft.uc" unicode="&#xe443;" horiz-adv-x="316" 
d="M289 728h-99v-736h99v-102h-207v940h207v-102z" />
    <glyph glyph-name="bracketright.uc" unicode="&#xe444;" horiz-adv-x="316" 
d="M126 728h-99v102h207v-940h-207v102h99v736z" />
    <glyph glyph-name="braceleft.uc" unicode="&#xe460;" horiz-adv-x="316" 
d="M284 830v-98h-65q-19 0 -33 -15.5t-14 -42.5q0 -30 27 -97q28 -66 28 -95q0 -70 -53 -121q53 -50 53 -121q0 -29 -28 -95q-27 -68 -27 -97q0 -26 14 -41.5t33 -15.5h65v-99h-65q-65 0 -110 46q-44 47 -44 110q0 32 27 100q27 69 27 92q0 35 -24.5 53.5t-62.5 18.5v98
q38 0 62.5 19t24.5 53q0 22 -27 91t-27 101q0 64 44 110q43 46 110 46h65z" />
    <glyph glyph-name="bar.uc" unicode="&#xe461;" horiz-adv-x="261" 
d="M177 840v-980h-93v980h93z" />
    <glyph glyph-name="braceright.uc" unicode="&#xe462;" horiz-adv-x="316" 
d="M32 830h65q67 0 110 -46q44 -46 44 -110q0 -32 -27 -101t-27 -91q0 -34 24.5 -53t62.5 -19v-98q-38 0 -62.5 -18.5t-24.5 -53.5q0 -23 27 -92q27 -68 27 -100q0 -64 -45 -110q-43 -46 -109 -46h-65v99h65q19 0 33 15.5t14 41.5q0 31 -28 97q-27 67 -27 95q0 71 53 121
q-53 51 -53 121q0 27 27 95q28 66 28 97q0 27 -14 42.5t-33 15.5h-65v98z" />
    <glyph glyph-name="slash.uc" unicode="&#xe463;" horiz-adv-x="445" 
d="M335 811l95 -35l-319 -876l-94 34z" />
    <glyph glyph-name="questiondown.uc" unicode="&#xe464;" horiz-adv-x="479" 
d="M216 -6q-85 0 -141 53q-55 54 -55 139q0 37 13 65.5t33 52t42.5 43t42.5 37.5t33 36.5t13 39.5v67h106v-81q0 -30 -13 -54.5t-32.5 -46.5t-42.5 -41.5t-42.5 -39t-32.5 -39t-13 -41.5q0 -42 25.5 -64.5t65.5 -22.5q63 0 113 44v-122q-54 -25 -115 -25zM182 657
q0 28 19.5 47t47.5 19t47.5 -19t19.5 -47q0 -29 -19.5 -49t-47.5 -20t-47.5 20t-19.5 49z" />
    <glyph glyph-name="exclamdown.uc" unicode="&#xe465;" horiz-adv-x="272" 
d="M82 -6v530h107v-530h-107zM135 576q-27 0 -46.5 20.5t-19.5 48.5t19.5 47t46.5 19q28 0 48 -19t20 -47t-20 -48.5t-48 -20.5z" />
    <glyph glyph-name="backslash.uc" unicode="&#xe466;" horiz-adv-x="445" 
d="M112 811l318 -877l-94 -34l-319 876z" />
    <glyph glyph-name="endash.uc" unicode="&#xe470;" horiz-adv-x="516" 
d="M36 403h444v-98h-444v98z" />
    <glyph glyph-name="emdash.uc" unicode="&#xe471;" horiz-adv-x="955" 
d="M36 403h883v-98h-883v98z" />
    <glyph glyph-name="guilsinglleft.uc" unicode="&#xe472;" horiz-adv-x="319" 
d="M282 549l-130 -193l130 -193h-115l-131 193l131 193h115z" />
    <glyph glyph-name="guilsinglright.uc" unicode="&#xe473;" horiz-adv-x="318" 
d="M167 356l-131 193h115l131 -193l-131 -193h-115z" />
    <glyph glyph-name="guillemotleft.uc" unicode="&#xe474;" horiz-adv-x="519" 
d="M283 548l-131 -193l131 -193h-116l-131 193l131 193h116zM483 548l-130 -193l130 -193h-116l-130 193l130 193h116z" />
    <glyph glyph-name="guillemotright.uc" unicode="&#xe475;" horiz-adv-x="518" 
d="M367 356l-131 193h115l131 -193l-131 -193h-115zM166 356l-130 193h114l131 -193l-131 -193h-114z" />
    <glyph glyph-name="uni0200.small" unicode="&#xe540;" horiz-adv-x="565" 
d="M315 534l238 -534h-116l-48 113h-214l-48 -113h-116l237 534h67zM214 211h135l-48 128q-7 17 -11 31.5t-6 27.5h-4q-8 -32 -18 -59zM243 730l57 58l127 -139l-45 -45zM87 730l57 58l127 -139l-45 -45z" />
    <glyph glyph-name="uni0202.small" unicode="&#xe541;" horiz-adv-x="565" 
d="M315 534l238 -534h-116l-48 113h-214l-48 -113h-116l237 534h67zM214 211h135l-48 128q-7 17 -11 31.5t-6 27.5h-4q-8 -32 -18 -59zM460 656l-38 -52l-139 86l-140 -86l-38 52l178 136z" />
    <glyph glyph-name="uni0204.small" unicode="&#xe542;" horiz-adv-x="460" 
d="M76 0v534h320v-99h-214v-105h207v-99h-207v-132h214v-99h-320zM207 730l57 58l127 -139l-45 -45zM51 730l57 58l127 -139l-45 -45z" />
    <glyph glyph-name="uni0206.small" unicode="&#xe543;" horiz-adv-x="460" 
d="M76 0v534h320v-99h-214v-105h207v-99h-207v-132h214v-99h-320zM408 656l-38 -52l-139 86l-140 -86l-38 52l178 136z" />
    <glyph glyph-name="uni0208.small" unicode="&#xe544;" horiz-adv-x="262" 
d="M82 730l57 58l127 -139l-45 -45zM-74 730l57 58l127 -139l-45 -45zM182 534v-534h-106v534h106z" />
    <glyph glyph-name="uni020A.small" unicode="&#xe545;" horiz-adv-x="262" 
d="M308 656l-38 -52l-139 86l-140 -86l-38 52l178 136zM182 534v-534h-106v534h106z" />
    <glyph glyph-name="uni020C.small" unicode="&#xe546;" horiz-adv-x="635" 
d="M123 462q79 81 193 81q112 0 192 -81q80 -80 80 -195t-80 -195t-192 -80q-113 0 -193 80q-79 79 -79 195t79 195zM316 92q71 0 118 51q46 50 46 124t-46 124q-46 52 -118 52q-73 0 -119 -52q-46 -50 -46 -124t46 -124q46 -51 119 -51zM275 730l57 58l127 -139l-45 -45z
M119 730l57 58l127 -139l-45 -45z" />
    <glyph glyph-name="uni020E.small" unicode="&#xe550;" horiz-adv-x="635" 
d="M123 462q79 81 193 81q112 0 192 -81q80 -80 80 -195t-80 -195t-192 -80q-113 0 -193 80q-79 79 -79 195t79 195zM316 92q71 0 118 51q46 50 46 124t-46 124q-46 52 -118 52q-73 0 -119 -52q-46 -50 -46 -124t46 -124q46 -51 119 -51zM493 656l-38 -52l-139 86l-140 -86
l-38 52l178 136z" />
    <glyph glyph-name="uni0210.small" unicode="&#xe551;" horiz-adv-x="490" 
d="M471 0h-133l-131 196h-25v-196h-106v534h158q45 0 80.5 -12.5t59.5 -34.5t36.5 -52.5t12.5 -66.5q0 -52 -28 -93t-79 -60zM182 435v-136h51q38 0 60.5 18.5t22.5 50.5q0 31 -22.5 49t-60.5 18h-51zM185 730l57 58l127 -139l-45 -45zM29 730l57 58l127 -139l-45 -45z" />
    <glyph glyph-name="uni0212.small" unicode="&#xe552;" horiz-adv-x="490" 
d="M471 0h-133l-131 196h-25v-196h-106v534h158q45 0 80.5 -12.5t59.5 -34.5t36.5 -52.5t12.5 -66.5q0 -52 -28 -93t-79 -60zM182 435v-136h51q38 0 60.5 18.5t22.5 50.5q0 31 -22.5 49t-60.5 18h-51zM408 656l-38 -52l-139 86l-140 -86l-38 52l178 136z" />
    <glyph glyph-name="uni0214.small" unicode="&#xe553;" horiz-adv-x="545" 
d="M467 196q0 -94 -58 -149q-56 -55 -139 -55t-139 55q-57 55 -57 149v338h106v-333q0 -52 25.5 -80t64.5 -28q38 0 64 28t26 80v333h107v-338zM240 730l57 58l127 -139l-45 -45zM84 730l57 58l127 -139l-45 -45z" />
    <glyph glyph-name="uni0216.small" unicode="&#xe554;" horiz-adv-x="545" 
d="M467 196q0 -94 -58 -149q-56 -55 -139 -55t-139 55q-57 55 -57 149v338h106v-333q0 -52 25.5 -80t64.5 -28q38 0 64 28t26 80v333h107v-338zM446 656l-38 -52l-139 86l-140 -86l-38 52l178 136z" />
    <glyph glyph-name="uni021A.small" unicode="&#xe555;" horiz-adv-x="386" 
d="M245 434v-434h-106v434h-124v100h353v-100h-123zM114 -256q19 55 32 106t21 100l96 8q-38 -128 -93 -224z" />
    <glyph glyph-name="quotedbl.small" unicode="&#xe640;" horiz-adv-x="390" 
d="M50 623h114l-20 -290h-74zM222 623h115l-20 -290h-75z" />
    <glyph glyph-name="quotesingle.small" unicode="&#xe641;" horiz-adv-x="218" 
d="M50 623h114l-20 -290h-74z" />
    <glyph glyph-name="quoteleft.small" unicode="&#xe642;" horiz-adv-x="253" 
d="M223 674q-52 -149 -71 -281l-122 -12q54 183 126 305z" />
    <glyph glyph-name="quoteright.small" unicode="&#xe643;" horiz-adv-x="253" 
d="M30 393q52 149 71 281l122 12q-54 -183 -126 -305z" />
    <glyph glyph-name="quotedblleft.small" unicode="&#xe644;" horiz-adv-x="448" 
d="M223 674q-52 -149 -71 -281l-122 -12q54 183 126 305zM418 674q-52 -149 -71 -281l-122 -12q54 183 126 305z" />
    <glyph glyph-name="quotedblright.small" unicode="&#xe645;" horiz-adv-x="448" 
d="M30 393q52 149 71 281l122 12q-54 -183 -126 -305zM225 393q52 149 71 281l122 12q-54 -183 -126 -305z" />
    <glyph glyph-name="M.alt1" unicode="&#xe646;" horiz-adv-x="825" 
d="M413 452l260 260h75v-712h-109v406q0 42 1 72.5t3 51.5h-7q-18 -23 -35 -43t-33 -36l-155 -154l-154 154q-39 39 -69 79h-6q2 -42 3 -73t1 -51v-406h-110v712h76z" />
    <glyph glyph-name="m.smallalt1" unicode="&#xe647;" horiz-adv-x="682" 
d="M339 356l178 178h86v-534h-106v266q0 33 1 59t3 45h-7q-20 -25 -34.5 -42t-24.5 -27l-96 -96l-95 96q-24 24 -60 69h-6q2 -38 3 -64t1 -40v-266h-106v534h85z" />
    <glyph glyph-name="ampersand.alt1" unicode="&#xe648;" horiz-adv-x="693" 
d="M320 335q-33 0 -61 -8.5t-48.5 -24t-32 -37.5t-11.5 -49q0 -54 38.5 -87t98.5 -33q30 0 55 9t43 25t28 38t10 48v119h-120zM440 495l107 44v-115h125v-89h-125v-158q0 -34 19.5 -59t53.5 -25q25 0 52 8v-99q-32 -8 -55 -8q-46 0 -82 20.5t-56 51.5q-28 -34 -74.5 -55.5
t-100.5 -21.5q-113 0 -181 65t-68 165q0 51 25 93.5t71 68.5q-74 48 -74 135q0 90 62 149q64 59 157 59q79 0 143 -37v-120q-68 50 -143 50q-45 0 -76 -27.5t-31 -70.5q0 -40 35.5 -67.5t95.5 -27.5h120v71z" />
    <glyph glyph-name="ampersand.smallalt1" unicode="&#xe649;" horiz-adv-x="586" 
d="M333 232h-68q-51 0 -77 -20.5t-26 -54.5q0 -32 24 -50.5t60 -18.5q18 0 33.5 6.5t27.5 17t19 25t7 31.5v64zM565 232h-125v-58q0 -34 19.5 -59t54.5 -25q25 0 51 8v-99q-30 -8 -55 -8q-77 0 -129 63q-54 -65 -135 -65q-85 0 -138 46q-53 47 -53 121q0 36 17.5 72t49.5 54
q-52 31 -52 102q0 69 49 112q50 44 122 44q48 0 92 -23v-107q-40 31 -88 31q-30 0 -49 -16.5t-19 -43.5q0 -59 88 -59h68v46l107 43v-89h125v-90z" />
    <glyph glyph-name="alpha.small" unicode="&#xe800;" horiz-adv-x="565" 
d="M315 534l238 -534h-116l-48 113h-214l-48 -113h-116l237 534h67zM214 211h135l-48 128q-7 17 -11 31.5t-6 27.5h-4q-8 -32 -18 -59z" />
    <glyph glyph-name="beta.small" unicode="&#xe801;" horiz-adv-x="482" 
d="M182 435v-115h60q67 0 67 58q0 26 -19.5 41.5t-49.5 15.5h-58zM182 221v-122h69q33 0 54 16t21 47q0 59 -79 59h-65zM415 378q0 -63 -46 -100q29 -19 47 -52t18 -66q0 -75 -52 -118q-53 -42 -128 -42h-178v534h160q88 0 133 -46q46 -45 46 -110z" />
    <glyph glyph-name="chi.small" unicode="&#xe802;" horiz-adv-x="505" 
d="M26 534h126l68 -108l28 -56h6q8 18 15 31.5t14 23.5l68 109h126l-163 -256l178 -278h-125l-84 133q-8 14 -15.5 27t-13.5 27h-5q-8 -17 -15.5 -30.5t-14.5 -24.5l-83 -132h-125l178 278z" />
    <glyph glyph-name="delta.small" unicode="&#xe803;" horiz-adv-x="510" 
d="M251 371l-20 -65l-5 -16l-71 -190h199q-38 101 -62.5 168.5t-34.5 102.5h-6zM28 0v62l192 469h71l191 -468v-63h-454z" />
    <glyph glyph-name="epsilon.small" unicode="&#xe804;" horiz-adv-x="460" 
d="M76 0v534h320v-99h-214v-105h207v-99h-207v-132h214v-99h-320z" />
    <glyph glyph-name="eta.small" unicode="&#xe805;" horiz-adv-x="555" 
d="M369 331v203h107v-534h-107v230h-187v-230h-106v534h106v-203h187z" />
    <glyph glyph-name="gamma.small" unicode="&#xe806;" horiz-adv-x="371" 
d="M182 433v-433h-106v534h277v-101h-171z" />
    <glyph glyph-name="iota.small" unicode="&#xe807;" horiz-adv-x="262" 
d="M182 534v-534h-106v534h106z" />
    <glyph glyph-name="kappa.small" unicode="&#xe808;" horiz-adv-x="510" 
d="M76 534h106v-148q0 -19 -3 -55h4q5 9 11.5 18t14.5 18l149 167h139l-229 -253l226 -281h-135l-158 205l-19 -22v-183h-106v534z" />
    <glyph glyph-name="lambda.small" unicode="&#xe809;" horiz-adv-x="531" 
d="M126 0h-115l218 534h71l218 -534h-115l-104 264q-5 14 -13 40t-19 64h-5q-20 -70 -33 -104z" />
    <glyph glyph-name="mu.small" unicode="&#xe80a;" horiz-adv-x="682" 
d="M339 356l178 178h86v-534h-106v266q0 33 1 59t3 45h-7q-20 -25 -34.5 -42t-24.5 -27l-96 -96l-95 96q-24 24 -60 69h-6q2 -38 3 -64t1 -40v-266h-106v534h85z" />
    <glyph glyph-name="nu.small" unicode="&#xe80b;" horiz-adv-x="583" 
d="M76 534h87l207 -285q3 -4 7 -10.5t7.5 -13t6.5 -12t5 -7.5h4q-2 28 -3 43.5t-1 19.5v265h107v-534h-77l-214 293l-30 51h-4q4 -23 4 -63v-281h-106v534z" />
    <glyph glyph-name="omega.small" unicode="&#xe80c;" horiz-adv-x="619" 
d="M473 95q15 2 25.5 3.5t16.5 1.5h53v-100h-219v108q25 11 46.5 28.5t37 40t24 48t8.5 52.5q0 72 -43 118q-44 47 -114 47t-114 -47q-43 -46 -43 -118q0 -27 9 -52.5t24.5 -48t37 -40t46.5 -28.5v-108h-219v100h53q4 0 14 -1.5t27 -3.5v6q-48 25 -73 75q-26 54 -26 105
q0 114 74 188q76 74 190 74q115 0 189 -74q75 -74 75 -188q0 -27 -6.5 -53.5t-19 -50.5t-31 -44t-42.5 -33v-5z" />
    <glyph glyph-name="omicron.small" unicode="&#xe80d;" horiz-adv-x="635" 
d="M123 462q79 81 193 81q112 0 192 -81q80 -80 80 -195t-80 -195t-192 -80q-113 0 -193 80q-79 79 -79 195t79 195zM316 92q71 0 118 51q46 50 46 124t-46 124q-46 52 -118 52q-73 0 -119 -52q-46 -50 -46 -124t46 -124q46 -51 119 -51z" />
    <glyph glyph-name="phi.small" unicode="&#xe80e;" horiz-adv-x="635" 
d="M369 555v-58q23 -2 60 -13.5t72.5 -38t61 -70t25.5 -108.5q0 -61 -25 -108.5t-63 -72.5q-37 -24 -70.5 -36.5t-60.5 -13.5v-58h-105v58q-23 1 -60 13t-72.5 38.5t-61.5 70.5t-26 109q0 66 26 110t61.5 70t72.5 37.5t60 12.5v58h105zM264 398q-41 -3 -77 -36t-36 -95
t35 -95q36 -32 78 -36v262zM369 136q43 5 77 36q36 33 36 95t-36 94q-34 32 -77 37v-262z" />
    <glyph glyph-name="pi.small" unicode="&#xe80f;" horiz-adv-x="556" 
d="M76 534h400v-534h-107v433h-187v-433h-106v534z" />
    <glyph glyph-name="psi.small" unicode="&#xe810;" horiz-adv-x="625" 
d="M456 534h105v-183q0 -96 -53.5 -149t-144.5 -55v-147h-103v147q-90 1 -143 54.5t-53 149.5v183h105v-176q0 -54 24 -82.5t67 -28.5v287h103v-287q42 2 67.5 30.5t25.5 80.5v176z" />
    <glyph glyph-name="rho.small" unicode="&#xe811;" horiz-adv-x="467" 
d="M181 435v-159h51q43 0 69 22t26 58t-26.5 57.5t-68.5 21.5h-51zM75 534h158q95 0 148 -51q54 -50 54 -127q0 -89 -60 -134q-59 -45 -149 -45h-45v-177h-106v534z" />
    <glyph glyph-name="sigma.small" unicode="&#xe812;" horiz-adv-x="470" 
d="M414 534v-101h-208l124 -166l-124 -167h208v-100h-358v78l142 189l-142 188v79h358z" />
    <glyph glyph-name="tau.small" unicode="&#xe813;" horiz-adv-x="386" 
d="M245 434v-434h-106v434h-124v100h353v-100h-123z" />
    <glyph glyph-name="theta.small" unicode="&#xe814;" horiz-adv-x="635" 
d="M233 308h165v-81h-165v81zM123 462q79 81 193 81q112 0 192 -81q80 -80 80 -195t-80 -195t-192 -80q-113 0 -193 80q-79 79 -79 195t79 195zM316 92q71 0 118 51q46 50 46 124t-46 124q-46 52 -118 52q-73 0 -119 -52q-46 -50 -46 -124t46 -124q46 -51 119 -51z" />
    <glyph glyph-name="upsilon.small" unicode="&#xe815;" horiz-adv-x="489" 
d="M357 534h120l-180 -315v-219h-106v219l-180 315h120l83 -142q7 -13 13.5 -27t12.5 -31h6q17 42 27 58z" />
    <glyph glyph-name="xi.small" unicode="&#xe816;" horiz-adv-x="447" 
d="M64 434v100h319v-100h-319zM71 225v98h306v-98h-306zM64 0v100h319v-100h-319z" />
    <glyph glyph-name="zeta.small" unicode="&#xe817;" horiz-adv-x="449" 
d="M41 534h386v-67l-226 -322l-35 -44v-5q39 3 64 3h198v-99h-408v66l229 326q19 28 31 40v6q-45 -3 -71 -3h-168v99z" />
    <glyph glyph-name="alphatonos.small" unicode="&#xe818;" horiz-adv-x="565" 
d="M315 534l238 -534h-116l-48 113h-214l-48 -113h-116l237 534h67zM214 211h135l-48 128q-7 17 -11 31.5t-6 27.5h-4q-8 -32 -18 -59zM283 809l76 -35l-94 -179l-60 30z" />
    <glyph glyph-name="epsilontonos.small" unicode="&#xe819;" horiz-adv-x="460" 
d="M76 0v534h320v-99h-214v-105h207v-99h-207v-132h214v-99h-320zM238 809l76 -35l-94 -179l-60 30z" />
    <glyph glyph-name="etatonos.small" unicode="&#xe81a;" horiz-adv-x="555" 
d="M369 331v203h107v-534h-107v230h-187v-230h-106v534h106v-203h187zM276 809l76 -35l-94 -179l-60 30z" />
    <glyph glyph-name="iotatonos.small" unicode="&#xe81b;" horiz-adv-x="262" 
d="M182 534v-534h-106v534h106zM135 809l76 -35l-94 -179l-60 30z" />
    <glyph glyph-name="omicrontonos.small" unicode="&#xe81c;" horiz-adv-x="635" 
d="M123 462q79 81 193 81q112 0 192 -81q80 -80 80 -195t-80 -195t-192 -80q-113 0 -193 80q-79 79 -79 195t79 195zM316 92q71 0 118 51q46 50 46 124t-46 124q-46 52 -118 52q-73 0 -119 -52q-46 -50 -46 -124t46 -124q46 -51 119 -51zM316 809l76 -35l-94 -179l-60 30z
" />
    <glyph glyph-name="upsilontonos.small" unicode="&#xe81d;" horiz-adv-x="489" 
d="M357 534h120l-180 -315v-219h-106v219l-180 315h120l83 -142q7 -13 13.5 -27t12.5 -31h6q17 42 27 58zM245 809l76 -35l-94 -179l-60 30z" />
    <glyph glyph-name="omegatonos.small" unicode="&#xe81e;" horiz-adv-x="619" 
d="M473 95q15 2 25.5 3.5t16.5 1.5h53v-100h-219v108q25 11 46.5 28.5t37 40t24 48t8.5 52.5q0 72 -43 118q-44 47 -114 47t-114 -47q-43 -46 -43 -118q0 -27 9 -52.5t24.5 -48t37 -40t46.5 -28.5v-108h-219v100h53q4 0 14 -1.5t27 -3.5v6q-48 25 -73 75q-26 54 -26 105
q0 114 74 188q76 74 190 74q115 0 189 -74q75 -74 75 -188q0 -27 -6.5 -53.5t-19 -50.5t-31 -44t-42.5 -33v-5zM312 809l76 -35l-94 -179l-60 30z" />
    <glyph glyph-name="iotadieresis.small" unicode="&#xe81f;" horiz-adv-x="262" 
d="M182 534v-534h-106v534h106zM85 737q18 -17 18 -41t-18 -41q-17 -17 -41 -17t-41 17t-17 41t17 41q17 18 41 18t41 -18zM174 737q17 18 41 18t41 -18q18 -17 18 -41t-18 -41q-17 -17 -41 -17t-41 17t-17 41t17 41z" />
    <glyph glyph-name="upsilondieresis.small" unicode="&#xe820;" horiz-adv-x="489" 
d="M357 534h120l-180 -315v-219h-106v219l-180 315h120l83 -142q7 -13 13.5 -27t12.5 -31h6q17 42 27 58zM198 737q18 -17 18 -41t-18 -41q-17 -17 -41 -17t-41 17t-17 41t17 41q17 18 41 18t41 -18zM287 737q17 18 41 18t41 -18q18 -17 18 -41t-18 -41q-17 -17 -41 -17
t-41 17t-17 41t17 41z" />
    <glyph glyph-name="afii10065.small" unicode="&#xe900;" horiz-adv-x="565" 
d="M315 534l238 -534h-116l-48 113h-214l-48 -113h-116l237 534h67zM214 211h135l-48 128q-7 17 -11 31.5t-6 27.5h-4q-8 -32 -18 -59z" />
    <glyph glyph-name="afii10066.small" unicode="&#xe901;" horiz-adv-x="443" 
d="M382 434h-223v-104h79q75 0 128 -45q52 -43 52 -120q0 -76 -52 -121q-52 -44 -128 -44h-186v534h330v-100zM234 96q34 0 55.5 18t21.5 51q0 32 -21.5 50.5t-55.5 18.5h-75v-138h75z" />
    <glyph glyph-name="afii10067.small" unicode="&#xe902;" horiz-adv-x="482" 
d="M182 435v-115h60q67 0 67 58q0 26 -19.5 41.5t-49.5 15.5h-58zM182 221v-122h69q33 0 54 16t21 47q0 59 -79 59h-65zM415 378q0 -63 -46 -100q29 -19 47 -52t18 -66q0 -75 -52 -118q-53 -42 -128 -42h-178v534h160q88 0 133 -46q46 -45 46 -110z" />
    <glyph glyph-name="afii10068.small" unicode="&#xe903;" horiz-adv-x="371" 
d="M182 433v-433h-106v534h277v-101h-171z" />
    <glyph glyph-name="afii10069.small" unicode="&#xe904;" horiz-adv-x="555" 
d="M21 -131v232h30q25 0 46 69t21 135v229h361v-433h52v-232h-90v131h-329v-131h-91zM373 100v333h-149v-130q0 -124 -45 -203h194z" />
    <glyph glyph-name="afii10070.small" unicode="&#xe905;" horiz-adv-x="460" 
d="M76 0v534h320v-99h-214v-105h207v-99h-207v-132h214v-99h-320z" />
    <glyph glyph-name="afii10072.small" unicode="&#xe906;" horiz-adv-x="758" 
d="M548 299q42 -15 72.5 -39.5t48.5 -61.5q10 -18 17 -34.5t12 -32.5q5 -15 10.5 -34.5t11.5 -44.5l12 -52h-107l-11 43l-14 51q-2 8 -7 19t-12 25q-10 19 -22.5 33t-30.5 23.5t-42 14.5t-56 7v-216h-105v216q-97 0 -138 -56q-9 -14 -16 -26.5t-12.5 -26t-9.5 -29.5t-8 -35
l-9 -43h-110l16 60l16 62q4 11 8.5 24.5t11.5 29.5q20 45 49.5 73t84.5 50l-186 235h128l110 -143l52 -74h13v217h105v-217h14l21 33q18 27 31 41l109 143h129z" />
    <glyph glyph-name="afii10073.small" unicode="&#xe907;" horiz-adv-x="407" 
d="M110 241v83h35q48 0 72 16t24 43t-19 43.5t-49 16.5q-73 0 -126 -38v112q64 26 130 26q72 0 122 -44q49 -43 49 -112q0 -71 -52 -102q33 -18 50.5 -51.5t17.5 -68.5q0 -74 -53 -124q-52 -49 -134 -49q-71 0 -136 25v107q55 -33 131 -33q35 0 59.5 20.5t24.5 53.5
q0 34 -30 55t-81 21h-35z" />
    <glyph glyph-name="afii10074.small" unicode="&#xe908;" horiz-adv-x="583" 
d="M416 534h87v-534h-106v281q0 40 4 63h-4l-30 -51l-214 -293h-77v534h107v-265q0 -4 -1 -19.5t-3 -43.5h4q1 2 4.5 7.5t7 12t7.5 13t7 10.5z" />
    <glyph glyph-name="afii10075.small" unicode="&#xe909;" horiz-adv-x="583" 
d="M416 534h87v-534h-106v281q0 40 4 63h-4l-30 -51l-214 -293h-77v534h107v-265q0 -4 -1 -19.5t-3 -43.5h4q1 2 4.5 7.5t7 12t7.5 13t7 10.5zM459 739q-25 -63 -72 -91t-101 -28q-53 0 -101 28.5t-72 90.5l65 28q12 -32 32 -50q20 -17 36.5 -21t39.5 -4q35 0 62.5 14.5
t46.5 60.5z" />
    <glyph glyph-name="afii10076.small" unicode="&#xe90a;" horiz-adv-x="509" 
d="M297 299q43 -15 73.5 -39.5t49.5 -61.5q10 -18 17 -34.5t12 -32.5q5 -15 10.5 -34.5t11.5 -44.5l12 -52h-108l-6 25l-7 26l-6 25q-5 19 -8.5 26t-10.5 22q-6 16 -12.5 23t-16.5 18q-11 15 -29.5 25t-41.5 16q-21 10 -55 10v-216h-106v534h106v-216h14q60 85 159 216h130z
" />
    <glyph glyph-name="afii10077.small" unicode="&#xe90b;" horiz-adv-x="548" 
d="M103 534h365v-534h-106v433h-153v-258q0 -42 -13.5 -75.5t-37 -56.5t-56.5 -35t-72 -12v103q32 0 52.5 20t20.5 58v357z" />
    <glyph glyph-name="afii10078.small" unicode="&#xe90c;" horiz-adv-x="682" 
d="M339 356l178 178h86v-534h-106v266q0 33 1 59t3 45h-7q-20 -25 -34.5 -42t-24.5 -27l-96 -96l-95 96q-24 24 -60 69h-6q2 -38 3 -64t1 -40v-266h-106v534h85z" />
    <glyph glyph-name="afii10079.small" unicode="&#xe90d;" horiz-adv-x="555" 
d="M369 331v203h107v-534h-107v230h-187v-230h-106v534h106v-203h187z" />
    <glyph glyph-name="afii10080.small" unicode="&#xe90e;" horiz-adv-x="635" 
d="M123 462q79 81 193 81q112 0 192 -81q80 -80 80 -195t-80 -195t-192 -80q-113 0 -193 80q-79 79 -79 195t79 195zM316 92q71 0 118 51q46 50 46 124t-46 124q-46 52 -118 52q-73 0 -119 -52q-46 -50 -46 -124t46 -124q46 -51 119 -51z" />
    <glyph glyph-name="afii10081.small" unicode="&#xe90f;" horiz-adv-x="556" 
d="M76 534h400v-534h-107v433h-187v-433h-106v534z" />
    <glyph glyph-name="afii10082.small" unicode="&#xe910;" horiz-adv-x="467" 
d="M181 435v-159h51q43 0 69 22t26 58t-26.5 57.5t-68.5 21.5h-51zM75 534h158q95 0 148 -51q54 -50 54 -127q0 -89 -60 -134q-59 -45 -149 -45h-45v-177h-106v534z" />
    <glyph glyph-name="afii10083.small" unicode="&#xe911;" horiz-adv-x="502" 
d="M450 28q-71 -36 -134 -36q-113 0 -193 80q-79 79 -79 195t79 195q79 81 193 81q66 0 134 -37v-121q-67 58 -134 58q-73 0 -119 -52q-46 -50 -46 -124q0 -73 46 -125q46 -51 119 -51q64 0 134 55v-118z" />
    <glyph glyph-name="afii10084.small" unicode="&#xe912;" horiz-adv-x="386" 
d="M245 434v-434h-106v434h-124v100h353v-100h-123z" />
    <glyph glyph-name="afii10085.small" unicode="&#xe913;" horiz-adv-x="481" 
d="M174 0h-115l129 224q-4 8 -26.5 47.5t-64.5 111.5l-86 151h119l83 -142q7 -14 27 -63h6q12 39 28 63l84 142h118z" />
    <glyph glyph-name="afii10086.small" unicode="&#xe914;" horiz-adv-x="635" 
d="M369 555v-58q23 -2 60 -13.5t72.5 -38t61 -70t25.5 -108.5q0 -61 -25 -108.5t-63 -72.5q-37 -24 -70.5 -36.5t-60.5 -13.5v-58h-105v58q-23 1 -60 13t-72.5 38.5t-61.5 70.5t-26 109q0 66 26 110t61.5 70t72.5 37.5t60 12.5v58h105zM264 398q-41 -3 -77 -36t-36 -95
t35 -95q36 -32 78 -36v262zM369 136q43 5 77 36q36 33 36 95t-36 94q-34 32 -77 37v-262z" />
    <glyph glyph-name="afii10087.small" unicode="&#xe915;" horiz-adv-x="505" 
d="M26 534h126l68 -108l28 -56h6q8 18 15 31.5t14 23.5l68 109h126l-163 -256l178 -278h-125l-84 133q-8 14 -15.5 27t-13.5 27h-5q-8 -17 -15.5 -30.5t-14.5 -24.5l-83 -132h-125l178 278z" />
    <glyph glyph-name="afii10088.small" unicode="&#xe916;" horiz-adv-x="522" 
d="M407 -131v131h-354v534h106v-433h187v433h107v-433h45v-232h-91z" />
    <glyph glyph-name="afii10089.small" unicode="&#xe917;" horiz-adv-x="496" 
d="M312 0v190q-74 -13 -120 -13q-75 0 -112.5 44.5t-37.5 123.5v189h106v-152q0 -108 60 -108q51 0 104 13v247h104v-534h-104z" />
    <glyph glyph-name="afii10090.small" unicode="&#xe918;" horiz-adv-x="782" 
d="M76 0v534h107v-435h154v435h105v-435h154v435h106v-534h-626z" />
    <glyph glyph-name="afii10091.small" unicode="&#xe919;" horiz-adv-x="771" 
d="M76 0v534h107v-435h154v435h105v-435h154v435h106v-435h45v-230h-90v131h-581z" />
    <glyph glyph-name="afii10092.small" unicode="&#xe91a;" horiz-adv-x="528" 
d="M318 330q75 0 128 -45q52 -43 52 -120q0 -76 -52 -121q-52 -44 -128 -44h-186v433h-117v101h223v-204h80zM315 96q34 0 55 18t21 51q0 32 -21.5 50.5t-54.5 18.5h-77v-138h77z" />
    </font>
</defs>
</svg>
